<svg xmlns="http://www.w3.org/2000/svg" xmlns:xlink="http://www.w3.org/1999/xlink" width="108" height="108" viewBox="0 0 108 108">
  <defs>
    <filter id="Fondo" x="0" y="0" width="108" height="108" filterUnits="userSpaceOnUse">
      <feOffset dy="3" input="SourceAlpha"/>
      <feGaussianBlur stdDeviation="3" result="blur"/>
      <feFlood flood-opacity="0.161"/>
      <feComposite operator="in" in2="blur"/>
      <feComposite in="SourceGraphic"/>
    </filter>
  </defs>
  <g id="Icono" transform="translate(8.5 -689)">
    <g transform="matrix(1, 0, 0, 1, -8.5, 689)" filter="url(#Fondo)">
      <g id="Fondo-2" data-name="Fondo" transform="translate(9 6)" fill="#fbf8e2">
        <path d="M 45 88.5 C 39.12687683105469 88.5 33.43022537231445 87.35007476806641 28.06830024719238 85.08217620849609 C 22.88852500915527 82.89131164550781 18.23629951477051 79.75458526611328 14.2408504486084 75.75914764404297 C 10.24541282653809 71.76370239257812 7.108687400817871 67.11147308349609 4.917825222015381 61.93170166015625 C 2.649924993515015 56.56977462768555 1.5 50.87312316894531 1.5 45 C 1.5 39.12687683105469 2.649924993515015 33.43022537231445 4.917825222015381 28.06830024719238 C 7.108687400817871 22.88852500915527 10.24541282653809 18.23629951477051 14.2408504486084 14.2408504486084 C 18.23629951477051 10.24541282653809 22.88852500915527 7.108687400817871 28.06830024719238 4.917825222015381 C 33.43022537231445 2.649924993515015 39.12687683105469 1.5 45 1.5 C 50.87312316894531 1.5 56.56977462768555 2.649924993515015 61.93170166015625 4.917825222015381 C 67.11147308349609 7.108687400817871 71.76370239257812 10.24541282653809 75.75914764404297 14.2408504486084 C 79.75458526611328 18.23629951477051 82.89131164550781 22.88852500915527 85.08217620849609 28.06830024719238 C 87.35007476806641 33.43022537231445 88.5 39.12687683105469 88.5 45 C 88.5 50.87312316894531 87.35007476806641 56.56977462768555 85.08217620849609 61.93170166015625 C 82.89131164550781 67.11147308349609 79.75458526611328 71.76370239257812 75.75914764404297 75.75914764404297 C 71.76370239257812 79.75458526611328 67.11147308349609 82.89131164550781 61.93170166015625 85.08217620849609 C 56.56977462768555 87.35007476806641 50.87312316894531 88.5 45 88.5 Z" stroke="none"/>
        <path d="M 45 3 C 39.32871246337891 3 33.82865524291992 4.110054016113281 28.65262985229492 6.299339294433594 C 23.65165710449219 8.414573669433594 19.15968322753906 11.44334411621094 15.301513671875 15.301513671875 C 11.44334411621094 19.15968322753906 8.414573669433594 23.65165710449219 6.299339294433594 28.65262985229492 C 4.110054016113281 33.82865524291992 3 39.32871246337891 3 45 C 3 50.67128753662109 4.110054016113281 56.17134475708008 6.299339294433594 61.34737396240234 C 8.414573669433594 66.34834289550781 11.44334411621094 70.84031677246094 15.301513671875 74.698486328125 C 19.15968322753906 78.55665588378906 23.65165710449219 81.58542633056641 28.65262985229492 83.70066070556641 C 33.82865524291992 85.88994598388672 39.32871246337891 87 45 87 C 50.67128753662109 87 56.17134475708008 85.88994598388672 61.34737396240234 83.70066070556641 C 66.34834289550781 81.58542633056641 70.84031677246094 78.55665588378906 74.698486328125 74.698486328125 C 78.55665588378906 70.84031677246094 81.58542633056641 66.34834289550781 83.70066070556641 61.34737396240234 C 85.88994598388672 56.17134475708008 87 50.67128753662109 87 45 C 87 39.32871246337891 85.88994598388672 33.82865524291992 83.70066070556641 28.65262985229492 C 81.58542633056641 23.65165710449219 78.55665588378906 19.15968322753906 74.698486328125 15.301513671875 C 70.84031677246094 11.44334411621094 66.34834289550781 8.414573669433594 61.34737396240234 6.299339294433594 C 56.17134475708008 4.110054016113281 50.67128753662109 3 45 3 M 45 0 C 69.85281372070312 0 90 20.14718627929688 90 45 C 90 69.85281372070312 69.85281372070312 90 45 90 C 20.14718627929688 90 0 69.85281372070312 0 45 C 0 20.14718627929688 20.14718627929688 0 45 0 Z" stroke="none" fill="#bca724"/>
      </g>
    </g>
    <g id="Group_1144160" data-name="Group 1144160" transform="translate(16.001 705.831)">
      <path id="Path_979113" data-name="Path 979113" d="M429.5,287.5h5.185v23.277H429.5Z" transform="translate(-380.009 -254.371)" fill="#ffd17e"/>
      <path id="Path_979114" data-name="Path 979114" d="M37.5,287.5H84.4v23.277H37.5Z" transform="translate(-33.179 -254.371)" fill="#ffeac3"/>
      <path id="Path_979115" data-name="Path 979115" d="M134.028,176.142,115.764,179.6,97.5,176.142l18.264-8.642Z" transform="translate(-86.265 -148.199)" fill="#ffeac3"/>
      <path id="Path_979116" data-name="Path 979116" d="M265.622,287.5v6.914h-5.185L256,287.5Z" transform="translate(-226.501 -254.371)" fill="#ff9441"/>
      <path id="Path_979117" data-name="Path 979117" d="M172.83,287.5h14.02v6.914H172.83Z" transform="translate(-152.915 -254.371)" fill="#ffb739"/>
      <path id="Path_979118" data-name="Path 979118" d="M226.373,377.5v12.906H217.5l5.416-12.906Z" transform="translate(-192.437 -334)" fill="#ff4e51"/>
      <path id="Path_979119" data-name="Path 979119" d="M217.5,377.5h5.416v12.906H217.5Z" transform="translate(-192.437 -334)" fill="#ff7149"/>
      <g id="Group_1144160-2" data-name="Group 1144160" transform="translate(11.235 33.129)">
        <path id="Path_979120" data-name="Path 979120" d="M384.5,287.5h3.457v23.277H384.5Z" transform="translate(-351.429 -287.5)" fill="#fff7e8"/>
        <path id="Path_979121" data-name="Path 979121" d="M324.5,287.5h3.457v23.277H324.5Z" transform="translate(-298.343 -287.5)" fill="#fff7e8"/>
        <path id="Path_979122" data-name="Path 979122" d="M157.5,287.5h3.457v23.277H157.5Z" transform="translate(-150.586 -287.5)" fill="#fff7e8"/>
        <path id="Path_979123" data-name="Path 979123" d="M97.5,287.5h3.457v23.277H97.5Z" transform="translate(-97.5 -287.5)" fill="#fff7e8"/>
      </g>
      <path id="Path_979124" data-name="Path 979124" d="M31.142,242.5H22.5v6.914h8.642l3.457-3.457Z" transform="translate(-19.907 -214.557)" fill="#ffb739"/>
      <path id="Path_979125" data-name="Path 979125" d="M432.957,242.5l-3.457,3.457,3.457,3.457h3.457V242.5Z" transform="translate(-380.009 -214.557)" fill="#ff9441"/>
      <path id="Path_979126" data-name="Path 979126" d="M387.957,242.5l-3.457,3.457,3.457,3.457h5.185V242.5Z" transform="translate(-340.194 -214.557)" fill="#ffb739"/>
      <path id="Path_979127" data-name="Path 979127" d="M97.5,242.5h36.528v6.914H97.5Z" transform="translate(-86.265 -214.557)" fill="#ffd17e"/>
      <path id="Path_979128" data-name="Path 979128" d="M451.414,474.5v3.457h-3.457l-3.457-1.728,3.457-1.728Z" transform="translate(-393.28 -419.823)" fill="#ff9441"/>
      <path id="Path_979129" data-name="Path 979129" d="M7.5,474.5H61.313v3.457H7.5Z" transform="translate(-6.636 -419.823)" fill="#ffb739"/>
      <path id="Path_979130" data-name="Path 979130" d="M93.124,37.5l3.457,6.05-3.457,7.778H89.667V37.5Z" transform="translate(-79.335 -33.179)" fill="#ff7149"/>
      <path id="Path_979131" data-name="Path 979131" d="M126.581,37.5l-1.728,13.828h-5.185V37.5Z" transform="translate(-105.878 -33.179)" fill="#ff4e51"/>
      <path id="Path_979132" data-name="Path 979132" d="M189.642,7.5h-3.457L181,13.55l5.185,7.778h3.457Z" transform="translate(-160.143 -6.636)" fill="#ff4e51"/>
      <path id="Path_979133" data-name="Path 979133" d="M151.4,7.5a1.734,1.734,0,0,0-1.728,1.728V23.056l3.457-1.728h5.339V7.5Z" transform="translate(-132.421 -6.636)" fill="#ff7149"/>
      <path id="Path_979134" data-name="Path 979134" d="M151.4,127.5a1.728,1.728,0,1,0,1.728,1.728V127.5Z" transform="translate(-132.421 -112.808)" fill="#ff2b59"/>
      <path id="Path_979135" data-name="Path 979135" d="M58.134,53.813H55.541V35.721h.864a.864.864,0,0,0,.864-.864V27.943a.864.864,0,0,0-.864-.864H47.957L30.363,18.754V.864A.864.864,0,0,0,29.5,0H18.975a2.6,2.6,0,0,0-2.593,2.593v.864h-6.05a.864.864,0,0,0-.864.864V18.149a.864.864,0,0,0,.864.864h8.642a2.6,2.6,0,0,0,2.593-2.593v-.864h7.067v3.2L11.041,27.079H2.593a.864.864,0,0,0-.864.864v6.914a.864.864,0,0,0,.864.864h.864V53.813H.864A.864.864,0,0,0,0,54.677v3.457A.864.864,0,0,0,.864,59h57.27A.864.864,0,0,0,59,58.134V54.677A.864.864,0,0,0,58.134,53.813Zm-2.593-19.82H51.22a.864.864,0,1,0,0,1.728h2.593V53.813H48.627V28.808h6.914Zm-22.47,19.82H25.927V44.364h7.144Zm.864-11.177H25.063a.864.864,0,0,0-.864.864V53.813H22.47V40.907H36.528V53.813H34.8V43.5A.864.864,0,0,0,33.935,42.635ZM46.9,28.808v5.185H12.1V28.808ZM36.528,39.178H22.47V35.721H36.528ZM12.1,35.721h1.728V53.813H12.1Zm3.457,0h1.728V53.813H15.556Zm3.457,0h1.728V53.813H19.013Zm19.244,0h1.728V53.813H38.257Zm3.457,0h1.728V53.813H41.713Zm3.457,0H46.9V53.813H45.17ZM11.2,5.185h5.185V16.42a2.582,2.582,0,0,0,.149.864H11.2ZM19.839,16.42a.864.864,0,1,1-.864-.864h.864Zm-.864-2.593a2.582,2.582,0,0,0-.864.149V2.593a.865.865,0,0,1,.864-.864h9.66v12.1ZM29.5,20.257l14.417,6.822H15.082ZM5.185,35.721H7.778a.864.864,0,1,0,0-1.728H3.457V28.808h6.914V53.813H5.185ZM57.27,57.27H1.728V55.541H57.27Z"/>
    </g>
  </g>
</svg>
