<svg xmlns="http://www.w3.org/2000/svg" xmlns:xlink="http://www.w3.org/1999/xlink" width="108" height="108" viewBox="0 0 108 108">
  <defs>
    <filter id="Fondo" x="0" y="0" width="108" height="108" filterUnits="userSpaceOnUse">
      <feOffset dy="3" input="SourceAlpha"/>
      <feGaussianBlur stdDeviation="3" result="blur"/>
      <feFlood flood-opacity="0.161"/>
      <feComposite operator="in" in2="blur"/>
      <feComposite in="SourceGraphic"/>
    </filter>
  </defs>
  <g id="Icono" transform="translate(8.5 -689)">
    <g transform="matrix(1, 0, 0, 1, -8.5, 689)" filter="url(#Fondo)">
      <g id="Fondo-2" data-name="Fondo" transform="translate(9 6)" fill="#fbf8e2">
        <path d="M 45 88.5 C 39.12687683105469 88.5 33.43022537231445 87.35007476806641 28.06830024719238 85.08217620849609 C 22.88852500915527 82.89131164550781 18.23629951477051 79.75458526611328 14.2408504486084 75.75914764404297 C 10.24541282653809 71.76370239257812 7.108687400817871 67.11147308349609 4.917825222015381 61.93170166015625 C 2.649924993515015 56.56977462768555 1.5 50.87312316894531 1.5 45 C 1.5 39.12687683105469 2.649924993515015 33.43022537231445 4.917825222015381 28.06830024719238 C 7.108687400817871 22.88852500915527 10.24541282653809 18.23629951477051 14.2408504486084 14.2408504486084 C 18.23629951477051 10.24541282653809 22.88852500915527 7.108687400817871 28.06830024719238 4.917825222015381 C 33.43022537231445 2.649924993515015 39.12687683105469 1.5 45 1.5 C 50.87312316894531 1.5 56.56977462768555 2.649924993515015 61.93170166015625 4.917825222015381 C 67.11147308349609 7.108687400817871 71.76370239257812 10.24541282653809 75.75914764404297 14.2408504486084 C 79.75458526611328 18.23629951477051 82.89131164550781 22.88852500915527 85.08217620849609 28.06830024719238 C 87.35007476806641 33.43022537231445 88.5 39.12687683105469 88.5 45 C 88.5 50.87312316894531 87.35007476806641 56.56977462768555 85.08217620849609 61.93170166015625 C 82.89131164550781 67.11147308349609 79.75458526611328 71.76370239257812 75.75914764404297 75.75914764404297 C 71.76370239257812 79.75458526611328 67.11147308349609 82.89131164550781 61.93170166015625 85.08217620849609 C 56.56977462768555 87.35007476806641 50.87312316894531 88.5 45 88.5 Z" stroke="none"/>
        <path d="M 45 3 C 39.32871246337891 3 33.82865524291992 4.110054016113281 28.65262985229492 6.299339294433594 C 23.65165710449219 8.414573669433594 19.15968322753906 11.44334411621094 15.301513671875 15.301513671875 C 11.44334411621094 19.15968322753906 8.414573669433594 23.65165710449219 6.299339294433594 28.65262985229492 C 4.110054016113281 33.82865524291992 3 39.32871246337891 3 45 C 3 50.67128753662109 4.110054016113281 56.17134475708008 6.299339294433594 61.34737396240234 C 8.414573669433594 66.34834289550781 11.44334411621094 70.84031677246094 15.301513671875 74.698486328125 C 19.15968322753906 78.55665588378906 23.65165710449219 81.58542633056641 28.65262985229492 83.70066070556641 C 33.82865524291992 85.88994598388672 39.32871246337891 87 45 87 C 50.67128753662109 87 56.17134475708008 85.88994598388672 61.34737396240234 83.70066070556641 C 66.34834289550781 81.58542633056641 70.84031677246094 78.55665588378906 74.698486328125 74.698486328125 C 78.55665588378906 70.84031677246094 81.58542633056641 66.34834289550781 83.70066070556641 61.34737396240234 C 85.88994598388672 56.17134475708008 87 50.67128753662109 87 45 C 87 39.32871246337891 85.88994598388672 33.82865524291992 83.70066070556641 28.65262985229492 C 81.58542633056641 23.65165710449219 78.55665588378906 19.15968322753906 74.698486328125 15.301513671875 C 70.84031677246094 11.44334411621094 66.34834289550781 8.414573669433594 61.34737396240234 6.299339294433594 C 56.17134475708008 4.110054016113281 50.67128753662109 3 45 3 M 45 0 C 69.85281372070312 0 90 20.14718627929688 90 45 C 90 69.85281372070312 69.85281372070312 90 45 90 C 20.14718627929688 90 0 69.85281372070312 0 45 C 0 20.14718627929688 20.14718627929688 0 45 0 Z" stroke="none" fill="#bca724"/>
      </g>
    </g>
    <g id="Group_1144144" data-name="Group 1144144" transform="translate(12.567 692.891)">
      <g id="Group_1144157" data-name="Group 1144157" transform="translate(1.977 17.234)">
        <g id="Group_1144156" data-name="Group 1144156">
          <g id="Group_1144154" data-name="Group 1144154">
            <g id="Group_1144153" data-name="Group 1144153">
              <g id="Group_1144144-2" data-name="Group 1144144" transform="translate(25.197)">
                <path id="Path_979101" data-name="Path 979101" d="M222.755,132.58H211.239l3.68-50.265.426-1.048h3.271l.46,1.048Z" transform="translate(-211.239 -73.87)" fill="#fceeac"/>
                <path id="Path_979102" data-name="Path 979102" d="M228.151,23.92l-2.95,3.359a3.148,3.148,0,0,0,.5,4.613l.7.514h4.16l.7-.515a3.148,3.148,0,0,0,.5-4.613l-2.948-3.359A.441.441,0,0,0,228.151,23.92Z" transform="translate(-222.723 -23.77)" fill="#ffd064"/>
              </g>
              <g id="Group_1144152" data-name="Group 1144152" transform="translate(0 11.309)">
                <g id="Group_1144151" data-name="Group 1144151" transform="translate(0.888 22.393)">
                  <g id="Group_1144147" data-name="Group 1144147">
                    <g id="Group_1144146" data-name="Group 1144146">
                      <g id="Group_1144145" data-name="Group 1144145" transform="translate(0 0)">
                        <path id="Path_979103" data-name="Path 979103" d="M22.272,285.753a9.079,9.079,0,0,0,17.356,0Z" transform="translate(-22.272 -285.753)" fill="#ffc250"/>
                      </g>
                      <path id="Path_979104" data-name="Path 979104" d="M63.734,285.753a9.1,9.1,0,0,1-4.726,5.508,9.081,9.081,0,0,0,12.63-5.508Z" transform="translate(-54.282 -285.753)" fill="#eab14d"/>
                    </g>
                  </g>
                  <g id="Group_1144150" data-name="Group 1144150" transform="translate(42.779 0)">
                    <g id="Group_1144149" data-name="Group 1144149">
                      <g id="Group_1144148" data-name="Group 1144148">
                        <path id="Path_979105" data-name="Path 979105" d="M354.81,285.753a9.079,9.079,0,0,0,17.356,0Z" transform="translate(-354.81 -285.753)" fill="#ffc250"/>
                      </g>
                      <path id="Path_979106" data-name="Path 979106" d="M396.152,285.753a9.1,9.1,0,0,1-4.712,5.5,9.081,9.081,0,0,0,12.644-5.5Z" transform="translate(-386.728 -285.753)" fill="#eab14d"/>
                    </g>
                  </g>
                </g>
                <path id="Path_979107" data-name="Path 979107" d="M77.281,114.75a2.975,2.975,0,0,0-2.183-2.982,2.9,2.9,0,0,0-3.551,2.354.741.741,0,0,1-.776.608,5.543,5.543,0,0,1-2.352-.7A20.684,20.684,0,0,0,54.3,112.179l-5.125,1.15a13.106,13.106,0,0,1-5.7,0l-5.125-1.15a21.19,21.19,0,0,0-14.265,1.932,5.416,5.416,0,0,1-2.207.619.739.739,0,0,1-.771-.612,2.912,2.912,0,0,0-3.076-2.427,2.947,2.947,0,0,0-2.631,2.574,3.024,3.024,0,0,0,1.5,3.053,9.129,9.129,0,0,0,8.879.182,17.011,17.011,0,0,1,11.786-1.59l5.125,1.15a16.691,16.691,0,0,0,7.266,0l5.125-1.15a17.3,17.3,0,0,1,11.787,1.59,9.065,9.065,0,0,0,4.281,1.063c2.154,0,6.066-.9,6.132-3.813Z" transform="translate(-15.371 -111.68)" fill="#f6e266"/>
              </g>
            </g>
          </g>
          <g id="Group_1144155" data-name="Group 1144155" transform="translate(14.638 53.466)">
            <path id="Path_979108" data-name="Path 979108" d="M157.434,439.38H133.521a4.36,4.36,0,0,0-4.361,4.361,1.924,1.924,0,0,0,1.924,1.924h28.787a1.924,1.924,0,0,0,1.924-1.924A4.361,4.361,0,0,0,157.434,439.38Z" transform="translate(-129.16 -439.38)" fill="#fbe77b"/>
          </g>
          <path id="Path_979109" data-name="Path 979109" d="M295.4,439.38h-7.9a4.36,4.36,0,0,1,4.361,4.361v1.924h5.981a1.924,1.924,0,0,0,1.924-1.924A4.36,4.36,0,0,0,295.4,439.38Z" transform="translate(-252.491 -385.914)" fill="#ffd064"/>
          <path id="Path_979110" data-name="Path 979110" d="M203.894,401.635H192.381a2.786,2.786,0,0,1,0-5.573h11.513a2.786,2.786,0,1,1,0,5.573Z" transform="translate(-167.182 -348.169)" fill="#fbe77b"/>
          <path id="Path_979111" data-name="Path 979111" d="M247.206,396.062h-7.9a2.786,2.786,0,0,1,2.786,2.786v2.786h5.118a2.786,2.786,0,0,0,0-5.573Z" transform="translate(-210.494 -348.169)" fill="#f6e266"/>
        </g>
      </g>
      <g id="Group_1144159" data-name="Group 1144159" transform="translate(0 16.269)">
        <g id="Group_1144158" data-name="Group 1144158" transform="translate(0)">
          <path id="Path_979112" data-name="Path 979112" d="M64.9,49.971H63.586L56.5,36.313a10.19,10.19,0,0,0,1.258.078c2.81,0,7.018-1.267,7.1-4.756a3.858,3.858,0,0,0-5.917-3.446,3.968,3.968,0,0,0-1.691,2.423,4.7,4.7,0,0,1-1.781-.577A21.664,21.664,0,0,0,40.695,28.1l-4.468,1-.211-2.772.269-.2a4.116,4.116,0,0,0,.655-6.027l-2.948-3.359a1.407,1.407,0,0,0-1.057-.479h0a1.407,1.407,0,0,0-1.056.478l-2.95,3.359a4.116,4.116,0,0,0,.654,6.028l.268.2L29.638,29.1l-4.473-1a22.239,22.239,0,0,0-14.932,2.023,4.431,4.431,0,0,1-1.612.489A3.844,3.844,0,0,0,1.048,31a3.969,3.969,0,0,0,1.979,4.016A9.945,9.945,0,0,0,8.1,36.4a10.108,10.108,0,0,0,1.262-.08L2.279,49.971H.966a.966.966,0,0,0,0,1.931H2.181a10.049,10.049,0,0,0,13.01,5.728.966.966,0,0,0-.7-1.8A8.124,8.124,0,0,1,4.286,51.9H18.8a8.1,8.1,0,0,1-1.015,1.553.966.966,0,0,0,1.485,1.235A9.975,9.975,0,0,0,20.9,51.9h1.217a.966.966,0,0,0,0-1.931H20.808L13.082,35.085a16.213,16.213,0,0,1,10.879-1.371l5.124,1.15.126.027L27.068,64.164a3.748,3.748,0,0,0-3.171,5.57H20.976a5.332,5.332,0,0,0-5.326,5.326,2.892,2.892,0,0,0,2.889,2.889H47.326a2.892,2.892,0,0,0,2.889-2.889,5.332,5.332,0,0,0-5.326-5.326H41.967a3.748,3.748,0,0,0-3.171-5.57L36.653,34.89l.121-.025,5.125-1.15a16.315,16.315,0,0,1,10.883,1.374L45.057,49.971H43.743a.966.966,0,0,0,0,1.931h1.215A10.048,10.048,0,0,0,58.22,57.528a.966.966,0,0,0-.75-1.779A8.123,8.123,0,0,1,47.064,51.9h14.51a8.1,8.1,0,0,1-.877,1.383.966.966,0,1,0,1.517,1.195A9.984,9.984,0,0,0,63.683,51.9H64.9a.965.965,0,0,0,0-1.931ZM30.378,21.381l2.555-2.91,2.554,2.91a2.181,2.181,0,0,1-.347,3.2l-.445.327H31.169l-.444-.326A2.181,2.181,0,0,1,30.378,21.381Zm3.939,8.081a12.194,12.194,0,0,1-2.769,0l.2-2.626h2.37ZM18.633,49.971H4.455l7.089-13.657ZM44.889,71.664a3.4,3.4,0,0,1,3.395,3.395.959.959,0,0,1-.958.958H18.539a.959.959,0,0,1-.958-.958,3.4,3.4,0,0,1,3.395-3.395H44.889Zm-4.38-3.752a1.823,1.823,0,0,1-1.821,1.821H27.177a1.821,1.821,0,1,1,0-3.641H38.689A1.823,1.823,0,0,1,40.51,67.913ZM36.86,64.161H29.005l2.12-28.966a17.745,17.745,0,0,0,3.614,0ZM41.476,31.83l-5.125,1.15a15.719,15.719,0,0,1-6.843,0l-5.124-1.15a17.91,17.91,0,0,0-12.454,1.681A8.2,8.2,0,0,1,4,33.351l-.026-.015a2.048,2.048,0,0,1-1.014-2.083,1.914,1.914,0,0,1,3.8-.1,1.7,1.7,0,0,0,1.783,1.4,6.413,6.413,0,0,0,2.588-.725,20.2,20.2,0,0,1,13.609-1.847l5.124,1.15a14.123,14.123,0,0,0,6.127,0l5.125-1.15A19.716,19.716,0,0,1,54.6,31.761a6.446,6.446,0,0,0,2.718.8,1.7,1.7,0,0,0,1.788-1.4,2.034,2.034,0,0,1,.883-1.347,1.926,1.926,0,0,1,2.935,1.782,2.5,2.5,0,0,1-1.728,2.146,8.682,8.682,0,0,1-3.439.723,8.359,8.359,0,0,1-3.873-.974A18.292,18.292,0,0,0,41.476,31.83Zm5.757,18.14,7.089-13.657,7.089,13.657Z" transform="translate(0 -16.269)"/>
        </g>
      </g>
    </g>
  </g>
</svg>
