<svg xmlns="http://www.w3.org/2000/svg" xmlns:xlink="http://www.w3.org/1999/xlink" width="108" height="108" viewBox="0 0 108 108">
  <defs>
    <filter id="Path_904820" x="0" y="0" width="108" height="108" filterUnits="userSpaceOnUse">
      <feOffset dy="3" input="SourceAlpha"/>
      <feGaussianBlur stdDeviation="3" result="blur"/>
      <feFlood flood-opacity="0.161"/>
      <feComposite operator="in" in2="blur"/>
      <feComposite in="SourceGraphic"/>
    </filter>
  </defs>
  <g id="Group_1144171" data-name="Group 1144171" transform="translate(-4323.101 -4424)">
    <g id="Group_1144170" data-name="Group 1144170">
      <g id="Icono" transform="translate(3708 -576)">
        <g transform="matrix(1, 0, 0, 1, 615.1, 5000)" filter="url(#Path_904820)">
          <g id="Path_904820-2" data-name="Path 904820" transform="translate(9 6)" fill="#ecf4fa">
            <path d="M 45 88.5 C 39.12687683105469 88.5 33.43022537231445 87.35007476806641 28.06830024719238 85.08217620849609 C 22.88852500915527 82.89131164550781 18.23629951477051 79.75458526611328 14.2408504486084 75.75914764404297 C 10.24541282653809 71.76370239257812 7.108687400817871 67.11147308349609 4.917825222015381 61.93170166015625 C 2.649924993515015 56.56977462768555 1.5 50.87312316894531 1.5 45 C 1.5 39.12687683105469 2.649924993515015 33.43022537231445 4.917825222015381 28.06830024719238 C 7.108687400817871 22.88852500915527 10.24541282653809 18.23629951477051 14.2408504486084 14.2408504486084 C 18.23629951477051 10.24541282653809 22.88852500915527 7.108687400817871 28.06830024719238 4.917825222015381 C 33.43022537231445 2.649924993515015 39.12687683105469 1.5 45 1.5 C 50.87312316894531 1.5 56.56977462768555 2.649924993515015 61.93170166015625 4.917825222015381 C 67.11147308349609 7.108687400817871 71.76370239257812 10.24541282653809 75.75914764404297 14.2408504486084 C 79.75458526611328 18.23629951477051 82.89131164550781 22.88852500915527 85.08217620849609 28.06830024719238 C 87.35007476806641 33.43022537231445 88.5 39.12687683105469 88.5 45 C 88.5 50.87312316894531 87.35007476806641 56.56977462768555 85.08217620849609 61.93170166015625 C 82.89131164550781 67.11147308349609 79.75458526611328 71.76370239257812 75.75914764404297 75.75914764404297 C 71.76370239257812 79.75458526611328 67.11147308349609 82.89131164550781 61.93170166015625 85.08217620849609 C 56.56977462768555 87.35007476806641 50.87312316894531 88.5 45 88.5 Z" stroke="none"/>
            <path d="M 45 3 C 39.32871246337891 3 33.82865524291992 4.110054016113281 28.65262985229492 6.299339294433594 C 23.65165710449219 8.414573669433594 19.15968322753906 11.44334411621094 15.301513671875 15.301513671875 C 11.44334411621094 19.15968322753906 8.414573669433594 23.65165710449219 6.299339294433594 28.65262985229492 C 4.110054016113281 33.82865524291992 3 39.32871246337891 3 45 C 3 50.67128753662109 4.110054016113281 56.17134475708008 6.299339294433594 61.34737396240234 C 8.414573669433594 66.34834289550781 11.44334411621094 70.84031677246094 15.301513671875 74.698486328125 C 19.15968322753906 78.55665588378906 23.65165710449219 81.58542633056641 28.65262985229492 83.70066070556641 C 33.82865524291992 85.88994598388672 39.32871246337891 87 45 87 C 50.67128753662109 87 56.17134475708008 85.88994598388672 61.34737396240234 83.70066070556641 C 66.34834289550781 81.58542633056641 70.84031677246094 78.55665588378906 74.698486328125 74.698486328125 C 78.55665588378906 70.84031677246094 81.58542633056641 66.34834289550781 83.70066070556641 61.34737396240234 C 85.88994598388672 56.17134475708008 87 50.67128753662109 87 45 C 87 39.32871246337891 85.88994598388672 33.82865524291992 83.70066070556641 28.65262985229492 C 81.58542633056641 23.65165710449219 78.55665588378906 19.15968322753906 74.698486328125 15.301513671875 C 70.84031677246094 11.44334411621094 66.34834289550781 8.414573669433594 61.34737396240234 6.299339294433594 C 56.17134475708008 4.110054016113281 50.67128753662109 3 45 3 M 45 0 C 69.85281372070312 0 90 20.14718627929688 90 45 C 90 69.85281372070312 69.85281372070312 90 45 90 C 20.14718627929688 90 0 69.85281372070312 0 45 C 0 20.14718627929688 20.14718627929688 0 45 0 Z" stroke="none" fill="#2a5673"/>
          </g>
        </g>
        <g id="Group_1144115" data-name="Group 1144115" transform="translate(637.677 5022.713)">
          <g id="Group_1144108" data-name="Group 1144108" transform="translate(3.311 0.887)">
            <path id="Path_978945" data-name="Path 978945" d="M21.237,7.5V20.413H12.31a2.391,2.391,0,0,1-2.39-2.39V13.159A5.656,5.656,0,0,1,15.579,7.5Z" transform="translate(-9.92 -7.5)" fill="#f6a96c"/>
            <path id="Path_978946" data-name="Path 978946" d="M50.19,7.5V20.413H46.641V13.159a5.666,5.666,0,0,0-3.883-5.375A5.631,5.631,0,0,1,44.531,7.5Z" transform="translate(-38.873 -7.5)" fill="#ea9b58"/>
            <path id="Path_978947" data-name="Path 978947" d="M102.013,13.159v50.75a2.389,2.389,0,0,1-2.39,2.39H65.8a2.389,2.389,0,0,1-2.39-2.39V13.159A5.658,5.658,0,0,0,57.748,7.5H96.355a5.658,5.658,0,0,1,5.657,5.659Z" transform="translate(-52.09 -7.5)" fill="#ffe5c2"/>
            <path id="Path_978948" data-name="Path 978948" d="M363.285,13.159v50.75a2.389,2.389,0,0,1-2.39,2.39h-3.549a2.389,2.389,0,0,0,2.39-2.39V13.159A5.658,5.658,0,0,0,354.078,7.5h3.549a5.658,5.658,0,0,1,5.657,5.659Z" transform="translate(-313.362 -7.5)" fill="#fed2a4"/>
            <path id="Path_978949" data-name="Path 978949" d="M361.271,148.1v15.428l-.159.28a11.229,11.229,0,0,1-8.362,5.613,11.226,11.226,0,0,1,.5-10.058l2.328-4.118A28.9,28.9,0,0,1,361.271,148.1Z" transform="translate(-311.348 -131.466)" fill="#fed2a4"/>
            <path id="Path_978950" data-name="Path 978950" d="M203.613,62.891H185.607a.94.94,0,0,1-.94-.94V59.228a.94.94,0,0,1,.94-.94h18.006a.94.94,0,0,1,.94.94v2.723A.94.94,0,0,1,203.613,62.891Z" transform="translate(-163.993 -52.279)" fill="#d9b1ee"/>
            <path id="Path_978951" data-name="Path 978951" d="M235.207,259.367h-8.778a.7.7,0,0,1-.663-.9l.315-1.014A2.064,2.064,0,0,1,228.052,256h5.533a2.064,2.064,0,0,1,1.971,1.452l.315,1.014A.7.7,0,0,1,235.207,259.367Z" transform="translate(-200.202 -226.601)" fill="#9c9c9c"/>
            <g id="Group_1144107" data-name="Group 1144107" transform="translate(42.833 13.251)">
              <path id="Path_978952" data-name="Path 978952" d="M383.611,134.479l-2.328,4.119a11.228,11.228,0,0,1-8.361,5.613,11.228,11.228,0,0,1,.5-10.058l2.328-4.119a28.97,28.97,0,0,1,9.948-10.361,1.087,1.087,0,0,1,1.664.93,28.979,28.979,0,0,1-3.747,13.876Z" transform="translate(-371.965 -119.506)" fill="#e1f0ff"/>
              <path id="Path_978953" data-name="Path 978953" d="M390.177,119.673a28.951,28.951,0,0,0-2.8,1.975,1.072,1.072,0,0,1,.712,1.028,13.052,13.052,0,0,1-.592,4.2,28.948,28.948,0,0,1-2.977,7.608L382.2,138.6a11.225,11.225,0,0,1-5.147,4.7q.157.46.355.909a11.227,11.227,0,0,0,8.361-5.613l2.328-4.119a28.978,28.978,0,0,0,3.747-13.876A1.087,1.087,0,0,0,390.177,119.673Z" transform="translate(-376.448 -119.506)" fill="#cae4f9"/>
              <path id="Path_978954" data-name="Path 978954" d="M383.611,212.935l-2.328,4.119a11.228,11.228,0,0,1-8.361,5.613,11.228,11.228,0,0,1,.5-10.058l2.328-4.119,1.494,6.537Z" transform="translate(-371.965 -197.962)" fill="#4f66d0"/>
              <path id="Path_978955" data-name="Path 978955" d="M383.71,247.506l-1.515,2.68a11.226,11.226,0,0,1-5.147,4.7q.157.46.355.909a11.228,11.228,0,0,0,8.361-5.613l2.328-4.119Z" transform="translate(-376.447 -231.094)" fill="#314dc9"/>
            </g>
          </g>
          <g id="Group_1144109" data-name="Group 1144109" transform="translate(2.424 0)">
            <path id="Path_978956" data-name="Path 978956" d="M198.827,55.338V52.615A1.829,1.829,0,0,0,197,50.788H178.994a1.829,1.829,0,0,0-1.827,1.827v2.723a1.829,1.829,0,0,0,1.827,1.827H197A1.829,1.829,0,0,0,198.827,55.338Zm-1.775,0a.053.053,0,0,1-.053.053H178.994a.053.053,0,0,1-.053-.053V52.615a.053.053,0,0,1,.053-.053H197a.053.053,0,0,1,.053.053Z" transform="translate(-156.494 -44.779)"/>
            <path id="Path_978957" data-name="Path 978957" d="M157.025,414a.887.887,0,0,0-.887-.887H138.692a.887.887,0,0,0,0,1.775h17.446A.887.887,0,0,0,157.025,414Z" transform="translate(-121.788 -364.239)"/>
            <path id="Path_978958" data-name="Path 978958" d="M138.692,445.084a.887.887,0,1,0,0,1.775h10.276a.887.887,0,1,0,0-1.775Z" transform="translate(-121.788 -392.427)"/>
            <path id="Path_978959" data-name="Path 978959" d="M61.424,13.509a1.981,1.981,0,0,0-2.02.042,29.856,29.856,0,0,0-5.283,4.177V6.546A6.553,6.553,0,0,0,47.577,0H8.969A6.553,6.553,0,0,0,2.424,6.545v4.865A3.281,3.281,0,0,0,5.7,14.688h4.774a.887.887,0,1,0,0-1.775H5.7a1.5,1.5,0,0,1-1.5-1.5V6.545a4.771,4.771,0,0,1,9.542,0V57.3a3.281,3.281,0,0,0,3.277,3.277H50.844A3.281,3.281,0,0,0,54.122,57.3V40.525a.887.887,0,0,0-1.775,0V57.3a1.5,1.5,0,0,1-1.5,1.5H17.018a1.5,1.5,0,0,1-1.5-1.5V6.546a6.529,6.529,0,0,0-2.069-4.771h34.13a4.776,4.776,0,0,1,4.77,4.771v13.1a29.8,29.8,0,0,0-3.195,4.584l-2.328,4.119a12.206,12.206,0,0,0-1.131,9.179H19.328a.887.887,0,1,0,0,1.775H45.821l-1.135,2.008H19.328a.887.887,0,1,0,0,1.775H43.683l-1.135,2.008H19.328a.887.887,0,1,0,0,1.775H41.545l-1.39,2.459a.893.893,0,0,0,.774,1.324h7.6a.887.887,0,0,0,0-1.775H42.448l1.135-2.008h4.943a.887.887,0,0,0,0-1.775h-3.94l1.135-2.008h2.805a.887.887,0,0,0,0-1.775h-1.8l.934-1.653a12.172,12.172,0,0,0,8.575-5.99l2.328-4.119a29.866,29.866,0,0,0,3.862-14.3,1.966,1.966,0,0,0-1-1.738ZM47.307,36.672a10.393,10.393,0,0,1,1.061-7.451l1.2-2.124.907,3.969Zm1.545.873,3.169-5.606,3.868-1.27-1.2,2.124a10.393,10.393,0,0,1-5.836,4.752ZM59.9,21.3a28.049,28.049,0,0,1-2.72,7.077l-3.864,1.268,2.246-3.974a.887.887,0,1,0-1.545-.873l-2.247,3.974-.905-3.961a28.162,28.162,0,0,1,9.472-9.752.205.205,0,0,1,.109-.033.207.207,0,0,1,.1.028.181.181,0,0,1,.1.17A28.047,28.047,0,0,1,59.9,21.3Z" transform="translate(-2.424)"/>
            <path id="Path_978960" data-name="Path 978960" d="M204.413,139.038a.887.887,0,0,0,.887-.887v-3.222a7.233,7.233,0,0,0,1.547-.93.887.887,0,0,0-1.094-1.4,5.736,5.736,0,0,1-4.972.971,9.674,9.674,0,0,1-2.24-.8v-2.359a.887.887,0,1,0-1.775,0v2.359a9.674,9.674,0,0,1-2.24.8,6.331,6.331,0,0,1-3.312-.084l-.044-.015a5.312,5.312,0,0,1-1.616-.871.887.887,0,0,0-1.094,1.4,7.223,7.223,0,0,0,1.565.938v3.214a.887.887,0,1,0,1.775,0v-2.7a7.736,7.736,0,0,0,1.153.086,10.192,10.192,0,0,0,3.815-.807V143.6h-1.879a2.938,2.938,0,0,0-2.818,2.075l-.315,1.014a1.582,1.582,0,0,0,1.511,2.051h8.778a1.582,1.582,0,0,0,1.511-2.051l-.315-1.014a2.938,2.938,0,0,0-2.818-2.075h-1.879v-8.876a10.191,10.191,0,0,0,3.815.807,7.723,7.723,0,0,0,1.171-.089v2.706a.887.887,0,0,0,.887.887Zm-2.87,7.167.237.764h-8.255l.237-.764a1.171,1.171,0,0,1,1.124-.827h5.533A1.171,1.171,0,0,1,201.544,146.2Z" transform="translate(-166.15 -114.203)"/>
          </g>
        </g>
      </g>
    </g>
  </g>
</svg>
