<svg xmlns="http://www.w3.org/2000/svg" xmlns:xlink="http://www.w3.org/1999/xlink" width="108" height="108" viewBox="0 0 108 108">
  <defs>
    <filter id="Fondo" x="0" y="0" width="108" height="108" filterUnits="userSpaceOnUse">
      <feOffset dy="3" input="SourceAlpha"/>
      <feGaussianBlur stdDeviation="3" result="blur"/>
      <feFlood flood-opacity="0.161"/>
      <feComposite operator="in" in2="blur"/>
      <feComposite in="SourceGraphic"/>
    </filter>
  </defs>
  <g id="Icono" transform="translate(8.5 -689)">
    <g transform="matrix(1, 0, 0, 1, -8.5, 689)" filter="url(#Fondo)">
      <g id="Fondo-2" data-name="Fondo" transform="translate(9 6)" fill="#fbf8e2">
        <path d="M 45 88.5 C 39.12687683105469 88.5 33.43022537231445 87.35007476806641 28.06830024719238 85.08217620849609 C 22.88852500915527 82.89131164550781 18.23629951477051 79.75458526611328 14.2408504486084 75.75914764404297 C 10.24541282653809 71.76370239257812 7.108687400817871 67.11147308349609 4.917825222015381 61.93170166015625 C 2.649924993515015 56.56977462768555 1.5 50.87312316894531 1.5 45 C 1.5 39.12687683105469 2.649924993515015 33.43022537231445 4.917825222015381 28.06830024719238 C 7.108687400817871 22.88852500915527 10.24541282653809 18.23629951477051 14.2408504486084 14.2408504486084 C 18.23629951477051 10.24541282653809 22.88852500915527 7.108687400817871 28.06830024719238 4.917825222015381 C 33.43022537231445 2.649924993515015 39.12687683105469 1.5 45 1.5 C 50.87312316894531 1.5 56.56977462768555 2.649924993515015 61.93170166015625 4.917825222015381 C 67.11147308349609 7.108687400817871 71.76370239257812 10.24541282653809 75.75914764404297 14.2408504486084 C 79.75458526611328 18.23629951477051 82.89131164550781 22.88852500915527 85.08217620849609 28.06830024719238 C 87.35007476806641 33.43022537231445 88.5 39.12687683105469 88.5 45 C 88.5 50.87312316894531 87.35007476806641 56.56977462768555 85.08217620849609 61.93170166015625 C 82.89131164550781 67.11147308349609 79.75458526611328 71.76370239257812 75.75914764404297 75.75914764404297 C 71.76370239257812 79.75458526611328 67.11147308349609 82.89131164550781 61.93170166015625 85.08217620849609 C 56.56977462768555 87.35007476806641 50.87312316894531 88.5 45 88.5 Z" stroke="none"/>
        <path d="M 45 3 C 39.32871246337891 3 33.82865524291992 4.110054016113281 28.65262985229492 6.299339294433594 C 23.65165710449219 8.414573669433594 19.15968322753906 11.44334411621094 15.301513671875 15.301513671875 C 11.44334411621094 19.15968322753906 8.414573669433594 23.65165710449219 6.299339294433594 28.65262985229492 C 4.110054016113281 33.82865524291992 3 39.32871246337891 3 45 C 3 50.67128753662109 4.110054016113281 56.17134475708008 6.299339294433594 61.34737396240234 C 8.414573669433594 66.34834289550781 11.44334411621094 70.84031677246094 15.301513671875 74.698486328125 C 19.15968322753906 78.55665588378906 23.65165710449219 81.58542633056641 28.65262985229492 83.70066070556641 C 33.82865524291992 85.88994598388672 39.32871246337891 87 45 87 C 50.67128753662109 87 56.17134475708008 85.88994598388672 61.34737396240234 83.70066070556641 C 66.34834289550781 81.58542633056641 70.84031677246094 78.55665588378906 74.698486328125 74.698486328125 C 78.55665588378906 70.84031677246094 81.58542633056641 66.34834289550781 83.70066070556641 61.34737396240234 C 85.88994598388672 56.17134475708008 87 50.67128753662109 87 45 C 87 39.32871246337891 85.88994598388672 33.82865524291992 83.70066070556641 28.65262985229492 C 81.58542633056641 23.65165710449219 78.55665588378906 19.15968322753906 74.698486328125 15.301513671875 C 70.84031677246094 11.44334411621094 66.34834289550781 8.414573669433594 61.34737396240234 6.299339294433594 C 56.17134475708008 4.110054016113281 50.67128753662109 3 45 3 M 45 0 C 69.85281372070312 0 90 20.14718627929688 90 45 C 90 69.85281372070312 69.85281372070312 90 45 90 C 20.14718627929688 90 0 69.85281372070312 0 45 C 0 20.14718627929688 20.14718627929688 0 45 0 Z" stroke="none" fill="#bca724"/>
      </g>
    </g>
    <g id="Group_1144122" data-name="Group 1144122" transform="translate(14.083 702.054)">
      <g id="Group_1144120" data-name="Group 1144120" transform="translate(1.227 8.67)">
        <path id="Path_979036" data-name="Path 979036" d="M276.266,196.6l4.236-11.36a2.978,2.978,0,0,1,3.259-2.043,2.834,2.834,0,0,1,2.4,3.241l-3.886,15.62a20.167,20.167,0,0,1-7.059,10.456l-6.714,4.8v2.833a1.227,1.227,0,0,1-1.227,1.227H256.02v-7.121a14.267,14.267,0,0,1,6.971-12.792l9.211-5.912a2.816,2.816,0,0,1,3.562,4.309l-6.2,4.892" transform="translate(-225.812 -162.824)" fill="#ffd4b5"/>
        <path id="Path_979037" data-name="Path 979037" d="M26.629,204.752l-6.2-4.892a2.815,2.815,0,0,1,3.562-4.309l9.211,5.912a14.267,14.267,0,0,1,6.971,12.792v7.121H28.912a1.227,1.227,0,0,1-1.227-1.227v-2.833l-6.714-4.8a20.166,20.166,0,0,1-7.059-10.456l-3.886-15.621a2.833,2.833,0,0,1,2.4-3.241,2.978,2.978,0,0,1,3.259,2.043l4.236,11.36" transform="translate(-10.001 -162.824)" fill="#ffd4b5"/>
        <path id="Path_979038" data-name="Path 979038" d="M282.212,122.807h-15.5V115a4.821,4.821,0,0,1,4.821-4.821h7.081A4.821,4.821,0,0,1,283.439,115v6.58A1.227,1.227,0,0,1,282.212,122.807Z" transform="translate(-235.212 -98.798)" fill="#ffda8f"/>
        <path id="Path_979039" data-name="Path 979039" d="M125.733,122.807h-15.5a1.227,1.227,0,0,1-1.227-1.227V115a4.821,4.821,0,0,1,4.821-4.821h7.081A4.821,4.821,0,0,1,125.733,115Z" transform="translate(-96.86 -98.798)" fill="#ff9eb1"/>
        <path id="Path_979040" data-name="Path 979040" d="M203.359,186H189.09a1.227,1.227,0,0,1-1.227-1.227v-6.58a4.821,4.821,0,0,1,4.821-4.821h7.081a4.821,4.821,0,0,1,4.821,4.821v6.58A1.227,1.227,0,0,1,203.359,186Z" transform="translate(-166.036 -154.236)" fill="#9de3d1"/>
        <g id="Group_1144119" data-name="Group 1144119" transform="translate(14.822 0)">
          <circle id="Ellipse_11555" data-name="Ellipse 11555" cx="5.69" cy="5.69" r="5.69" transform="translate(9.677 7.755)" fill="#ffd4b5"/>
          <circle id="Ellipse_11556" data-name="Ellipse 11556" cx="5.69" cy="5.69" r="5.69" transform="translate(19.354)" fill="#ffd4b5"/>
          <circle id="Ellipse_11557" data-name="Ellipse 11557" cx="5.69" cy="5.69" r="5.69" fill="#ffd4b5"/>
        </g>
      </g>
      <g id="Group_1144121" data-name="Group 1144121" transform="translate(0 7.443)">
        <path id="Path_979041" data-name="Path 979041" d="M59.413,173.187a4.216,4.216,0,0,0-4.623,2.763q-.012.028-.022.056l-3.587,9.619a4.044,4.044,0,0,0-4.226.089l-9.2,5.9a15.424,15.424,0,0,0-6.34,7.276,15.424,15.424,0,0,0-6.34-7.276l-9.2-5.9a4.044,4.044,0,0,0-4.228-.09s-3.6-9.656-3.609-9.674a4.217,4.217,0,0,0-4.623-2.763,4.071,4.071,0,0,0-3.384,4.6c.006.049,3.913,15.767,3.913,15.767a21.243,21.243,0,0,0,7.5,11.127l.039.029,6.2,4.436v2.2a2.457,2.457,0,0,0,2.454,2.454H42.694a2.457,2.457,0,0,0,2.454-2.454v-2.2l6.2-4.436.039-.029a21.244,21.244,0,0,0,7.5-11.129s3.907-15.717,3.913-15.765A4.071,4.071,0,0,0,59.413,173.187ZM30.175,205.34c0,.037-.005,6-.005,6H20.138v-2.833a1.227,1.227,0,0,0-.513-1l-6.694-4.789a18.98,18.98,0,0,1-6.6-9.768L2.463,177.415A1.614,1.614,0,0,1,3.877,175.6a.224.224,0,0,0,.027,0c.235-.036,1.257-.1,1.873,1.3l4.078,10.935a4.019,4.019,0,0,0,.91,4.073c.04.042,6.332,5.01,6.332,5.01a1.227,1.227,0,0,0,1.52-1.927l-6.124-4.83a1.6,1.6,0,0,1,.077-2.161,1.586,1.586,0,0,1,1.983-.214l9.237,5.928a12.822,12.822,0,0,1,5.808,7.362,12.656,12.656,0,0,1,.578,4.271Zm30.194-27.925L56.5,192.954a18.979,18.979,0,0,1-6.6,9.77l-6.694,4.789a1.227,1.227,0,0,0-.513,1v2.833H32.662s0-5.967-.005-6a13.074,13.074,0,0,1,6.387-11.633l9.238-5.929a1.586,1.586,0,0,1,1.981.215,1.6,1.6,0,0,1,.078,2.161l-6.124,4.83a1.227,1.227,0,0,0,1.52,1.927s6.292-4.968,6.332-5.01a4.019,4.019,0,0,0,.91-4.073l4.078-10.935c.616-1.4,1.638-1.336,1.873-1.3l.027,0a1.614,1.614,0,0,1,1.413,1.817Z" transform="translate(0 -152.793)"/>
        <path id="Path_979042" data-name="Path 979042" d="M101.547,33.906h7.141v5.3a2.457,2.457,0,0,0,2.454,2.454H112.7a1.227,1.227,0,0,0,0-2.454h-1.553s0-6.6,0-6.638a3.6,3.6,0,0,1,3.592-3.535h7.082a3.6,3.6,0,0,1,3.592,3.535c0,.036,0,6.638,0,6.638h-1.534a1.227,1.227,0,0,0,0,2.454h1.534a2.457,2.457,0,0,0,2.454-2.454v-5.3h7.141a2.538,2.538,0,0,0,2.535-2.535v-6.5a6.058,6.058,0,0,0-4.489-5.843A6.917,6.917,0,1,0,121.2,15.847a6.9,6.9,0,0,0-5.844,0A6.918,6.918,0,1,0,103.5,19.029a6.058,6.058,0,0,0-4.489,5.843v6.5A2.538,2.538,0,0,0,101.547,33.906Zm33.541-9.034v6.5a.081.081,0,0,1-.081.081h-7.257a6.067,6.067,0,0,0-4.373-4.668,6.875,6.875,0,0,0,1.765-5.505h6.352A3.6,3.6,0,0,1,135.088,24.872ZM127.954,9.9a4.463,4.463,0,1,1-4.463,4.463A4.468,4.468,0,0,1,127.954,9.9Zm-5.214,12.218a4.463,4.463,0,1,1-4.463-4.463A4.468,4.468,0,0,1,122.741,22.115ZM108.6,9.9a4.463,4.463,0,1,1-4.463,4.463A4.468,4.468,0,0,1,108.6,9.9Zm-7.134,14.975a3.6,3.6,0,0,1,3.594-3.594h6.352a6.96,6.96,0,0,0-.053.837,6.891,6.891,0,0,0,1.817,4.668,6.067,6.067,0,0,0-4.373,4.668h-7.257a.081.081,0,0,1-.081-.081Z" transform="translate(-86.861 -7.443)"/>
        <circle id="Ellipse_11558" data-name="Ellipse 11558" cx="1.227" cy="1.227" r="1.227" transform="translate(30.189 31.763)"/>
      </g>
    </g>
  </g>
</svg>
