<svg xmlns="http://www.w3.org/2000/svg" width="90" height="90" viewBox="0 0 90 90">
  <g id="Group_1144168" data-name="Group 1144168" transform="translate(-624.101 -5006)">
    <g id="Path_904820" data-name="Path 904820" transform="translate(624.101 5006)" fill="#ecf4fa">
      <path d="M 45 88.5 C 39.12687683105469 88.5 33.43022537231445 87.35007476806641 28.06830024719238 85.08217620849609 C 22.88852500915527 82.89131164550781 18.23629951477051 79.75458526611328 14.2408504486084 75.75914764404297 C 10.24541282653809 71.76370239257812 7.108687400817871 67.11147308349609 4.917825222015381 61.93170166015625 C 2.649924993515015 56.56977462768555 1.5 50.87312316894531 1.5 45 C 1.5 39.12687683105469 2.649924993515015 33.43022537231445 4.917825222015381 28.06830024719238 C 7.108687400817871 22.88852500915527 10.24541282653809 18.23629951477051 14.2408504486084 14.2408504486084 C 18.23629951477051 10.24541282653809 22.88852500915527 7.108687400817871 28.06830024719238 4.917825222015381 C 33.43022537231445 2.649924993515015 39.12687683105469 1.5 45 1.5 C 50.87312316894531 1.5 56.56977462768555 2.649924993515015 61.93170166015625 4.917825222015381 C 67.11147308349609 7.108687400817871 71.76370239257812 10.24541282653809 75.75914764404297 14.2408504486084 C 79.75458526611328 18.23629951477051 82.89131164550781 22.88852500915527 85.08217620849609 28.06830024719238 C 87.35007476806641 33.43022537231445 88.5 39.12687683105469 88.5 45 C 88.5 50.87312316894531 87.35007476806641 56.56977462768555 85.08217620849609 61.93170166015625 C 82.89131164550781 67.11147308349609 79.75458526611328 71.76370239257812 75.75914764404297 75.75914764404297 C 71.76370239257812 79.75458526611328 67.11147308349609 82.89131164550781 61.93170166015625 85.08217620849609 C 56.56977462768555 87.35007476806641 50.87312316894531 88.5 45 88.5 Z" stroke="none"/>
      <path d="M 45 3 C 39.32871246337891 3 33.82865524291992 4.110054016113281 28.65262985229492 6.299339294433594 C 23.65165710449219 8.414573669433594 19.15968322753906 11.44334411621094 15.301513671875 15.301513671875 C 11.44334411621094 19.15968322753906 8.414573669433594 23.65165710449219 6.299339294433594 28.65262985229492 C 4.110054016113281 33.82865524291992 3 39.32871246337891 3 45 C 3 50.67128753662109 4.110054016113281 56.17134475708008 6.299339294433594 61.34737396240234 C 8.414573669433594 66.34834289550781 11.44334411621094 70.84031677246094 15.301513671875 74.698486328125 C 19.15968322753906 78.55665588378906 23.65165710449219 81.58542633056641 28.65262985229492 83.70066070556641 C 33.82865524291992 85.88994598388672 39.32871246337891 87 45 87 C 50.67128753662109 87 56.17134475708008 85.88994598388672 61.34737396240234 83.70066070556641 C 66.34834289550781 81.58542633056641 70.84031677246094 78.55665588378906 74.698486328125 74.698486328125 C 78.55665588378906 70.84031677246094 81.58542633056641 66.34834289550781 83.70066070556641 61.34737396240234 C 85.88994598388672 56.17134475708008 87 50.67128753662109 87 45 C 87 39.32871246337891 85.88994598388672 33.82865524291992 83.70066070556641 28.65262985229492 C 81.58542633056641 23.65165710449219 78.55665588378906 19.15968322753906 74.698486328125 15.301513671875 C 70.84031677246094 11.44334411621094 66.34834289550781 8.414573669433594 61.34737396240234 6.299339294433594 C 56.17134475708008 4.110054016113281 50.67128753662109 3 45 3 M 45 0 C 69.85281372070312 0 90 20.14718627929688 90 45 C 90 69.85281372070312 69.85281372070312 90 45 90 C 20.14718627929688 90 0 69.85281372070312 0 45 C 0 20.14718627929688 20.14718627929688 0 45 0 Z" stroke="none" fill="#2a5673"/>
    </g>
    <g id="Group_1144112" data-name="Group 1144112" transform="translate(637.881 5015.694)">
      <path id="Path_978961" data-name="Path 978961" d="M70.194,60.48a4.938,4.938,0,0,1-3.5-1.451l-.171-.171,1.518-1.518.171.171a2.792,2.792,0,0,0,3.235.524,16.962,16.962,0,0,1,13.334-.766,14.778,14.778,0,0,0,10.085,0,16.974,16.974,0,0,1,13.337.766,2.791,2.791,0,0,0,3.235-.524l.172-.171,1.518,1.518-.171.171a4.945,4.945,0,0,1-5.713.927,14.821,14.821,0,0,0-11.643-.67,16.934,16.934,0,0,1-11.554,0,14.819,14.819,0,0,0-11.643.67A4.949,4.949,0,0,1,70.194,60.48Zm0,0" transform="translate(-57.596 -48.63)" fill="#ffa912"/>
      <path id="Path_978962" data-name="Path 978962" d="M150.622,296.215H163.5a6.442,6.442,0,0,1,6.442,6.442H144.18A6.442,6.442,0,0,1,150.622,296.215Zm0,0" transform="translate(-124.831 -256.386)" fill="#ffb531"/>
      <path id="Path_978963" data-name="Path 978963" d="M260.474,296.215H256.18a6.442,6.442,0,0,1,6.442,6.442h4.294A6.442,6.442,0,0,0,260.474,296.215Zm0,0" transform="translate(-221.801 -256.386)" fill="#ffa912"/>
      <g id="Group_1144111" data-name="Group 1144111" transform="translate(1.097 1.163)">
        <path id="Path_978964" data-name="Path 978964" d="M222.619,11.329a3.221,3.221,0,1,0-5.368,2.385V46.758h4.294V13.714A3.2,3.2,0,0,0,222.619,11.329Zm0,0" transform="translate(-188.264 -8.092)" fill="#ffb531"/>
        <path id="Path_978965" data-name="Path 978965" d="M8.18,192.215H29.652a6.442,6.442,0,0,1-6.442,6.442H14.621A6.441,6.441,0,0,1,8.18,192.215Zm0,0" transform="translate(-8.18 -167.506)" fill="#ffb531"/>
        <path id="Path_978966" data-name="Path 978966" d="M312.18,192.215h21.472a6.442,6.442,0,0,1-6.442,6.442h-8.589A6.441,6.441,0,0,1,312.18,192.215Zm0,0" transform="translate(-271.383 -167.506)" fill="#ffb531"/>
      </g>
      <path id="Path_978967" data-name="Path 978967" d="M398.622,192.215a6.442,6.442,0,0,1-6.442,6.442h4.294a6.442,6.442,0,0,0,6.442-6.442Zm0,0" transform="translate(-339.55 -166.343)" fill="#ffa912"/>
      <path id="Path_978968" data-name="Path 978968" d="M12.706,72.84a1.113,1.113,0,0,0-1.746,0L.225,87.871A1.074,1.074,0,1,0,1.97,89.119l9.863-13.806L21.7,89.119a1.074,1.074,0,1,0,1.746-1.248Zm0,0" transform="translate(0 -62.623)" fill="#d6d6d4"/>
      <path id="Path_978969" data-name="Path 978969" d="M327.443,87.871,316.707,72.84a1.113,1.113,0,0,0-1.746,0l-10.736,15.03a1.074,1.074,0,1,0,1.746,1.248l9.863-13.806L325.7,89.118a1.074,1.074,0,0,0,1.746-1.248Zm0,0" transform="translate(-263.203 -62.622)" fill="#d6d6d4"/>
      <path id="Path_978970" data-name="Path 978970" d="M94.622,192.215a6.442,6.442,0,0,1-6.442,6.442h4.294a6.442,6.442,0,0,0,6.442-6.442Zm0,0" transform="translate(-76.347 -166.343)" fill="#ffa912"/>
      <path id="Path_978971" data-name="Path 978971" d="M79.249,352.8H49.188a9.6,9.6,0,0,1,0-8.589H79.249A9.6,9.6,0,0,0,79.249,352.8Zm0,0" transform="translate(-41.71 -297.944)" fill="#803f37"/>
      <path id="Path_978972" data-name="Path 978972" d="M75.365,344.716l.265-.5H73.25a10.718,10.718,0,0,0,0,8.589h2.378l-.253-.48A8.564,8.564,0,0,1,75.365,344.716Zm0,0" transform="translate(-62.642 -297.944)" fill="#ffb531"/>
      <path id="Path_978973" data-name="Path 978973" d="M234.894,344.736l.289-.521h-2.4a10.722,10.722,0,0,0,0,8.589h2.39l-.267-.48A8.557,8.557,0,0,1,234.894,344.736Zm0,0" transform="translate(-200.77 -297.945)" fill="#ffb531"/>
      <path id="Path_978974" data-name="Path 978974" d="M273.188,344.215a9.6,9.6,0,0,0,0,8.589h20.4a9.6,9.6,0,0,1,0-8.589Zm0,0" transform="translate(-235.649 -297.944)" fill="#e0e0de"/>
      <path id="Path_978975" data-name="Path 978975" d="M111.73,368.215h12.883v2.147H111.73Zm0,0" transform="translate(-96.736 -318.724)" fill="#f98500"/>
      <path id="Path_978976" data-name="Path 978976" d="M292.648,368.215h-20.4a9.733,9.733,0,0,0,0,2.147h20.4A9.737,9.737,0,0,1,292.648,368.215Zm0,0" transform="translate(-235.663 -318.724)" fill="#d6d6d4"/>
      <path id="Path_978977" data-name="Path 978977" d="M79.249,416.8H49.188a9.6,9.6,0,0,1,0-8.589H79.249A9.6,9.6,0,0,0,79.249,416.8Zm0,0" transform="translate(-41.71 -353.356)" fill="#773730"/>
      <path id="Path_978978" data-name="Path 978978" d="M75.365,408.716l.265-.5H73.25a10.717,10.717,0,0,0,0,8.589h2.378l-.253-.48A8.564,8.564,0,0,1,75.365,408.716Zm0,0" transform="translate(-62.642 -353.355)" fill="#ffb531"/>
      <path id="Path_978979" data-name="Path 978979" d="M234.894,408.736l.289-.521h-2.4a10.722,10.722,0,0,0,0,8.589h2.39l-.267-.48A8.557,8.557,0,0,1,234.894,408.736Zm0,0" transform="translate(-200.77 -353.356)" fill="#ffb531"/>
      <path id="Path_978980" data-name="Path 978980" d="M273.188,408.215a9.6,9.6,0,0,0,0,8.589h20.4a9.6,9.6,0,0,1,0-8.589Zm0,0" transform="translate(-235.649 -353.356)" fill="#d6d6d4"/>
      <path id="Path_978981" data-name="Path 978981" d="M111.73,432.215h12.883v2.147H111.73Zm0,0" transform="translate(-96.736 -374.135)" fill="#f98500"/>
      <path id="Path_978982" data-name="Path 978982" d="M292.648,432.215h-20.4a9.733,9.733,0,0,0,0,2.147h20.4A9.737,9.737,0,0,1,292.648,432.215Zm0,0" transform="translate(-235.663 -374.135)" fill="#c7c7c5"/>
      <path id="Path_978983" data-name="Path 978983" d="M111.73,432.215h12.883v2.147H111.73Zm0,0" transform="translate(-96.736 -374.135)"/>
      <path id="Path_978984" data-name="Path 978984" d="M111.73,368.215h12.883v2.147H111.73Zm0,0" transform="translate(-96.736 -318.724)"/>
      <path id="Path_978985" data-name="Path 978985" d="M64.4,25.248,54.379,11.225a4.913,4.913,0,0,0,1.142-.827l.172-.171L54.175,8.708,54,8.88a2.807,2.807,0,0,1-3.24.527,17.087,17.087,0,0,0-13.329-.766,14.472,14.472,0,0,1-1.825.517V7.223a4.295,4.295,0,1,0-6.442,0V9.156a14.408,14.408,0,0,1-1.819-.516,17.076,17.076,0,0,0-13.33.763,2.862,2.862,0,0,1-3.245-.525L10.6,8.706,9.084,10.224l.17.172a4.919,4.919,0,0,0,1.145.825L.381,25.248l.015.011a1.05,1.05,0,0,0-.215.613A7.525,7.525,0,0,0,7.7,33.387h8.589A7.525,7.525,0,0,0,23.8,25.872a1.05,1.05,0,0,0-.215-.613l.015-.011L13.922,11.707a5.2,5.2,0,0,0,1.043-.377,14.9,14.9,0,0,1,11.641-.672,16.765,16.765,0,0,0,2.562.684V38.755H25.947a7.523,7.523,0,0,0-7.43,6.442H7.635a1.074,1.074,0,0,0-.96.594,10.717,10.717,0,0,0-.206,9.068,10.719,10.719,0,0,0,.206,9.069,1.074,1.074,0,0,0,.96.593H58.095a1.073,1.073,0,0,0,.961-1.553,8.571,8.571,0,0,1,0-7.629,18.888,18.888,0,0,1,.074-.213.972.972,0,0,0,.024-.134.811.811,0,0,0,0-.266.972.972,0,0,0-.024-.134.866.866,0,0,0-.044-.125.812.812,0,0,0-.03-.087,8.571,8.571,0,0,1,0-7.629,1.074,1.074,0,0,0-.961-1.554H46.259a7.522,7.522,0,0,0-7.429-6.442H35.609V11.342a16.962,16.962,0,0,0,2.561-.685,14.906,14.906,0,0,1,11.637.673,5.012,5.012,0,0,0,1.042.378l-9.671,13.54.015.011a1.05,1.05,0,0,0-.215.613,7.525,7.525,0,0,0,7.515,7.515h8.589A7.525,7.525,0,0,0,64.6,25.872a1.05,1.05,0,0,0-.215-.613ZM11.99,12.689,20.639,24.8H3.34ZM16.284,31.24H7.7a5.377,5.377,0,0,1-5.261-4.294h19.11a5.376,5.376,0,0,1-5.261,4.294Zm39.79,20.4a10.669,10.669,0,0,0,.429,2.147H38.4c-.025-.062-.056-.123-.079-.186-.041-.107-.078-.215-.114-.322-.063-.187-.118-.376-.168-.567-.028-.107-.057-.215-.08-.322-.044-.207-.079-.415-.107-.623-.005-.04-.012-.079-.017-.118Zm0,6.442H37.837a.914.914,0,0,1,.017-.118c.029-.209.063-.417.107-.623.024-.107.052-.215.08-.322.05-.19.107-.38.168-.567.037-.107.073-.214.114-.322.024-.062.055-.124.08-.186h18.1a10.646,10.646,0,0,0-.432,2.137ZM35.9,48.1l-.008.028a10.787,10.787,0,0,0-.187,1.074c-.012.092-.021.182-.031.275-.036.358-.06.715-.061,1.074v.028c0,.359.026.716.061,1.074.009.093.019.183.031.274a10.787,10.787,0,0,0,.187,1.074l.008.028q.089.381.206.752H34.049a8.56,8.56,0,0,1,0-6.442h2.059q-.117.386-.206.769ZM12.633,55.933H31.771a10.734,10.734,0,0,0,0,6.442H12.633A8.565,8.565,0,0,1,12.633,55.933Zm19.135-2.147H12.633a8.565,8.565,0,0,1,0-6.442H31.771a10.734,10.734,0,0,0,0,6.442ZM8.327,47.344h2.031a10.734,10.734,0,0,0,0,6.442H8.327a8.58,8.58,0,0,1,0-6.442Zm0,8.589h2.031a10.734,10.734,0,0,0,0,6.442H8.327a8.58,8.58,0,0,1,0-6.442Zm25.721,6.442a8.56,8.56,0,0,1,0-6.442h2.059q-.117.375-.206.752l-.008.028a10.787,10.787,0,0,0-.187,1.074c-.012.092-.021.182-.031.275-.036.358-.06.715-.061,1.074v.028c0,.359.026.716.061,1.074.009.093.019.183.031.274a10.787,10.787,0,0,0,.187,1.074l.008.028q.089.381.206.752Zm4.351,0c-.025-.062-.056-.123-.079-.186-.041-.107-.078-.215-.114-.322-.063-.187-.118-.376-.168-.567-.028-.107-.057-.215-.08-.322-.044-.207-.079-.415-.107-.623-.005-.04-.012-.079-.017-.118h18.24a10.676,10.676,0,0,0,.429,2.147ZM56.072,49.491H37.836a.914.914,0,0,1,.017-.118c.029-.209.063-.417.107-.623.024-.107.052-.215.08-.322.05-.19.107-.38.168-.567.037-.107.073-.214.114-.322.024-.062.055-.124.08-.186h18.1a10.645,10.645,0,0,0-.432,2.137ZM44.09,45.2h-23.4A5.377,5.377,0,0,1,25.947,40.9H38.83A5.376,5.376,0,0,1,44.09,45.2ZM31.315,38.755V6.785a1.076,1.076,0,0,0-.354-.8A2.117,2.117,0,0,1,30.241,4.4a2.147,2.147,0,0,1,4.294,0,2.119,2.119,0,0,1-.72,1.588,1.074,1.074,0,0,0-.354.8v31.97ZM61.436,24.8h-17.3l8.65-12.109ZM57.081,31.24H48.492a5.377,5.377,0,0,1-5.261-4.294h19.11a5.376,5.376,0,0,1-5.261,4.294Zm0,0" transform="translate(-0.156)"/>
    </g>
  </g>
</svg>
