<svg xmlns="http://www.w3.org/2000/svg" xmlns:xlink="http://www.w3.org/1999/xlink" width="108" height="108" viewBox="0 0 108 108">
  <defs>
    <filter id="Fondo" x="0" y="0" width="108" height="108" filterUnits="userSpaceOnUse">
      <feOffset dy="3" input="SourceAlpha"/>
      <feGaussianBlur stdDeviation="3" result="blur"/>
      <feFlood flood-opacity="0.161"/>
      <feComposite operator="in" in2="blur"/>
      <feComposite in="SourceGraphic"/>
    </filter>
  </defs>
  <g id="Icono" transform="translate(8.5 -689)">
    <g transform="matrix(1, 0, 0, 1, -8.5, 689)" filter="url(#Fondo)">
      <g id="Fondo-2" data-name="Fondo" transform="translate(9 6)" fill="#fbf8e2">
        <path d="M 45 88.5 C 39.12687683105469 88.5 33.43022537231445 87.35007476806641 28.06830024719238 85.08217620849609 C 22.88852500915527 82.89131164550781 18.23629951477051 79.75458526611328 14.2408504486084 75.75914764404297 C 10.24541282653809 71.76370239257812 7.108687400817871 67.11147308349609 4.917825222015381 61.93170166015625 C 2.649924993515015 56.56977462768555 1.5 50.87312316894531 1.5 45 C 1.5 39.12687683105469 2.649924993515015 33.43022537231445 4.917825222015381 28.06830024719238 C 7.108687400817871 22.88852500915527 10.24541282653809 18.23629951477051 14.2408504486084 14.2408504486084 C 18.23629951477051 10.24541282653809 22.88852500915527 7.108687400817871 28.06830024719238 4.917825222015381 C 33.43022537231445 2.649924993515015 39.12687683105469 1.5 45 1.5 C 50.87312316894531 1.5 56.56977462768555 2.649924993515015 61.93170166015625 4.917825222015381 C 67.11147308349609 7.108687400817871 71.76370239257812 10.24541282653809 75.75914764404297 14.2408504486084 C 79.75458526611328 18.23629951477051 82.89131164550781 22.88852500915527 85.08217620849609 28.06830024719238 C 87.35007476806641 33.43022537231445 88.5 39.12687683105469 88.5 45 C 88.5 50.87312316894531 87.35007476806641 56.56977462768555 85.08217620849609 61.93170166015625 C 82.89131164550781 67.11147308349609 79.75458526611328 71.76370239257812 75.75914764404297 75.75914764404297 C 71.76370239257812 79.75458526611328 67.11147308349609 82.89131164550781 61.93170166015625 85.08217620849609 C 56.56977462768555 87.35007476806641 50.87312316894531 88.5 45 88.5 Z" stroke="none"/>
        <path d="M 45 3 C 39.32871246337891 3 33.82865524291992 4.110054016113281 28.65262985229492 6.299339294433594 C 23.65165710449219 8.414573669433594 19.15968322753906 11.44334411621094 15.301513671875 15.301513671875 C 11.44334411621094 19.15968322753906 8.414573669433594 23.65165710449219 6.299339294433594 28.65262985229492 C 4.110054016113281 33.82865524291992 3 39.32871246337891 3 45 C 3 50.67128753662109 4.110054016113281 56.17134475708008 6.299339294433594 61.34737396240234 C 8.414573669433594 66.34834289550781 11.44334411621094 70.84031677246094 15.301513671875 74.698486328125 C 19.15968322753906 78.55665588378906 23.65165710449219 81.58542633056641 28.65262985229492 83.70066070556641 C 33.82865524291992 85.88994598388672 39.32871246337891 87 45 87 C 50.67128753662109 87 56.17134475708008 85.88994598388672 61.34737396240234 83.70066070556641 C 66.34834289550781 81.58542633056641 70.84031677246094 78.55665588378906 74.698486328125 74.698486328125 C 78.55665588378906 70.84031677246094 81.58542633056641 66.34834289550781 83.70066070556641 61.34737396240234 C 85.88994598388672 56.17134475708008 87 50.67128753662109 87 45 C 87 39.32871246337891 85.88994598388672 33.82865524291992 83.70066070556641 28.65262985229492 C 81.58542633056641 23.65165710449219 78.55665588378906 19.15968322753906 74.698486328125 15.301513671875 C 70.84031677246094 11.44334411621094 66.34834289550781 8.414573669433594 61.34737396240234 6.299339294433594 C 56.17134475708008 4.110054016113281 50.67128753662109 3 45 3 M 45 0 C 69.85281372070312 0 90 20.14718627929688 90 45 C 90 69.85281372070312 69.85281372070312 90 45 90 C 20.14718627929688 90 0 69.85281372070312 0 45 C 0 20.14718627929688 20.14718627929688 0 45 0 Z" stroke="none" fill="#bca724"/>
      </g>
    </g>
    <g id="Group_1144143" data-name="Group 1144143" transform="translate(13.237 709.86)">
      <g id="Group_1144141" data-name="Group 1144141" transform="translate(2.2 0.996)">
        <g id="Group_1144124" data-name="Group 1144124" transform="translate(11.292 0.004)">
          <path id="Path_979078" data-name="Path 979078" d="M47.931,52.362H19.244A4.551,4.551,0,0,1,14.6,47.718a.911.911,0,0,1,1.821,0,2.837,2.837,0,0,0,2.823,2.823H47.931a2.837,2.837,0,0,0,2.823-2.823V5.644a2.837,2.837,0,0,0-2.823-2.823h-28.6a2.837,2.837,0,0,0-2.823,2.823V37.883a.911.911,0,1,1-1.821,0V5.644A4.551,4.551,0,0,1,19.336,1h28.6a4.551,4.551,0,0,1,4.644,4.644V47.718A4.551,4.551,0,0,1,47.931,52.362Z" transform="translate(-14.6 -1)" fill="#101f2d"/>
        </g>
        <g id="Group_1144125" data-name="Group 1144125" transform="translate(14.343 6.834)">
          <path id="Path_979079" data-name="Path 979079" d="M58.886,13.871,55.061,55.763a3.713,3.713,0,0,1-4.1,3.37l-28.6-2.641a3.713,3.713,0,0,1-3.37-4.1v-.182c.182,0,.455.091.729.091H48.413a3.693,3.693,0,0,0,3.734-3.734V9.5l3.37.273a3.776,3.776,0,0,1,3.37,4.1Z" transform="translate(-18.042 -8.589)" fill="#64c4f6"/>
          <path id="Path_979080" data-name="Path 979080" d="M51.235,59.953H50.78l-28.6-2.641A4.745,4.745,0,0,1,19,55.673a4.267,4.267,0,0,1-1-3.461v-.091a.86.86,0,0,1,.911-.911.99.99,0,0,1,.455.091h28.96a2.837,2.837,0,0,0,2.823-2.823V9.411a.827.827,0,0,1,.273-.637,1.034,1.034,0,0,1,.729-.273l3.37.273a4.683,4.683,0,0,1,4.189,5.1L55.88,55.764a4.745,4.745,0,0,1-1.639,3.187,5.174,5.174,0,0,1-3.005,1Zm-31.418-6.83a2.393,2.393,0,0,0,.637,1.366,3.03,3.03,0,0,0,1.912,1l28.6,2.641a2.883,2.883,0,0,0,2.095-.637,3.03,3.03,0,0,0,1-1.912l3.825-41.891a2.8,2.8,0,0,0-2.55-3.1l-2.368-.182V48.479a4.551,4.551,0,0,1-4.644,4.644Z" transform="translate(-17.95 -8.5)" fill="#101f2d"/>
        </g>
        <g id="Group_1144126" data-name="Group 1144126" transform="translate(4.443 21.916)">
          <path id="Path_979081" data-name="Path 979081" d="M18.293,31.1A5.151,5.151,0,0,0,12.555,26a5.216,5.216,0,0,0-4.462,4.371,5.08,5.08,0,0,0,1.275,4.28,5.317,5.317,0,0,1,1.366,3.461v2.823h4.827V38.109a5.367,5.367,0,0,1,1.457-3.552A5.542,5.542,0,0,0,18.293,31.1Z" transform="translate(-7.163 -25.142)" fill="#ef6561"/>
          <path id="Path_979082" data-name="Path 979082" d="M15.476,41.762H10.65a.86.86,0,0,1-.911-.911V38.028a4.537,4.537,0,0,0-1.093-2.823A5.651,5.651,0,0,1,7.189,30.2a5.991,5.991,0,0,1,5.282-5.1,6.3,6.3,0,0,1,4.736,1.457,6.207,6.207,0,0,1,2,4.553,6.515,6.515,0,0,1-1.457,4.007,4.632,4.632,0,0,0-1.275,3.005v2.823a.991.991,0,0,1-1,.82ZM11.56,39.941h3.005V38.028a6.35,6.35,0,0,1,1.73-4.189,4.5,4.5,0,0,0,1-2.823,4.362,4.362,0,0,0-1.457-3.187,3.969,3.969,0,0,0-3.278-1A4.25,4.25,0,0,0,8.919,30.47a4.566,4.566,0,0,0,1,3.552,6.3,6.3,0,0,1,1.639,4.1Z" transform="translate(-7.078 -25.062)" fill="#101f2d"/>
        </g>
        <g id="Group_1144127" data-name="Group 1144127" transform="translate(1.821 36.795)">
          <path id="Path_979083" data-name="Path 979083" d="M20.41,47.41H5.111A.86.86,0,0,1,4.2,46.5V44.223A2.837,2.837,0,0,1,7.023,41.4H18.5a2.837,2.837,0,0,1,2.823,2.823V46.5a.86.86,0,0,1-.911.911ZM6.021,45.589H19.5V44.223a1.008,1.008,0,0,0-1-1H7.023a1.008,1.008,0,0,0-1,1Z" transform="translate(-4.2 -41.4)" fill="#101f2d"/>
        </g>
        <g id="Group_1144128" data-name="Group 1144128" transform="translate(0 40.984)">
          <path id="Path_979084" data-name="Path 979084" d="M3.2,47H22.233v4.189H3.2Z" transform="translate(-2.289 -46.089)" fill="#64c4f6"/>
          <path id="Path_979085" data-name="Path 979085" d="M22.144,52.01H3.111A.86.86,0,0,1,2.2,51.1V46.911A.86.86,0,0,1,3.111,46H22.144a.86.86,0,0,1,.911.911V51.1A.86.86,0,0,1,22.144,52.01ZM4.021,50.189H21.233V47.821H4.021Z" transform="translate(-2.2 -46)" fill="#101f2d"/>
        </g>
        <g id="Group_1144137" data-name="Group 1144137" transform="translate(18.578 5.468)">
          <g id="Group_1144129" data-name="Group 1144129">
            <path id="Path_979086" data-name="Path 979086" d="M47.1,8.821H23.511a.86.86,0,0,1-.911-.911A.86.86,0,0,1,23.511,7H47.1a.86.86,0,0,1,.911.911A.86.86,0,0,1,47.1,8.821Z" transform="translate(-22.6 -7)" fill="#101f2d"/>
          </g>
          <g id="Group_1144130" data-name="Group 1144130" transform="translate(4.098 5.191)">
            <path id="Path_979087" data-name="Path 979087" d="M47.5,14.521H28.011a.911.911,0,1,1,0-1.821H47.5a.911.911,0,0,1,0,1.821Z" transform="translate(-27.1 -12.7)" fill="#101f2d"/>
          </g>
          <g id="Group_1144131" data-name="Group 1144131" transform="translate(10.017 10.473)">
            <path id="Path_979088" data-name="Path 979088" d="M48.08,20.321H34.511a.911.911,0,1,1,0-1.821H48.08a.911.911,0,0,1,0,1.821Z" transform="translate(-33.6 -18.5)" fill="#101f2d"/>
          </g>
          <g id="Group_1144132" data-name="Group 1144132" transform="translate(12.658 15.664)">
            <path id="Path_979089" data-name="Path 979089" d="M48.339,26.021H37.411a.911.911,0,0,1,0-1.821H48.339a.911.911,0,0,1,0,1.821Z" transform="translate(-36.5 -24.2)" fill="#101f2d"/>
          </g>
          <g id="Group_1144133" data-name="Group 1144133" transform="translate(13.023 20.946)">
            <path id="Path_979090" data-name="Path 979090" d="M48.375,31.821H37.811a.911.911,0,0,1,0-1.821H48.375a.911.911,0,0,1,0,1.821Z" transform="translate(-36.9 -30)" fill="#101f2d"/>
          </g>
          <g id="Group_1144134" data-name="Group 1144134" transform="translate(1.821 26.228)">
            <path id="Path_979091" data-name="Path 979091" d="M47.276,37.621H25.511a.911.911,0,1,1,0-1.821H47.276a.911.911,0,0,1,0,1.821Z" transform="translate(-24.6 -35.8)" fill="#101f2d"/>
          </g>
          <g id="Group_1144135" data-name="Group 1144135" transform="translate(6.739 31.418)">
            <path id="Path_979092" data-name="Path 979092" d="M47.758,43.321H30.911a.911.911,0,1,1,0-1.821H47.758a.911.911,0,0,1,0,1.821Z" transform="translate(-30 -41.5)" fill="#101f2d"/>
          </g>
          <g id="Group_1144136" data-name="Group 1144136" transform="translate(8.834 36.336)">
            <path id="Path_979093" data-name="Path 979093" d="M39.585,51.089a4.122,4.122,0,0,1-2.459-.637,2.15,2.15,0,0,1-.82-.729c-.729.911-1.639,1.548-2.55,1.184-1.366-.455-1.457-2.459-1.457-3.1a.911.911,0,0,1,1.821,0,4.747,4.747,0,0,0,.182,1.275,8.03,8.03,0,0,0,1.548-1.73.864.864,0,0,1,1-.364.875.875,0,0,1,.637.82,1.337,1.337,0,0,0,.637,1.093c.546.364,1.821.729,4.918-.455a.922.922,0,1,1,.637,1.73,12.922,12.922,0,0,1-4.1.911Z" transform="translate(-32.3 -46.9)" fill="#101f2d"/>
          </g>
        </g>
        <g id="Group_1144138" data-name="Group 1144138" transform="translate(21.617 19.981)">
          <path id="Path_979094" data-name="Path 979094" d="M30.452,24l2.095,5.646-5.646-2" transform="translate(-26.023 -23.032)" fill="#64c4f6"/>
          <path id="Path_979095" data-name="Path 979095" d="M32.46,30.462a.335.335,0,0,1-.273-.091l-5.646-2a.922.922,0,0,1,.637-1.73L31,28l-1.457-3.825a.922.922,0,1,1,1.73-.637l2.095,5.646a1,1,0,0,1-.182.911.941.941,0,0,1-.729.364Z" transform="translate(-25.937 -22.937)" fill="#101f2d"/>
        </g>
        <g id="Group_1144139" data-name="Group 1144139" transform="translate(1.482 0)">
          <path id="Path_979096" data-name="Path 979096" d="M24.931,25.678l3.552-3.552L8.812,2.364a1.272,1.272,0,0,0-1.366-.273A4.637,4.637,0,0,0,4.987,4.55,1.126,1.126,0,0,0,5.26,5.916Z" transform="translate(-3.919 -1.086)" fill="#ef6561"/>
          <path id="Path_979097" data-name="Path 979097" d="M24.839,26.5a.827.827,0,0,1-.637-.273L4.531,6.464A1.879,1.879,0,0,1,4.076,4.1,5.685,5.685,0,0,1,6.99,1.182a2.065,2.065,0,0,1,2.368.455L29.028,21.4a.88.88,0,0,1,0,1.275l-3.552,3.552a.827.827,0,0,1-.637.273ZM7.809,2.821H7.718a3.6,3.6,0,0,0-2,2,.089.089,0,0,1-.091.091.45.45,0,0,0,.091.273L24.748,24.313l2.277-2.277L8.083,2.912a.335.335,0,0,0-.273-.091Z" transform="translate(-3.827 -0.996)" fill="#101f2d"/>
        </g>
        <g id="Group_1144140" data-name="Group 1144140" transform="translate(1.482)">
          <path id="Path_979098" data-name="Path 979098" d="M8.812,2.364,10.178,3.73,6.626,7.373,5.26,5.916A1.126,1.126,0,0,1,4.987,4.55,4.353,4.353,0,0,1,7.446,2.091,1.272,1.272,0,0,1,8.812,2.364Z" transform="translate(-3.919 -1.086)" fill="#64c4f6"/>
          <path id="Path_979099" data-name="Path 979099" d="M6.534,8.194A.827.827,0,0,1,5.9,7.921L4.531,6.464A1.862,1.862,0,0,1,4.076,4.1,5.376,5.376,0,0,1,6.99,1.182a2.094,2.094,0,0,1,2.368.455L10.724,3a.88.88,0,0,1,0,1.275L7.172,7.921a.827.827,0,0,1-.637.273ZM7.809,2.821H7.718a3.549,3.549,0,0,0-2,2c0,.091,0,.091-.091.182a.45.45,0,0,0,.091.273l.729.82L8.72,3.823l-.637-.911a.335.335,0,0,0-.273-.091Z" transform="translate(-3.827 -0.996)" fill="#101f2d"/>
        </g>
      </g>
      <g id="Group_1144142" data-name="Group 1144142" transform="translate(28.154 26.499)">
        <path id="Path_979100" data-name="Path 979100" d="M34.07,36.285a.968.968,0,0,1-.911-.82l-.091-.729-.546-.091a.787.787,0,0,1-.546-.273l-.455-.455a2.859,2.859,0,0,1,0-4.007l.637-.637a.9.9,0,0,1,1.275,1.275l-.637.637a1.108,1.108,0,0,0,0,1.457l.273.273,1,.182a1.077,1.077,0,0,1,.82.82l.182,1.457a.9.9,0,0,1-.82,1A.282.282,0,0,0,34.07,36.285Z" transform="translate(-30.7 -29)" fill="#101f2d"/>
      </g>
    </g>
  </g>
</svg>
