<svg xmlns="http://www.w3.org/2000/svg" xmlns:xlink="http://www.w3.org/1999/xlink" width="108" height="108" viewBox="0 0 108 108">
  <defs>
    <filter id="Fondo" x="0" y="0" width="108" height="108" filterUnits="userSpaceOnUse">
      <feOffset dy="3" input="SourceAlpha"/>
      <feGaussianBlur stdDeviation="3" result="blur"/>
      <feFlood flood-opacity="0.161"/>
      <feComposite operator="in" in2="blur"/>
      <feComposite in="SourceGraphic"/>
    </filter>
  </defs>
  <g id="Icono" transform="translate(8.5 -689)">
    <g transform="matrix(1, 0, 0, 1, -8.5, 689)" filter="url(#Fondo)">
      <g id="Fondo-2" data-name="Fondo" transform="translate(9 6)" fill="#fbf8e2">
        <path d="M 45 88.5 C 39.12687683105469 88.5 33.43022537231445 87.35007476806641 28.06830024719238 85.08217620849609 C 22.88852500915527 82.89131164550781 18.23629951477051 79.75458526611328 14.2408504486084 75.75914764404297 C 10.24541282653809 71.76370239257812 7.108687400817871 67.11147308349609 4.917825222015381 61.93170166015625 C 2.649924993515015 56.56977462768555 1.5 50.87312316894531 1.5 45 C 1.5 39.12687683105469 2.649924993515015 33.43022537231445 4.917825222015381 28.06830024719238 C 7.108687400817871 22.88852500915527 10.24541282653809 18.23629951477051 14.2408504486084 14.2408504486084 C 18.23629951477051 10.24541282653809 22.88852500915527 7.108687400817871 28.06830024719238 4.917825222015381 C 33.43022537231445 2.649924993515015 39.12687683105469 1.5 45 1.5 C 50.87312316894531 1.5 56.56977462768555 2.649924993515015 61.93170166015625 4.917825222015381 C 67.11147308349609 7.108687400817871 71.76370239257812 10.24541282653809 75.75914764404297 14.2408504486084 C 79.75458526611328 18.23629951477051 82.89131164550781 22.88852500915527 85.08217620849609 28.06830024719238 C 87.35007476806641 33.43022537231445 88.5 39.12687683105469 88.5 45 C 88.5 50.87312316894531 87.35007476806641 56.56977462768555 85.08217620849609 61.93170166015625 C 82.89131164550781 67.11147308349609 79.75458526611328 71.76370239257812 75.75914764404297 75.75914764404297 C 71.76370239257812 79.75458526611328 67.11147308349609 82.89131164550781 61.93170166015625 85.08217620849609 C 56.56977462768555 87.35007476806641 50.87312316894531 88.5 45 88.5 Z" stroke="none"/>
        <path d="M 45 3 C 39.32871246337891 3 33.82865524291992 4.110054016113281 28.65262985229492 6.299339294433594 C 23.65165710449219 8.414573669433594 19.15968322753906 11.44334411621094 15.301513671875 15.301513671875 C 11.44334411621094 19.15968322753906 8.414573669433594 23.65165710449219 6.299339294433594 28.65262985229492 C 4.110054016113281 33.82865524291992 3 39.32871246337891 3 45 C 3 50.67128753662109 4.110054016113281 56.17134475708008 6.299339294433594 61.34737396240234 C 8.414573669433594 66.34834289550781 11.44334411621094 70.84031677246094 15.301513671875 74.698486328125 C 19.15968322753906 78.55665588378906 23.65165710449219 81.58542633056641 28.65262985229492 83.70066070556641 C 33.82865524291992 85.88994598388672 39.32871246337891 87 45 87 C 50.67128753662109 87 56.17134475708008 85.88994598388672 61.34737396240234 83.70066070556641 C 66.34834289550781 81.58542633056641 70.84031677246094 78.55665588378906 74.698486328125 74.698486328125 C 78.55665588378906 70.84031677246094 81.58542633056641 66.34834289550781 83.70066070556641 61.34737396240234 C 85.88994598388672 56.17134475708008 87 50.67128753662109 87 45 C 87 39.32871246337891 85.88994598388672 33.82865524291992 83.70066070556641 28.65262985229492 C 81.58542633056641 23.65165710449219 78.55665588378906 19.15968322753906 74.698486328125 15.301513671875 C 70.84031677246094 11.44334411621094 66.34834289550781 8.414573669433594 61.34737396240234 6.299339294433594 C 56.17134475708008 4.110054016113281 50.67128753662109 3 45 3 M 45 0 C 69.85281372070312 0 90 20.14718627929688 90 45 C 90 69.85281372070312 69.85281372070312 90 45 90 C 20.14718627929688 90 0 69.85281372070312 0 45 C 0 20.14718627929688 20.14718627929688 0 45 0 Z" stroke="none" fill="#bca724"/>
      </g>
    </g>
    <g id="_15-Court" data-name="15-Court" transform="translate(17.42 708.64)">
      <path id="Path_979043" data-name="Path 979043" d="M1,59H56.586v3.586H1Z" transform="translate(-0.103 -6.104)" fill="#f2f6fc"/>
      <g id="Group_1144123" data-name="Group 1144123" transform="translate(3.586 26.896)">
        <path id="Path_979044" data-name="Path 979044" d="M23.172,55v3.586H16V55h7.172Z" transform="translate(-5.241 -32.586)" fill="#cdd2e1"/>
        <path id="Path_979045" data-name="Path 979045" d="M11.172,55v3.586H4V55h7.172Z" transform="translate(-4 -32.586)" fill="#cdd2e1"/>
        <path id="Path_979046" data-name="Path 979046" d="M11.172,30v3.586H4V30Z" transform="translate(-4 -30)" fill="#cdd2e1"/>
        <path id="Path_979047" data-name="Path 979047" d="M23.172,30v3.586H16V30Z" transform="translate(-5.241 -30)" fill="#cdd2e1"/>
      </g>
      <path id="Path_979048" data-name="Path 979048" d="M18,34h3.586V52.827H18Z" transform="translate(-1.862 -3.517)" fill="#9196aa"/>
      <path id="Path_979049" data-name="Path 979049" d="M35.172,55v3.586H28V55h7.172Z" transform="translate(-2.897 -5.69)" fill="#cdd2e1"/>
      <path id="Path_979050" data-name="Path 979050" d="M35.172,30v3.586H28V30Z" transform="translate(-2.897 -3.104)" fill="#cdd2e1"/>
      <path id="Path_979051" data-name="Path 979051" d="M30,34h3.586V52.827H30Z" transform="translate(-3.104 -3.517)" fill="#9196aa"/>
      <path id="Path_979052" data-name="Path 979052" d="M47.172,55v3.586H40V55h7.172Z" transform="translate(-4.138 -5.69)" fill="#cdd2e1"/>
      <path id="Path_979053" data-name="Path 979053" d="M47.172,30v3.586H40V30Z" transform="translate(-4.138 -3.104)" fill="#cdd2e1"/>
      <path id="Path_979054" data-name="Path 979054" d="M42,34h3.586V52.827H42Z" transform="translate(-4.345 -3.517)" fill="#9196aa"/>
      <path id="Path_979055" data-name="Path 979055" d="M59.172,55v3.586H52V55h7.172Z" transform="translate(-5.38 -5.69)" fill="#cdd2e1"/>
      <path id="Path_979056" data-name="Path 979056" d="M59.172,30v3.586H52V30Z" transform="translate(-5.38 -3.104)" fill="#cdd2e1"/>
      <path id="Path_979057" data-name="Path 979057" d="M54,34h3.586V52.827H54Z" transform="translate(-5.587 -3.517)" fill="#9196aa"/>
      <path id="Path_979058" data-name="Path 979058" d="M6,34H9.586V52.827H6Z" transform="translate(-0.621 -3.517)" fill="#9196aa"/>
      <path id="Path_979059" data-name="Path 979059" d="M55,10.862v4.483H51.413v-2.69L29,4.586,6.586,12.655v2.69H3V10.862L29,1Z" transform="translate(-0.31 -0.103)" fill="#9196aa"/>
      <path id="Path_979060" data-name="Path 979060" d="M51.827,13.069v2.69H7v-2.69L29.414,5Z" transform="translate(-0.724 -0.517)" fill="#cdd2e1"/>
      <path id="Path_979061" data-name="Path 979061" d="M29.414,5,7,13.069v2.69L29.414,7.69l22.414,8.069v-2.69Z" transform="translate(-0.724 -0.517)" fill="#707789"/>
      <path id="Path_979062" data-name="Path 979062" d="M55,21v4.483H3V21H55Z" transform="translate(-0.31 -2.173)" fill="#cdd2e1"/>
      <path id="Path_979063" data-name="Path 979063" d="M56.586,26v3.586H1V26H56.586Z" transform="translate(-0.103 -2.69)" fill="#f2f6fc"/>
      <path id="Path_979064" data-name="Path 979064" d="M56.586,17v3.586H1V17H56.586Z" transform="translate(-0.103 -1.759)" fill="#f2f6fc"/>
      <path id="Path_979065" data-name="Path 979065" d="M44,52v3.586H61.034V52H44Z" transform="translate(-4.552 -5.38)" fill="#ffe4c2"/>
      <path id="Path_979066" data-name="Path 979066" d="M44,54v1.793H61.034V54H44Z" transform="translate(-4.552 -5.587)" fill="#f2d1a5"/>
      <path id="Path_979067" data-name="Path 979067" d="M31.793,48.586v8.965H30v3.586H44.345V57.552H42.552V48.586h1.793V45H30v3.586Z" transform="translate(-3.104 -4.655)" fill="#d18a56"/>
      <path id="Path_979068" data-name="Path 979068" d="M0,0H14.345V3.586H0Z" transform="translate(41.241 43.931) rotate(180)" fill="#b56d3c"/>
      <path id="Path_979069" data-name="Path 979069" d="M0,0H14.345V3.586H0Z" transform="translate(41.241 56.482) rotate(180)" fill="#b56d3c"/>
      <path id="Path_979070" data-name="Path 979070" d="M0,0H4.483V3.586H0Z" transform="translate(31.379 43.931) rotate(180)" fill="#94572e"/>
      <path id="Path_979071" data-name="Path 979071" d="M0,0H4.483V3.586H0Z" transform="translate(31.379 56.482) rotate(180)" fill="#94572e"/>
      <path id="Path_979072" data-name="Path 979072" d="M0,0H2.69V8.965H0Z" transform="translate(31.379 52.896) rotate(180)" fill="#b56d3c"/>
      <path id="Path_979073" data-name="Path 979073" d="M0,0H3.586V3.586H0Z" transform="translate(28.689 50.207) rotate(180)" fill="#ffe4c2"/>
      <path id="Path_979074" data-name="Path 979074" d="M0,0H3.586V1.793H0Z" transform="translate(28.689 50.207) rotate(180)" fill="#f2d1a5"/>
      <path id="Path_979075" data-name="Path 979075" d="M56.482,19.724a.9.9,0,0,0,.9-.9V15.241a.9.9,0,0,0-.9-.9h-.9V10.759a.9.9,0,0,0-.579-.838l-26-9.862a.89.89,0,0,0-.635,0l-26,9.862a.9.9,0,0,0-.579.838v3.586H.9a.9.9,0,0,0-.9.9v3.586a.9.9,0,0,0,.9.9h.9v2.69H.9a.9.9,0,0,0-.9.9V26.9a.9.9,0,0,0,.9.9H2.69v2.69a.9.9,0,0,0,.9.9h.9V48.413h-.9a.9.9,0,0,0-.9.9V52H.9a.9.9,0,0,0-.9.9v3.586a.9.9,0,0,0,.9.9h23.31V55.586H1.793V53.793H24.207V52H22.414V49.31a.9.9,0,0,0-.9-.9h-.9V31.379h.9a.9.9,0,0,0,.9-.9v-2.69h1.793v2.69a.9.9,0,0,0,.9.9H26v6.276h1.793V31.379h1.793v6.276h1.793V31.379h.9a.9.9,0,0,0,.9-.9v-2.69h1.793v2.69a.9.9,0,0,0,.9.9h.9v6.276h1.793V31.379h1.793v6.276h1.793V31.379h.9a.9.9,0,0,0,.9-.9v-2.69h1.793v2.69a.9.9,0,0,0,.9.9h.9V43.931H49.31V31.379H51.1V43.931H52.9V31.379h.9a.9.9,0,0,0,.9-.9v-2.69h1.793a.9.9,0,0,0,.9-.9V23.31a.9.9,0,0,0-.9-.9h-.9v-2.69Zm-52.9-8.347,25.1-9.522,25.1,9.522v2.968H52V12.552a.9.9,0,0,0-.593-.844L28.993,3.639a.9.9,0,0,0-.608,0L5.972,11.708a.9.9,0,0,0-.593.844v1.793H3.586Zm46.62,2.968H7.172V13.179L28.689,5.433l21.517,7.746ZM13.448,27.793v2.69a.9.9,0,0,0,.9.9h.9V48.413h-.9a.9.9,0,0,0-.9.9V52H11.655V49.31a.9.9,0,0,0-.9-.9h-.9V31.379h.9a.9.9,0,0,0,.9-.9v-2.69ZM9.862,29.586H4.483V27.793H9.862ZM6.276,31.379H8.069V48.413H6.276ZM4.483,52V50.207H9.862V52Zm10.759,0V50.207h5.379V52Zm3.586-3.586H17.034V31.379h1.793Zm1.793-18.827H15.241V27.793h5.379Zm10.759,0H26V27.793h5.379Zm10.759,0H36.758V27.793h5.379Zm10.759,0H47.517V27.793H52.9Zm.9-7.172H8.965v1.793h46.62V26H1.793V24.207H7.172V22.414H3.586v-2.69H48.413V17.931H1.793V16.138H55.586v1.793H50.207v1.793h3.586Z"/>
      <path id="Path_979076" data-name="Path 979076" d="M61.552,58H49v1.793H60.655v1.793H49v1.793H61.552a.9.9,0,0,0,.9-.9V58.9A.9.9,0,0,0,61.552,58Z" transform="translate(-5.069 -6)"/>
      <path id="Path_979077" data-name="Path 979077" d="M59.276,50.276H43.138v-.9h.9a.9.9,0,0,0,.9-.9V44.9a.9.9,0,0,0-.9-.9H29.69a.9.9,0,0,0-.9.9v3.586a.9.9,0,0,0,.9.9h.9v.9H27.9a.9.9,0,0,0-.9.9v3.586a.9.9,0,0,0,.9.9h2.69v.9h-.9a.9.9,0,0,0-.9.9v3.586a.9.9,0,0,0,.9.9H44.034a.9.9,0,0,0,.9-.9V57.448a.9.9,0,0,0-.9-.9h-.9v-.9H59.276a.9.9,0,0,0,.9-.9V51.172A.9.9,0,0,0,59.276,50.276ZM28.793,53.862V52.069h1.793v1.793Zm7.172,2.69v1.793h7.172v1.793H30.586V58.345h3.586V56.552H32.379V49.379h5.379V47.586H30.586V45.793H43.138v1.793H39.552v1.793h1.793v7.172Zm22.414-2.69H43.138V52.069H58.379Z" transform="translate(-2.793 -4.552)"/>
    </g>
  </g>
</svg>
