<svg xmlns="http://www.w3.org/2000/svg" xmlns:xlink="http://www.w3.org/1999/xlink" width="108" height="108" viewBox="0 0 108 108">
  <defs>
    <filter id="Path_904820" x="0" y="0" width="108" height="108" filterUnits="userSpaceOnUse">
      <feOffset dy="3" input="SourceAlpha"/>
      <feGaussianBlur stdDeviation="3" result="blur"/>
      <feFlood flood-opacity="0.161"/>
      <feComposite operator="in" in2="blur"/>
      <feComposite in="SourceGraphic"/>
    </filter>
  </defs>
  <g id="Icono" transform="translate(-615.101 -5000)">
    <g transform="matrix(1, 0, 0, 1, 615.1, 5000)" filter="url(#Path_904820)">
      <g id="Path_904820-2" data-name="Path 904820" transform="translate(9 6)" fill="#ecf4fa">
        <path d="M 45 88.5 C 39.12687683105469 88.5 33.43022537231445 87.35007476806641 28.06830024719238 85.08217620849609 C 22.88852500915527 82.89131164550781 18.23629951477051 79.75458526611328 14.2408504486084 75.75914764404297 C 10.24541282653809 71.76370239257812 7.108687400817871 67.11147308349609 4.917825222015381 61.93170166015625 C 2.649924993515015 56.56977462768555 1.5 50.87312316894531 1.5 45 C 1.5 39.12687683105469 2.649924993515015 33.43022537231445 4.917825222015381 28.06830024719238 C 7.108687400817871 22.88852500915527 10.24541282653809 18.23629951477051 14.2408504486084 14.2408504486084 C 18.23629951477051 10.24541282653809 22.88852500915527 7.108687400817871 28.06830024719238 4.917825222015381 C 33.43022537231445 2.649924993515015 39.12687683105469 1.5 45 1.5 C 50.87312316894531 1.5 56.56977462768555 2.649924993515015 61.93170166015625 4.917825222015381 C 67.11147308349609 7.108687400817871 71.76370239257812 10.24541282653809 75.75914764404297 14.2408504486084 C 79.75458526611328 18.23629951477051 82.89131164550781 22.88852500915527 85.08217620849609 28.06830024719238 C 87.35007476806641 33.43022537231445 88.5 39.12687683105469 88.5 45 C 88.5 50.87312316894531 87.35007476806641 56.56977462768555 85.08217620849609 61.93170166015625 C 82.89131164550781 67.11147308349609 79.75458526611328 71.76370239257812 75.75914764404297 75.75914764404297 C 71.76370239257812 79.75458526611328 67.11147308349609 82.89131164550781 61.93170166015625 85.08217620849609 C 56.56977462768555 87.35007476806641 50.87312316894531 88.5 45 88.5 Z" stroke="none"/>
        <path d="M 45 3 C 39.32871246337891 3 33.82865524291992 4.110054016113281 28.65262985229492 6.299339294433594 C 23.65165710449219 8.414573669433594 19.15968322753906 11.44334411621094 15.301513671875 15.301513671875 C 11.44334411621094 19.15968322753906 8.414573669433594 23.65165710449219 6.299339294433594 28.65262985229492 C 4.110054016113281 33.82865524291992 3 39.32871246337891 3 45 C 3 50.67128753662109 4.110054016113281 56.17134475708008 6.299339294433594 61.34737396240234 C 8.414573669433594 66.34834289550781 11.44334411621094 70.84031677246094 15.301513671875 74.698486328125 C 19.15968322753906 78.55665588378906 23.65165710449219 81.58542633056641 28.65262985229492 83.70066070556641 C 33.82865524291992 85.88994598388672 39.32871246337891 87 45 87 C 50.67128753662109 87 56.17134475708008 85.88994598388672 61.34737396240234 83.70066070556641 C 66.34834289550781 81.58542633056641 70.84031677246094 78.55665588378906 74.698486328125 74.698486328125 C 78.55665588378906 70.84031677246094 81.58542633056641 66.34834289550781 83.70066070556641 61.34737396240234 C 85.88994598388672 56.17134475708008 87 50.67128753662109 87 45 C 87 39.32871246337891 85.88994598388672 33.82865524291992 83.70066070556641 28.65262985229492 C 81.58542633056641 23.65165710449219 78.55665588378906 19.15968322753906 74.698486328125 15.301513671875 C 70.84031677246094 11.44334411621094 66.34834289550781 8.414573669433594 61.34737396240234 6.299339294433594 C 56.17134475708008 4.110054016113281 50.67128753662109 3 45 3 M 45 0 C 69.85281372070312 0 90 20.14718627929688 90 45 C 90 69.85281372070312 69.85281372070312 90 45 90 C 20.14718627929688 90 0 69.85281372070312 0 45 C 0 20.14718627929688 20.14718627929688 0 45 0 Z" stroke="none" fill="#2a5673"/>
      </g>
    </g>
    <g id="Group_1144116" data-name="Group 1144116" transform="translate(598.1 5022)">
      <g id="Group_1144117" data-name="Group 1144117" transform="translate(47.191 1.19)">
        <g id="Group_1144116-2" data-name="Group 1144116" transform="translate(0)">
          <path id="Path_979027" data-name="Path 979027" d="M96,10V55.29h40.727a2.136,2.136,0,0,0,2.13-2.13V12.13a2.136,2.136,0,0,0-2.13-2.13Z" transform="translate(-91.24 -10)" fill="#60a4ff" fill-rule="evenodd"/>
          <path id="Path_979028" data-name="Path 979028" d="M60.763,55.29V10h-.5A4.272,4.272,0,0,0,56,14.26V59.55a4.272,4.272,0,0,1,4.26-4.26Z" transform="translate(-56.001 -10)" fill="#a0c8ff" fill-rule="evenodd"/>
          <path id="Path_979029" data-name="Path 979029" d="M98.858,390.435h-38.6a4.26,4.26,0,0,0,0,8.52h38.6Z" transform="translate(-56.001 -345.145)" fill="#fff" fill-rule="evenodd"/>
          <path id="Path_979030" data-name="Path 979030" d="M416,374.674v8.52h2.632a2.136,2.136,0,0,0,2.13-2.13v-8.52a2.136,2.136,0,0,1-2.13,2.13Z" transform="translate(-373.142 -329.384)" fill="#a0c8ff" fill-rule="evenodd"/>
        </g>
        <path id="Path_979031" data-name="Path 979031" d="M153.78,88.827h-.009c-2.515-1.3-1.873-3.154-4.613-3.745-1.752-.378-3.325,1.145-2.7,2.1a12.509,12.509,0,0,1,2.194,3.811c1.7,4.673,5.89,3.674,5.908,8.328h14.391c.037-2.574,1.585-5.1,2.053-7.634a31.44,31.44,0,0,0,.58-6.441l.264-7.553a2.117,2.117,0,1,0-4.234-.017l.258-5.283c.142-2.91-4.027-3.318-4.33,0L162.9,82.953,162.5,69.082a2.167,2.167,0,1,0-4.33,0l-.394,13.871-.961-10.5a2.3,2.3,0,0,0-2.165-2.258,2.161,2.161,0,0,0-2.165,2.258Z" transform="translate(-135.568 -60.059)" fill="#ffdcd5" fill-rule="evenodd"/>
        <path id="Path_979032" data-name="Path 979032" d="M220.546,339.761H206.155a1.274,1.274,0,0,0-1.271,1.271v4.762h16.933v-4.762A1.274,1.274,0,0,0,220.546,339.761Z" transform="translate(-187.16 -300.504)" fill="#6d91ac" fill-rule="evenodd"/>
        <path id="Path_979033" data-name="Path 979033" d="M204.884,390.436h16.933v13.282H204.884Z" transform="translate(-187.16 -345.146)" fill="#a7bdcd" fill-rule="evenodd"/>
      </g>
      <g id="Group_1144118" data-name="Group 1144118" transform="translate(46.001)">
        <path id="Path_979034" data-name="Path 979034" d="M92.681,0H51.451A5.456,5.456,0,0,0,46,5.45V50.74a5.456,5.456,0,0,0,5.45,5.45H63.725v3.572a1.191,1.191,0,0,0,1.19,1.19H81.848a1.191,1.191,0,0,0,1.19-1.19V56.191h9.642A3.324,3.324,0,0,0,96,52.87V3.32A3.324,3.324,0,0,0,92.681,0ZM63.725,53.81H51.451a3.069,3.069,0,0,1,0-6.138H63.725Zm2.927-23.156L65.3,13.493a.837.837,0,0,1,.236-.639,1.033,1.033,0,0,1,.742-.335c.573,0,.926.592.98,1.177l.961,10.5a1.191,1.191,0,0,0,2.376-.075l.394-13.871a.982.982,0,1,1,1.95,0l.394,13.871a1.191,1.191,0,0,0,2.378.039l.647-10.546c.094-.963.634-1.271,1.11-1.237a.914.914,0,0,1,.844,1.087l-.258,5.277s0,.008,0,.012l-.258,5.276a1.191,1.191,0,0,0,2.378.116l.257-5.255c.1-.98.724-1.06.989-1.046a.885.885,0,0,1,.867.96l-.263,7.529c0,.014,0,.028,0,.042A30.155,30.155,0,0,1,81.46,32.6a19.278,19.278,0,0,1-.9,2.963,19.649,19.649,0,0,0-1.069,3.7H67.283a6.044,6.044,0,0,0-3.006-4.137A6.717,6.717,0,0,1,61.4,31.713a12.088,12.088,0,0,0-2.016-3.654c-.074-.095-.141-.182-.2-.26a1.429,1.429,0,0,1,1.349-.422,2.464,2.464,0,0,1,1.8,1.32,6.617,6.617,0,0,0,1.934,1.983l.013.162a1.19,1.19,0,1,0,2.373-.187Zm-.546,11.065a.084.084,0,0,1,.08-.08h14a1.187,1.187,0,0,0,.386.067h.005c.026,0,.051,0,.077,0a.072.072,0,0,1,0,.017V45.29H66.106Zm0,16.853v-10.9H80.658v10.9ZM83.039,53.81V47.671h5.819V53.81ZM93.62,52.87a.94.94,0,0,1-.939.939H91.239V47.671h1.442a3.309,3.309,0,0,0,.939-.135Zm0-8.519a.94.94,0,0,1-.939.939H83.039V41.719a2.46,2.46,0,0,0-1.2-2.107A17.7,17.7,0,0,1,82.8,36.37,21.314,21.314,0,0,0,83.8,33.03a32.624,32.624,0,0,0,.6-6.636l.263-7.532c0-.014,0-.028,0-.042a3.246,3.246,0,0,0-3.139-3.356,3.284,3.284,0,0,0-.935.093l.1-1.979a3.3,3.3,0,0,0-5.357-2.862l-.015-.536a3.356,3.356,0,1,0-6.71,0l-.027.936a3.19,3.19,0,0,0-2.3-.978,3.407,3.407,0,0,0-2.491,1.1,3.2,3.2,0,0,0-.861,2.442l1.043,13.209a4.578,4.578,0,0,0-2.935-1.84A3.755,3.755,0,0,0,57.2,26.486a2.165,2.165,0,0,0-.1,2.479c.124.187.263.366.41.555a9.823,9.823,0,0,1,1.658,3.007,9.013,9.013,0,0,0,3.728,4.528c1.091.783,1.821,1.308,2.04,2.553a2.46,2.46,0,0,0-1.2,2.111V45.29H53.144V22.59a1.19,1.19,0,0,0-2.381,0V45.334a5.418,5.418,0,0,0-2.381.9V5.45A3.074,3.074,0,0,1,50.763,2.46v9.416a1.19,1.19,0,0,0,2.381,0v-9.5H92.681a.941.941,0,0,1,.939.94Z" transform="translate(-46.001)"/>
        <path id="Path_979035" data-name="Path 979035" d="M87.192,134.759a1.191,1.191,0,1,0,1.19,1.191h0A1.19,1.19,0,0,0,87.192,134.759Z" transform="translate(-81.24 -118.716)"/>
      </g>
    </g>
  </g>
</svg>
