<svg xmlns="http://www.w3.org/2000/svg" xmlns:xlink="http://www.w3.org/1999/xlink" width="108" height="108" viewBox="0 0 108 108">
  <defs>
    <filter id="Fondo" x="0" y="0" width="108" height="108" filterUnits="userSpaceOnUse">
      <feOffset dy="3" input="SourceAlpha"/>
      <feGaussianBlur stdDeviation="3" result="blur"/>
      <feFlood flood-opacity="0.161"/>
      <feComposite operator="in" in2="blur"/>
      <feComposite in="SourceGraphic"/>
    </filter>
  </defs>
  <g id="Group_1143789" data-name="Group 1143789" transform="translate(-745.999 -4672)">
    <g transform="matrix(1, 0, 0, 1, 746, 4672)" filter="url(#Fondo)">
      <g id="Fondo-2" data-name="Fondo" transform="translate(9 6)" fill="#f7f4ed">
        <path d="M 45 88.5 C 39.12687683105469 88.5 33.43022537231445 87.35007476806641 28.06830024719238 85.08217620849609 C 22.88852500915527 82.89131164550781 18.23629951477051 79.75458526611328 14.2408504486084 75.75914764404297 C 10.24541282653809 71.76370239257812 7.108687400817871 67.11147308349609 4.917825222015381 61.93170166015625 C 2.649924993515015 56.56977462768555 1.5 50.87312316894531 1.5 45 C 1.5 39.12687683105469 2.649924993515015 33.43022537231445 4.917825222015381 28.06830024719238 C 7.108687400817871 22.88852500915527 10.24541282653809 18.23629951477051 14.2408504486084 14.2408504486084 C 18.23629951477051 10.24541282653809 22.88852500915527 7.108687400817871 28.06830024719238 4.917825222015381 C 33.43022537231445 2.649924993515015 39.12687683105469 1.5 45 1.5 C 50.87312316894531 1.5 56.56977462768555 2.649924993515015 61.93170166015625 4.917825222015381 C 67.11147308349609 7.108687400817871 71.76370239257812 10.24541282653809 75.75914764404297 14.2408504486084 C 79.75458526611328 18.23629951477051 82.89131164550781 22.88852500915527 85.08217620849609 28.06830024719238 C 87.35007476806641 33.43022537231445 88.5 39.12687683105469 88.5 45 C 88.5 50.87312316894531 87.35007476806641 56.56977462768555 85.08217620849609 61.93170166015625 C 82.89131164550781 67.11147308349609 79.75458526611328 71.76370239257812 75.75914764404297 75.75914764404297 C 71.76370239257812 79.75458526611328 67.11147308349609 82.89131164550781 61.93170166015625 85.08217620849609 C 56.56977462768555 87.35007476806641 50.87312316894531 88.5 45 88.5 Z" stroke="none"/>
        <path d="M 45 3 C 39.32871246337891 3 33.82865524291992 4.110054016113281 28.65262985229492 6.299339294433594 C 23.65165710449219 8.414573669433594 19.15968322753906 11.44334411621094 15.301513671875 15.301513671875 C 11.44334411621094 19.15968322753906 8.414573669433594 23.65165710449219 6.299339294433594 28.65262985229492 C 4.110054016113281 33.82865524291992 3 39.32871246337891 3 45 C 3 50.67128753662109 4.110054016113281 56.17134475708008 6.299339294433594 61.34737396240234 C 8.414573669433594 66.34834289550781 11.44334411621094 70.84031677246094 15.301513671875 74.698486328125 C 19.15968322753906 78.55665588378906 23.65165710449219 81.58542633056641 28.65262985229492 83.70066070556641 C 33.82865524291992 85.88994598388672 39.32871246337891 87 45 87 C 50.67128753662109 87 56.17134475708008 85.88994598388672 61.34737396240234 83.70066070556641 C 66.34834289550781 81.58542633056641 70.84031677246094 78.55665588378906 74.698486328125 74.698486328125 C 78.55665588378906 70.84031677246094 81.58542633056641 66.34834289550781 83.70066070556641 61.34737396240234 C 85.88994598388672 56.17134475708008 87 50.67128753662109 87 45 C 87 39.32871246337891 85.88994598388672 33.82865524291992 83.70066070556641 28.65262985229492 C 81.58542633056641 23.65165710449219 78.55665588378906 19.15968322753906 74.698486328125 15.301513671875 C 70.84031677246094 11.44334411621094 66.34834289550781 8.414573669433594 61.34737396240234 6.299339294433594 C 56.17134475708008 4.110054016113281 50.67128753662109 3 45 3 M 45 0 C 69.85281372070312 0 90 20.14718627929688 90 45 C 90 69.85281372070312 69.85281372070312 90 45 90 C 20.14718627929688 90 0 69.85281372070312 0 45 C 0 20.14718627929688 20.14718627929688 0 45 0 Z" stroke="none" fill="#bca724"/>
      </g>
    </g>
    <g id="Group_1143788" data-name="Group 1143788" transform="translate(775.413 4695.412)">
      <path id="Path_978827" data-name="Path 978827" d="M47.4,3.429H34.441a2.077,2.077,0,0,0-2.077,2.077V16a2.077,2.077,0,0,0,2.077,2.076h1.833L33.4,23.32l7.817-5.249H47.4A2.077,2.077,0,0,0,49.473,16V5.506A2.077,2.077,0,0,0,47.4,3.429Z" transform="translate(4.839 0.513)" fill="#ffe7a8"/>
      <path id="Path_978828" data-name="Path 978828" d="M25.451,18.153v3.678l-5,4.518-5-4.518v-3.69A6.782,6.782,0,0,0,20.462,20.9a6.768,6.768,0,0,0,4.989-2.747Z" transform="translate(2.311 2.713)" fill="#ffe1c3"/>
      <path id="Path_978829" data-name="Path 978829" d="M20.462,20.9a6.77,6.77,0,0,1-5.012-2.759V20.11a6.77,6.77,0,0,0,5.012,2.759,6.768,6.768,0,0,0,4.989-2.747V18.153A6.768,6.768,0,0,1,20.462,20.9Z" transform="translate(2.311 2.713)" fill="#ffd1ac"/>
      <path id="Path_978830" data-name="Path 978830" d="M29.572.995A3.242,3.242,0,0,1,26.91,2.118C25.1,1.764,23.74.75,20.154.75c-2.663,0-7.525.66-8.66,4.568A9.064,9.064,0,0,0,11.7,11a7.242,7.242,0,0,0,.746,1.551,18.681,18.681,0,0,0,3.085,7.685c.184.253.379.494.563.724a6.769,6.769,0,0,0,5.012,2.759A6.768,6.768,0,0,0,26.1,20.97a17.919,17.919,0,0,0,3.672-8.408,7.817,7.817,0,0,0,.818-1.576,5.943,5.943,0,0,0,.269-.745C32.529,4.4,29.572.995,29.572.995Z" transform="translate(1.665 0.112)" fill="#ffe1c3"/>
      <path id="Path_978831" data-name="Path 978831" d="M30.855,10.242a5.943,5.943,0,0,1-.269.745,7.817,7.817,0,0,1-.818,1.576,14.14,14.14,0,0,0-.6-1.661c-.44-.966-1.124-1.919-1.93-1.515a9.926,9.926,0,0,1-6.682,1.27A15.863,15.863,0,0,1,15.6,9.41a9.865,9.865,0,0,1-1.709,2.1,5.065,5.065,0,0,1-1.441,1.035A7.205,7.205,0,0,1,11.7,11a9.064,9.064,0,0,1-.207-5.681c1.136-3.9,6-4.565,8.66-4.565,3.58,0,4.943,1.014,6.756,1.368A3.242,3.242,0,0,0,29.572.995S32.529,4.4,30.855,10.242Z" transform="translate(1.665 0.112)" fill="#2f373f"/>
      <path id="Path_978832" data-name="Path 978832" d="M30.909,7.775a11.181,11.181,0,0,1-.2,1.344,3.943,3.943,0,0,0-3.091-2c-1.609-.122-2.284.367-5.241.855S16.14,7.714,14.515,5.82c-.9-1.051-.623-2.688-.115-4.068a13.614,13.614,0,0,1,5.338-1c3.578,0,4.943,1.014,6.755,1.368A3.244,3.244,0,0,0,29.156,1a9.456,9.456,0,0,1,1.753,6.78Z" transform="translate(2.083 0.112)" fill="#384149"/>
      <path id="Path_978833" data-name="Path 978833" d="M27.24,22.866l-.285-.149-1.3-1.509-5,4.522-5-4.522-1.3,1.509-.275.143L20.5,51.048Z" transform="translate(2.106 3.171)" fill="#dff8ff"/>
      <path id="Path_978834" data-name="Path 978834" d="M20.478,25.141,15.263,28.1,20.319,50.46,25.7,28.108Z" transform="translate(2.283 3.759)" fill="#c1ecfb"/>
      <path id="Path_978835" data-name="Path 978835" d="M20.714,28.322l1.527-2-2.071-1.177L18.1,26.317l1.542,2-2.306,9.97L20.009,50.46,22.9,38.77Z" transform="translate(2.592 3.759)" fill="#ecaf4e"/>
      <path id="Path_978836" data-name="Path 978836" d="M42.753,31.693a3.851,3.851,0,0,0-2.046-3.035L28.948,22.52,22.487,49.3,16.349,22.52,4.589,28.658a3.793,3.793,0,0,0-2.046,3.035L.75,50.948h43.8Z" transform="translate(0.113 3.367)" fill="#4e6078"/>
      <path id="Path_978837" data-name="Path 978837" d="M21.136,49.3,15,22.52,9.79,25.239l.241,3.776.667.379-.839.517Z" transform="translate(1.464 3.367)" fill="#47576d"/>
      <path id="Path_978838" data-name="Path 978838" d="M30.132,29.337l.563-.322.253-3.975L26.12,22.52,19.66,49.3,31.132,29.9Z" transform="translate(2.94 3.367)" fill="#47576d"/>
      <path id="Path_978839" data-name="Path 978839" d="M11.871,30.567l1.954-1.2L11.48,27.992l-.23-3.629,3.529-1.843L20.917,49.3Z" transform="translate(1.683 3.367)" fill="#556881"/>
      <path id="Path_978840" data-name="Path 978840" d="M29.029,27.992,26.7,29.371l2.173,1.23L19.66,49.3,26.12,22.52l3.15,1.644Z" transform="translate(2.94 3.367)" fill="#556881"/>
      <path id="Path_978841" data-name="Path 978841" d="M47.51,2.679H34.553a2.944,2.944,0,0,0-2.94,2.939V16.107a2.943,2.943,0,0,0,2.94,2.939h.378l-2.176,3.973a.861.861,0,0,0,1.237,1.129l7.606-5.1h5.915a2.942,2.942,0,0,0,2.936-2.939V5.618a2.943,2.943,0,0,0-2.94-2.939Zm1.216,13.428a1.217,1.217,0,0,1-1.216,1.215H41.331a.867.867,0,0,0-.48.147l-4.884,3.282L37.144,18.6a.863.863,0,0,0-.756-1.277H34.553a1.217,1.217,0,0,1-1.216-1.215V5.618A1.217,1.217,0,0,1,34.553,4.4H47.51a1.217,1.217,0,0,1,1.216,1.215Z" transform="translate(4.727 0.401)"/>
      <path id="Path_978842" data-name="Path 978842" d="M45.336,5.855H35.75a.862.862,0,0,0,0,1.724h9.586a.862.862,0,0,0,0-1.724Z" transform="translate(5.217 0.876)"/>
      <path id="Path_978843" data-name="Path 978843" d="M45.336,8.932H35.75a.862.862,0,0,0,0,1.724h9.586a.862.862,0,0,0,0-1.724Z" transform="translate(5.217 1.336)"/>
      <path id="Path_978844" data-name="Path 978844" d="M45.336,12.008H35.75a.862.862,0,0,0,0,1.724h9.586a.862.862,0,0,0,0-1.724Z" transform="translate(5.217 1.796)"/>
      <path id="Path_978845" data-name="Path 978845" d="M8.192,35.126a.862.862,0,0,0-.862.862V49.063a.862.862,0,1,0,1.724,0V35.988A.862.862,0,0,0,8.192,35.126Z" transform="translate(1.096 5.252)"/>
      <path id="Path_978846" data-name="Path 978846" d="M41.221,31.259,29.611,25.2l-.987-1.137V21.416a18.975,18.975,0,0,0,3.627-8.391,8.758,8.758,0,0,0,.817-1.6c.1-.251.2-.528.285-.815C35.131,4.382,32.028.7,31.9.542a.86.86,0,0,0-1.3,0c-.009.01-.938,1.035-1.847.847A12,12,0,0,1,27.189.937c-.277-.093-.562-.19-.864-.283A14.415,14.415,0,0,0,21.817,0c-2.4,0-8.137.506-9.487,5.2a9.862,9.862,0,0,0,.221,6.214,8.579,8.579,0,0,0,.745,1.584,19.033,19.033,0,0,0,3.6,8.387v2.674l-.987,1.139L4.3,31.257a4.676,4.676,0,0,0-2.5,3.724L0,54.236a.863.863,0,0,0,.783.941h.08a.862.862,0,0,0,.858-.783L3.515,35.143A2.957,2.957,0,0,1,5.1,32.788L12.159,29.1l.146,2.313a.86.86,0,0,0,.421.69l1.107.654-.728.447a.863.863,0,0,0-.325,1.106l4.558,9.547a.863.863,0,0,0,1.556-.744l-4.223-8.851,1.284-.79A.863.863,0,0,0,15.941,32L14,30.846l-.167-2.62,3.026-1.578A.829.829,0,0,0,17,26.562a.951.951,0,0,0,.115-.115l.73-.843L21.3,28.738l-2.919,1.656L17.9,28.3a.863.863,0,1,0-1.682.385l5.523,24.084a.862.862,0,0,0,.761.856.772.772,0,0,0,.1,0,.863.863,0,0,0,.838-.661L29.274,28.69a.862.862,0,0,0-1.677-.4l-.5,2.076-2.875-1.625,3.458-3.131.73.843a.859.859,0,0,0,.253.2l2.653,1.379-.179,2.814-1.944,1.15a.862.862,0,0,0,.014,1.494l1.466.828L26.35,43.107a.86.86,0,0,0,.393,1.15.847.847,0,0,0,.379.09.863.863,0,0,0,.775-.482l4.682-9.515a.862.862,0,0,0-.345-1.131l-.876-.494,1.054-.623a.861.861,0,0,0,.422-.69l.159-2.507,7.435,3.88A2.958,2.958,0,0,1,42.01,35.14L43.8,54.394a.862.862,0,0,0,.858.783h.08a.863.863,0,0,0,.779-.938L43.721,34.987a4.672,4.672,0,0,0-2.5-3.728ZM14.955,12.509a.776.776,0,0,0-.051-.136.87.87,0,0,0-.077-.18v-.015a6.461,6.461,0,0,1-.651-1.359,8.162,8.162,0,0,1-.184-5.144c1.029-3.564,5.819-3.951,7.831-3.951a12.76,12.76,0,0,1,4,.575c.289.089.559.18.822.268a13.5,13.5,0,0,0,1.777.51,3.5,3.5,0,0,0,2.657-.69,9.886,9.886,0,0,1,.617,7.736c-.038.137-.084.269-.132.4A3.321,3.321,0,0,0,29.85,8.634a1.653,1.653,0,0,0-1.33.1,9.187,9.187,0,0,1-6.207,1.179,15.409,15.409,0,0,1-4.677-1.169.868.868,0,0,0-1.139.379,7.4,7.4,0,0,1-.948,1.264.863.863,0,0,0,1.287,1.15,11.409,11.409,0,0,0,.76-.94,18.169,18.169,0,0,0,4.546,1.035,10.666,10.666,0,0,0,7.139-1.366c.08.024.4.279.777,1.113a9.913,9.913,0,0,1,.493,1.347c-.876,4.965-4.059,10.245-7.776,10.245-3.764,0-6.983-5.42-7.808-10.441,0-.01-.01-.015-.011-.023Zm7.806,17.378.661.376-.661.856-.66-.858Zm-2.175,1.235.739.96-1.284,5.563-1.264-5.5Zm2.047,17.827L20.922,41.5l1.822-7.891,1.668,7.947Zm2.72-11.318L24.19,32.09l.746-.968,1.744.99Zm-2.592-9.893L18.623,24v-.863A6.64,6.64,0,0,0,22.767,24.7,6.644,6.644,0,0,0,26.9,23.148v.845Z" transform="translate(0 0)"/>
      <path id="Path_978847" data-name="Path 978847" d="M31.63,35.126a.862.862,0,0,0-.862.862V49.063a.862.862,0,1,0,1.724,0V35.988A.862.862,0,0,0,31.63,35.126Z" transform="translate(4.601 5.252)"/>
    </g>
  </g>
</svg>
