<svg xmlns="http://www.w3.org/2000/svg" xmlns:xlink="http://www.w3.org/1999/xlink" width="108" height="108" viewBox="0 0 108 108">
  <defs>
    <filter id="Path_904820" x="0" y="0" width="108" height="108" filterUnits="userSpaceOnUse">
      <feOffset dy="3" input="SourceAlpha"/>
      <feGaussianBlur stdDeviation="3" result="blur"/>
      <feFlood flood-opacity="0.161"/>
      <feComposite operator="in" in2="blur"/>
      <feComposite in="SourceGraphic"/>
    </filter>
  </defs>
  <g id="Group_1144169" data-name="Group 1144169" transform="translate(-615.101 -5000)">
    <g transform="matrix(1, 0, 0, 1, 615.1, 5000)" filter="url(#Path_904820)">
      <g id="Path_904820-2" data-name="Path 904820" transform="translate(9 6)" fill="#ecf4fa">
        <path d="M 45 88.5 C 39.12687683105469 88.5 33.43022537231445 87.35007476806641 28.06830024719238 85.08217620849609 C 22.88852500915527 82.89131164550781 18.23629951477051 79.75458526611328 14.2408504486084 75.75914764404297 C 10.24541282653809 71.76370239257812 7.108687400817871 67.11147308349609 4.917825222015381 61.93170166015625 C 2.649924993515015 56.56977462768555 1.5 50.87312316894531 1.5 45 C 1.5 39.12687683105469 2.649924993515015 33.43022537231445 4.917825222015381 28.06830024719238 C 7.108687400817871 22.88852500915527 10.24541282653809 18.23629951477051 14.2408504486084 14.2408504486084 C 18.23629951477051 10.24541282653809 22.88852500915527 7.108687400817871 28.06830024719238 4.917825222015381 C 33.43022537231445 2.649924993515015 39.12687683105469 1.5 45 1.5 C 50.87312316894531 1.5 56.56977462768555 2.649924993515015 61.93170166015625 4.917825222015381 C 67.11147308349609 7.108687400817871 71.76370239257812 10.24541282653809 75.75914764404297 14.2408504486084 C 79.75458526611328 18.23629951477051 82.89131164550781 22.88852500915527 85.08217620849609 28.06830024719238 C 87.35007476806641 33.43022537231445 88.5 39.12687683105469 88.5 45 C 88.5 50.87312316894531 87.35007476806641 56.56977462768555 85.08217620849609 61.93170166015625 C 82.89131164550781 67.11147308349609 79.75458526611328 71.76370239257812 75.75914764404297 75.75914764404297 C 71.76370239257812 79.75458526611328 67.11147308349609 82.89131164550781 61.93170166015625 85.08217620849609 C 56.56977462768555 87.35007476806641 50.87312316894531 88.5 45 88.5 Z" stroke="none"/>
        <path d="M 45 3 C 39.32871246337891 3 33.82865524291992 4.110054016113281 28.65262985229492 6.299339294433594 C 23.65165710449219 8.414573669433594 19.15968322753906 11.44334411621094 15.301513671875 15.301513671875 C 11.44334411621094 19.15968322753906 8.414573669433594 23.65165710449219 6.299339294433594 28.65262985229492 C 4.110054016113281 33.82865524291992 3 39.32871246337891 3 45 C 3 50.67128753662109 4.110054016113281 56.17134475708008 6.299339294433594 61.34737396240234 C 8.414573669433594 66.34834289550781 11.44334411621094 70.84031677246094 15.301513671875 74.698486328125 C 19.15968322753906 78.55665588378906 23.65165710449219 81.58542633056641 28.65262985229492 83.70066070556641 C 33.82865524291992 85.88994598388672 39.32871246337891 87 45 87 C 50.67128753662109 87 56.17134475708008 85.88994598388672 61.34737396240234 83.70066070556641 C 66.34834289550781 81.58542633056641 70.84031677246094 78.55665588378906 74.698486328125 74.698486328125 C 78.55665588378906 70.84031677246094 81.58542633056641 66.34834289550781 83.70066070556641 61.34737396240234 C 85.88994598388672 56.17134475708008 87 50.67128753662109 87 45 C 87 39.32871246337891 85.88994598388672 33.82865524291992 83.70066070556641 28.65262985229492 C 81.58542633056641 23.65165710449219 78.55665588378906 19.15968322753906 74.698486328125 15.301513671875 C 70.84031677246094 11.44334411621094 66.34834289550781 8.414573669433594 61.34737396240234 6.299339294433594 C 56.17134475708008 4.110054016113281 50.67128753662109 3 45 3 M 45 0 C 69.85281372070312 0 90 20.14718627929688 90 45 C 90 69.85281372070312 69.85281372070312 90 45 90 C 20.14718627929688 90 0 69.85281372070312 0 45 C 0 20.14718627929688 20.14718627929688 0 45 0 Z" stroke="none" fill="#2a5673"/>
      </g>
    </g>
    <g id="Group_1144113" data-name="Group 1144113" transform="translate(614.148 4985.209)">
      <g id="Group_1144113-2" data-name="Group 1144113" transform="translate(25.857 38.354)">
        <path id="Path_978986" data-name="Path 978986" d="M39.28,384.829a21.813,21.813,0,0,0,3.134-12.023C28.38,369.617,29.607,385.686,39.28,384.829Z" transform="translate(-31.942 -329.983)" fill="#d8aa8b" fill-rule="evenodd"/>
        <path id="Path_978987" data-name="Path 978987" d="M59.752,378.532a33.769,33.769,0,0,0,.509-5.38,12.176,12.176,0,0,0-7.822.685c1.932.773,2.929,3.09,1.584,4.751C55.691,378.554,57.86,378.07,59.752,378.532Z" transform="translate(-49.79 -330.327)" fill="#963" fill-rule="evenodd"/>
        <path id="Path_978988" data-name="Path 978988" d="M120.694,56.361l-.008,2.785c.286,9.578,1.4,22.432,2.577,36.023-.253,2.386-.458,3.471-8.291,3.72l-30.657.4c7.628-11.513-.725-41.854-.649-49.822a5.1,5.1,0,0,1,3.225-4.637,5.889,5.889,0,0,1,5.872,1,6.329,6.329,0,0,1,2.587,6.195,5.493,5.493,0,0,1-4.571,4.435Z" transform="translate(-76.978 -44.447)" fill="#d8aa8b" fill-rule="evenodd"/>
        <path id="Path_978989" data-name="Path 978989" d="M167.027,57.879l-.008,2.785c.275,9.2,1.023,20.848,2.115,33.743-10.673,1.62-21.417,1.565-31.606,1.033,4.795-8.409.477-23.15-.2-37.455ZM136.88,46.19a6.166,6.166,0,0,1,2.218,1.165,6.329,6.329,0,0,1,2.587,6.195,5.486,5.486,0,0,1-4.361,4.4C137.086,52.854,136.89,48.569,136.88,46.19Z" transform="translate(-123.311 -45.965)" fill="#e1c3af" fill-rule="evenodd"/>
        <path id="Path_978990" data-name="Path 978990" d="M111.2,89.5a5.513,5.513,0,0,0,4.667-5.71c-2.961,1.756-5.512.843-7.078-1.4a3.584,3.584,0,0,0-1.462,4.27A4.179,4.179,0,0,0,111.2,89.5Z" transform="translate(-97.395 -77.484)" fill="#963" fill-rule="evenodd"/>
        <path id="Path_978991" data-name="Path 978991" d="M128.305,57.027a5.584,5.584,0,0,0,4.641-5.978,6.65,6.65,0,0,0-5.506-5.96l35.543.08c4.765,3.324,4.593,9.12.1,11.733Z" transform="translate(-115.092 -45.007)" fill="#d8aa8b" fill-rule="evenodd"/>
        <path id="Path_978992" data-name="Path 978992" d="M134.13,89.13a5.584,5.584,0,0,0,4.641-5.978,6.185,6.185,0,0,0-.158-1l33.552-.187A6.723,6.723,0,0,1,168.9,89Z" transform="translate(-120.917 -77.109)" fill="#e1c3af" fill-rule="evenodd"/>
        <path id="Path_978993" data-name="Path 978993" d="M216.438,254.43H247.3a1.274,1.274,0,0,1,1.268,1.272v1.44a1.273,1.273,0,0,1-1.268,1.268H216.438a1.273,1.273,0,0,1-1.268-1.268V255.7A1.274,1.274,0,0,1,216.438,254.43Z" transform="translate(-191.478 -227.278)" fill="#8f4018" fill-rule="evenodd"/>
        <path id="Path_978994" data-name="Path 978994" d="M330.467,202.376v23.776H325.64V202.376a1.654,1.654,0,0,1,1.65-1.646h1.528A1.654,1.654,0,0,1,330.467,202.376Z" transform="translate(-287.664 -180.522)" fill="#8f4018" fill-rule="evenodd"/>
        <path id="Path_978995" data-name="Path 978995" d="M212.018,347.23a4.805,4.805,0,0,0,2.042,5.538,5.849,5.849,0,0,0,6.359,0,4.808,4.808,0,0,0,2.046-5.538Z" transform="translate(-188.527 -308.079)" fill="#fb8500" fill-rule="evenodd"/>
        <path id="Path_978996" data-name="Path 978996" d="M236.749,351.541a4.69,4.69,0,0,0,.733-4.311H229.03a4.938,4.938,0,0,0,2.272,3.826A5.861,5.861,0,0,0,236.749,351.541Z" transform="translate(-203.546 -308.079)" fill="#ffb703" fill-rule="evenodd"/>
        <path id="Path_978997" data-name="Path 978997" d="M397.748,347.23a4.805,4.805,0,0,0,2.042,5.538,5.849,5.849,0,0,0,6.359,0,4.808,4.808,0,0,0,2.046-5.538Z" transform="translate(-350.242 -308.079)" fill="#fb8500" fill-rule="evenodd"/>
        <path id="Path_978998" data-name="Path 978998" d="M424.714,352.2a4.739,4.739,0,0,0,1.323-4.97h-8.031a4.913,4.913,0,0,0,2.28,4.164A5.864,5.864,0,0,0,424.714,352.2Z" transform="translate(-368.086 -308.079)" fill="#ffb703" fill-rule="evenodd"/>
        <path id="Path_978999" data-name="Path 978999" d="M305.41,397.35h6.645a1.969,1.969,0,0,1,1.962,1.962v1.964H303.45v-1.964A1.966,1.966,0,0,1,305.41,397.35Z" transform="translate(-268.343 -351.718)" fill="#8ecae6" fill-rule="evenodd"/>
        <path id="Path_979000" data-name="Path 979000" d="M279.953,427.71h12.37a2.459,2.459,0,0,1,2.452,2.455v2.452H277.5v-2.452A2.461,2.461,0,0,1,279.953,427.71Z" transform="translate(-245.749 -378.153)" fill="#219ebc" fill-rule="evenodd"/>
        <path id="Path_979001" data-name="Path 979001" d="M316.576,237.98a4.118,4.118,0,1,1-4.116,4.116A4.118,4.118,0,0,1,316.576,237.98Z" transform="translate(-276.188 -212.955)" fill="#fb8500" fill-rule="evenodd"/>
      </g>
      <path id="Path_979002" data-name="Path 979002" d="M39.521,90.213a.905.905,0,1,1,0-1.81H52.437a.905.905,0,1,1,0,1.81Zm.27-34.4a.905.905,0,0,1,0-1.81h7.536a.905.905,0,0,1,0,1.81ZM50.685,61.8a.905.905,0,1,1,0-1.81h7.939a.905.905,0,1,1,0,1.81Zm-9.148,0a.905.905,0,0,1,0-1.81h5a.905.905,0,0,1,0,1.81Zm10.2-5.985a.905.905,0,0,1,0-1.81H65.529a.905.905,0,0,1,0,1.81ZM40.554,85.686a.905.905,0,0,1,0-1.81h7.829a.905.905,0,0,1,0,1.81Zm25.69-23.213a4.98,4.98,0,0,1,1.51.231v-2.5a.746.746,0,0,0-.744-.741H65.483a.746.746,0,0,0-.743.741v2.5A4.992,4.992,0,0,1,66.244,62.473Zm4.908,3.937a5.157,5.157,0,0,1,0,2.17H81.675a.367.367,0,0,0,.363-.363v-1.44a.367.367,0,0,0-.363-.366Zm-1.418,4.7c-.056.056-.114.106-.172.158V83.08a2.852,2.852,0,0,1,1.177.25Zm-1.98,1.179a5.105,5.105,0,0,1-3.017,0v10.79h3.017Zm-4.827-1.021a5.107,5.107,0,0,1-.785-.875H56.235l4.277,6.565a.993.993,0,0,1,.14.268c1.283,3.892-1.91,7.668-6.081,7.668a6.363,6.363,0,0,1-6.018-4,5.53,5.53,0,0,1-.078-3.624.89.89,0,0,1,.154-.312L52.9,70.393H50.817a2.178,2.178,0,0,1-2.174-2.174v-1.44A2.179,2.179,0,0,1,50.817,64.6H62.143a5.106,5.106,0,0,1,.785-.875V60.212a2.558,2.558,0,0,1,2.555-2.551h1.528a2.537,2.537,0,0,1,1.88.829q-.149-2.814-.228-5.406l0-1.906-28.956.1H39.07a.894.894,0,0,1-.407-.1,4.919,4.919,0,0,1-1.88-.851,4.7,4.7,0,0,1-.008-7.836h0a.9.9,0,0,1,1.206.253,3.948,3.948,0,0,0,5.388,1.408,5.465,5.465,0,0,0-.359-1.279,5.71,5.71,0,0,0-1.84-2.357.947.947,0,0,1-.1-.07,4.7,4.7,0,0,0-6.865.637,4.273,4.273,0,0,0-.759,2.32A84.749,84.749,0,0,0,34.764,53.94c1.268,8.005,2.915,18.418,2.467,27.164a.86.86,0,0,1-.014.256,40.016,40.016,0,0,1-.612,5.216,21.547,21.547,0,0,1-1.836,5.7l21.936-.29V90.366a3.367,3.367,0,0,1,3.354-3.361V85.947A2.871,2.871,0,0,1,62.93,83.08V71.267ZM61.34,68.58a5.033,5.033,0,0,1,0-2.17H50.817a.368.368,0,0,0-.363.366v1.44a.367.367,0,0,0,.363.363Zm7.178-3.358a3.212,3.212,0,1,0,0,4.544A3.216,3.216,0,0,0,68.518,65.222Zm4.358,21.812a3.37,3.37,0,0,1,2.914,3.332v2.452a.9.9,0,0,1-.905.905H61.721L33.235,94.1a7.339,7.339,0,0,1-7.364-3.772,7.054,7.054,0,0,1,.653-7.939c1.634-1.9,4.559-3.046,8.958-2.3.275-8.327-1.29-18.22-2.5-25.87a84.66,84.66,0,0,1-1.338-10.864A6,6,0,0,1,35.438,37.9a6.5,6.5,0,0,1,3.452-.366l34.856.08a.9.9,0,0,1,.535.176A9.563,9.563,0,0,1,77.111,40.8a7.3,7.3,0,0,1-2.819,10.229.9.9,0,0,1-.5.118l-3.324.014,0,1.866c.056,1.822.144,3.79.253,5.89.1,1.784.216,3.684.352,5.678h10.6a2.182,2.182,0,0,1,2.174,2.177v1.44a2.181,2.181,0,0,1-2.174,2.174H80.249l4.277,6.565a.994.994,0,0,1,.14.268c1.283,3.892-1.91,7.668-6.081,7.668a6.361,6.361,0,0,1-6.018-4,5.53,5.53,0,0,1-.078-3.624.89.89,0,0,1,.154-.312l4.273-6.561H71.489c.422,5.464.895,10.977,1.386,16.643Zm-.444,1.782H60.061a1.554,1.554,0,0,0-1.546,1.55v1.546H73.978V90.366A1.554,1.554,0,0,0,72.432,88.816ZM69.569,84.89H62.924a1.064,1.064,0,0,0-1.059,1.055V87h8.76V85.946A1.062,1.062,0,0,0,69.569,84.89Zm4.5-6.481c-.385,2.559,1.854,4.669,4.515,4.669s4.9-2.112,4.511-4.669Zm.957-1.81h7.114l-3.556-5.462ZM50.054,78.41c-.385,2.559,1.854,4.669,4.515,4.669s4.9-2.112,4.511-4.669Zm.957-1.81h7.114L54.57,71.138ZM39.488,49.469h.1a4.684,4.684,0,0,0,2.449-1.243,4.552,4.552,0,0,0,1.225-2.074,5.55,5.55,0,0,1-6.143-1.612c-1.61,1.858.054,4.837,2.37,4.929Zm3.874-.012,30.227-.106a6.259,6.259,0,0,0,1.818-1.7,5.428,5.428,0,0,0,.144-5.941,7.692,7.692,0,0,0-2.093-2.291L42.6,39.348a6.881,6.881,0,0,1,.763,10.109ZM32.677,92.327a17.217,17.217,0,0,0,1.95-5.043,44.5,44.5,0,0,0-4.487.228.9.9,0,0,1-.751-1.47,2.132,2.132,0,0,0-.807-3.134c-3.617,2.79-1.651,9.589,4.1,9.42Zm2.3-6.825c.19-1.143.322-2.349.41-3.6a10.541,10.541,0,0,0-5.04.106,3.994,3.994,0,0,1,1.191,3.6A18.154,18.154,0,0,1,34.98,85.5Z" transform="translate(0)"/>
    </g>
  </g>
</svg>
