<svg xmlns="http://www.w3.org/2000/svg" xmlns:xlink="http://www.w3.org/1999/xlink" width="108" height="108" viewBox="0 0 108 108">
  <defs>
    <filter id="Path_904820" x="0" y="0" width="108" height="108" filterUnits="userSpaceOnUse">
      <feOffset dy="3" input="SourceAlpha"/>
      <feGaussianBlur stdDeviation="3" result="blur"/>
      <feFlood flood-opacity="0.161"/>
      <feComposite operator="in" in2="blur"/>
      <feComposite in="SourceGraphic"/>
    </filter>
  </defs>
  <g id="Icono" transform="translate(-615.101 -5000)">
    <g transform="matrix(1, 0, 0, 1, 615.1, 5000)" filter="url(#Path_904820)">
      <g id="Path_904820-2" data-name="Path 904820" transform="translate(9 6)" fill="#ecf4fa">
        <path d="M 45 88.5 C 39.12687683105469 88.5 33.43022537231445 87.35007476806641 28.06830024719238 85.08217620849609 C 22.88852500915527 82.89131164550781 18.23629951477051 79.75458526611328 14.2408504486084 75.75914764404297 C 10.24541282653809 71.76370239257812 7.108687400817871 67.11147308349609 4.917825222015381 61.93170166015625 C 2.649924993515015 56.56977462768555 1.5 50.87312316894531 1.5 45 C 1.5 39.12687683105469 2.649924993515015 33.43022537231445 4.917825222015381 28.06830024719238 C 7.108687400817871 22.88852500915527 10.24541282653809 18.23629951477051 14.2408504486084 14.2408504486084 C 18.23629951477051 10.24541282653809 22.88852500915527 7.108687400817871 28.06830024719238 4.917825222015381 C 33.43022537231445 2.649924993515015 39.12687683105469 1.5 45 1.5 C 50.87312316894531 1.5 56.56977462768555 2.649924993515015 61.93170166015625 4.917825222015381 C 67.11147308349609 7.108687400817871 71.76370239257812 10.24541282653809 75.75914764404297 14.2408504486084 C 79.75458526611328 18.23629951477051 82.89131164550781 22.88852500915527 85.08217620849609 28.06830024719238 C 87.35007476806641 33.43022537231445 88.5 39.12687683105469 88.5 45 C 88.5 50.87312316894531 87.35007476806641 56.56977462768555 85.08217620849609 61.93170166015625 C 82.89131164550781 67.11147308349609 79.75458526611328 71.76370239257812 75.75914764404297 75.75914764404297 C 71.76370239257812 79.75458526611328 67.11147308349609 82.89131164550781 61.93170166015625 85.08217620849609 C 56.56977462768555 87.35007476806641 50.87312316894531 88.5 45 88.5 Z" stroke="none"/>
        <path d="M 45 3 C 39.32871246337891 3 33.82865524291992 4.110054016113281 28.65262985229492 6.299339294433594 C 23.65165710449219 8.414573669433594 19.15968322753906 11.44334411621094 15.301513671875 15.301513671875 C 11.44334411621094 19.15968322753906 8.414573669433594 23.65165710449219 6.299339294433594 28.65262985229492 C 4.110054016113281 33.82865524291992 3 39.32871246337891 3 45 C 3 50.67128753662109 4.110054016113281 56.17134475708008 6.299339294433594 61.34737396240234 C 8.414573669433594 66.34834289550781 11.44334411621094 70.84031677246094 15.301513671875 74.698486328125 C 19.15968322753906 78.55665588378906 23.65165710449219 81.58542633056641 28.65262985229492 83.70066070556641 C 33.82865524291992 85.88994598388672 39.32871246337891 87 45 87 C 50.67128753662109 87 56.17134475708008 85.88994598388672 61.34737396240234 83.70066070556641 C 66.34834289550781 81.58542633056641 70.84031677246094 78.55665588378906 74.698486328125 74.698486328125 C 78.55665588378906 70.84031677246094 81.58542633056641 66.34834289550781 83.70066070556641 61.34737396240234 C 85.88994598388672 56.17134475708008 87 50.67128753662109 87 45 C 87 39.32871246337891 85.88994598388672 33.82865524291992 83.70066070556641 28.65262985229492 C 81.58542633056641 23.65165710449219 78.55665588378906 19.15968322753906 74.698486328125 15.301513671875 C 70.84031677246094 11.44334411621094 66.34834289550781 8.414573669433594 61.34737396240234 6.299339294433594 C 56.17134475708008 4.110054016113281 50.67128753662109 3 45 3 M 45 0 C 69.85281372070312 0 90 20.14718627929688 90 45 C 90 69.85281372070312 69.85281372070312 90 45 90 C 20.14718627929688 90 0 69.85281372070312 0 45 C 0 20.14718627929688 20.14718627929688 0 45 0 Z" stroke="none" fill="#2a5673"/>
      </g>
    </g>
    <g id="Group_1144106" data-name="Group 1144106" transform="translate(638.101 5004.141)">
      <g id="Group_1144097" data-name="Group 1144097" transform="translate(13.468 49.869)">
        <g id="Group_1144092" data-name="Group 1144092" transform="translate(0 3.302)">
          <path id="Path_978919" data-name="Path 978919" d="M149.54,357.508a10.512,10.512,0,0,0,2.524,6.923H114.025a1.2,1.2,0,0,1-.982-.5,12.254,12.254,0,0,1,0-12.84,1.2,1.2,0,0,1,.982-.5h38.039A10.513,10.513,0,0,0,149.54,357.508Z" transform="translate(-111.226 -350.585)" fill="#fb3a82"/>
          <path id="Path_978920" data-name="Path 978920" d="M122.835,350.587l-10.727,11.619a12.155,12.155,0,0,1-.878-4.7,10.986,10.986,0,0,1,1.816-6.42,1.2,1.2,0,0,1,.982-.5Z" transform="translate(-111.23 -350.587)" fill="#fb1466"/>
          <path id="Path_978921" data-name="Path 978921" d="M184.1,357.508a10.512,10.512,0,0,0,2.524,6.923H148.011s-2.22-2.248-2.22-6.923,2.22-6.923,2.22-6.923h38.617A10.513,10.513,0,0,0,184.1,357.508Z" transform="translate(-141.605 -350.585)" fill="#e0d3ce"/>
          <g id="Group_1144091" data-name="Group 1144091" transform="translate(4.186 0)">
            <path id="Path_978922" data-name="Path 978922" d="M153.21,350.587l-7.38,7.993c-.025-.342-.04-.7-.04-1.071,0-4.675,2.22-6.923,2.22-6.923Z" transform="translate(-145.79 -350.587)" fill="#cdbfbb"/>
            <path id="Path_978923" data-name="Path 978923" d="M428.975,357.514a10.51,10.51,0,0,0,2.524,6.922h-4.576a10.756,10.756,0,0,1,0-13.845H431.5A10.507,10.507,0,0,0,428.975,357.514Z" transform="translate(-390.661 -350.591)" fill="#cdbfbb"/>
          </g>
        </g>
        <g id="Group_1144096" data-name="Group 1144096" transform="translate(5.211)">
          <g id="Group_1144094" data-name="Group 1144094" transform="translate(0)">
            <path id="Path_978924" data-name="Path 978924" d="M196.671,325.327a2.009,2.009,0,0,1-2.009,2.009H156.269a2.01,2.01,0,0,1,0-4.019h38.393A2.01,2.01,0,0,1,196.671,325.327Z" transform="translate(-154.26 -323.317)" fill="#fb3a82"/>
            <g id="Group_1144093" data-name="Group 1144093">
              <path id="Path_978925" data-name="Path 978925" d="M163.7,323.317l-3.709,4.019h-3.724a2.01,2.01,0,0,1,0-4.019Z" transform="translate(-154.26 -323.317)" fill="#fb1466"/>
              <path id="Path_978926" data-name="Path 978926" d="M461.621,325.33a2.011,2.011,0,0,1-2.011,2.011h-3.9a2.01,2.01,0,0,0,0-4.019h3.9A2.01,2.01,0,0,1,461.621,325.33Z" transform="translate(-419.208 -323.321)" fill="#fb1466"/>
            </g>
          </g>
          <g id="Group_1144095" data-name="Group 1144095" transform="translate(0 16.43)">
            <path id="Path_978927" data-name="Path 978927" d="M194.66,463.015H156.266a2.009,2.009,0,1,1,0-4.019H194.66a2.009,2.009,0,1,1,0,4.019Z" transform="translate(-154.257 -458.996)" fill="#fb3a82"/>
            <path id="Path_978928" data-name="Path 978928" d="M461.621,461.009a2.008,2.008,0,0,1-2.011,2.009h-3.9a2.009,2.009,0,1,0,0-4.018h3.9A2.01,2.01,0,0,1,461.621,461.009Z" transform="translate(-419.208 -459)" fill="#fb1466"/>
          </g>
        </g>
      </g>
      <g id="Group_1144105" data-name="Group 1144105" transform="translate(-0.001 12.193)">
        <g id="Group_1144100" data-name="Group 1144100" transform="translate(0.908 24)">
          <g id="Group_1144098" data-name="Group 1144098" transform="translate(0 7.687)">
            <path id="Path_978929" data-name="Path 978929" d="M33.953,277.1l-3.244-3.244L8.625,294.243a3.5,3.5,0,1,0,4.941,4.941Z" transform="translate(-7.5 -273.857)" fill="#873f30"/>
            <path id="Path_978930" data-name="Path 978930" d="M14.715,306.528a3.5,3.5,0,0,1-4.944,0,3.463,3.463,0,0,1-.853-1.393,3.492,3.492,0,0,0,3.549-.85c.034-.034.067-.069.1-.1L32.953,282.1l2.246,2.246L14.813,306.426C14.78,306.461,14.748,306.5,14.715,306.528Z" transform="translate(-8.746 -281.098)" fill="#6c3328"/>
          </g>
          <path id="Path_978931" data-name="Path 978931" d="M198.106,210.382l-7.47,8.911,3.052,3.051,8.911-7.47Z" transform="translate(-168.459 -210.382)" fill="#873f30"/>
          <path id="Path_978932" data-name="Path 978932" d="M206.83,210.382l-2.414,2.879.724.724a1.365,1.365,0,0,1,0,1.93l-4.578,4.579,1.85,1.849,8.911-7.47Z" transform="translate(-177.183 -210.382)" fill="#6c3328"/>
          <g id="Group_1144099" data-name="Group 1144099" transform="translate(19.705 7.086)">
            <path id="Path_978933" data-name="Path 978933" d="M173.827,275.6l-2.962-2.962a2.193,2.193,0,0,1,3.1-3.1l2.962,2.962a2.193,2.193,0,1,1-3.1,3.1Z" transform="translate(-170.222 -268.899)" fill="#ba5d4f"/>
            <path id="Path_978934" data-name="Path 978934" d="M186.787,285.469a2.193,2.193,0,0,1-3.1,0l-2.245-2.245a2.193,2.193,0,0,0,3.1-3.1l2.245,2.245A2.192,2.192,0,0,1,186.787,285.469Z" transform="translate(-180.082 -278.764)" fill="#a34f41"/>
          </g>
        </g>
        <g id="Group_1144101" data-name="Group 1144101" transform="translate(24.1 3.634)">
          <path id="Path_978935" data-name="Path 978935" d="M0,0H9.3V14.606H0Z" transform="translate(10.326 0) rotate(45)" fill="#ba5d4f"/>
          <path id="Path_978936" data-name="Path 978936" d="M0,0H9.3V14.606H0Z" transform="translate(20.985 31.32) rotate(-135)" fill="#a34f41"/>
        </g>
        <g id="Group_1144104" data-name="Group 1144104" transform="translate(0 0)">
          <path id="Path_978937" data-name="Path 978937" d="M177.358,35.012l-.229-.229a2.218,2.218,0,0,1,0-3.137l11.3-11.3a2.218,2.218,0,0,1,3.137,0l.229.229a2.218,2.218,0,0,1,0,3.137l-11.3,11.3a2.219,2.219,0,0,1-3.137,0Z" transform="translate(-155.109 -18.785)" fill="#873f30"/>
          <path id="Path_978938" data-name="Path 978938" d="M348.893,206.547l.228.229a2.218,2.218,0,0,0,3.138,0l11.3-11.3a2.218,2.218,0,0,0,0-3.137l-.229-.229a2.218,2.218,0,0,0-3.137,0l-11.3,11.3A2.219,2.219,0,0,0,348.893,206.547Z" transform="translate(-306.073 -169.749)" fill="#6c3328"/>
          <g id="Group_1144103" data-name="Group 1144103">
            <path id="Path_978939" data-name="Path 978939" d="M0,0H10.447V22.059H0Z" transform="translate(43.857 7.795) rotate(45)" fill="#fcc16d"/>
            <path id="Path_978940" data-name="Path 978940" d="M0,0H22.059V5.288H0Z" transform="translate(31.905 27.047) rotate(-45)" fill="#fca62f"/>
            <path id="Path_978941" data-name="Path 978941" d="M240.462,67.729l-1.81-.74a1.664,1.664,0,0,0-1.806.364L224.14,80.06a1.664,1.664,0,0,0-.364,1.806l.74,1.81a1.109,1.109,0,0,0,1.811.365l14.5-14.5A1.109,1.109,0,0,0,240.462,67.729Z" transform="translate(-196.569 -60.245)" fill="#873f30"/>
            <path id="Path_978942" data-name="Path 978942" d="M305.057,132.325l.74,1.81a1.664,1.664,0,0,1-.364,1.806l-12.707,12.707a1.664,1.664,0,0,1-1.806.364l-1.81-.74a1.109,1.109,0,0,1-.365-1.811l14.5-14.5A1.109,1.109,0,0,1,305.057,132.325Z" transform="translate(-253.494 -117.171)" fill="#6c3328"/>
            <g id="Group_1144102" data-name="Group 1144102">
              <path id="Path_978943" data-name="Path 978943" d="M59.082,65.39h-.676a9.393,9.393,0,0,1-.782-1.491.908.908,0,1,0-1.678.695c.112.271.238.536.37.8H20.689a2.906,2.906,0,0,0-.792.11,10.558,10.558,0,0,1-1.335-5.407c0-.4.018-.786.052-1.169h17.4a.908.908,0,0,0,0-1.816H19.379L21.513,54.8h34.8a11.337,11.337,0,0,0-.874,2.312H43.5a.908.908,0,1,0,0,1.816h11.62c-.036.369-.056.742-.058,1.118a.908.908,0,0,0,.9.912h0a.908.908,0,0,0,.908-.9A9.718,9.718,0,0,1,58.4,54.8h.677a2.918,2.918,0,1,0,0-5.835H47.729l10.4-10.4a3.127,3.127,0,0,0,0-4.422l-.229-.229a3.125,3.125,0,0,0-4.261-.149l-1.608-1.608.547-.547a2.566,2.566,0,0,0,.562-2.792L52.4,27a2.013,2.013,0,0,0-1.461-1.212l-1.263-1.263a.908.908,0,0,0-1.284,1.284l.621.621L34.7,40.746l-4.209-4.209L44.807,22.224l.557.557A.908.908,0,1,0,46.648,21.5l-1.2-1.2a2.013,2.013,0,0,0-1.212-1.461h0l-1.81-.74a2.567,2.567,0,0,0-2.792.562l-.547.547L37.48,17.6a3.125,3.125,0,0,0-.149-4.261l-.229-.229a3.127,3.127,0,0,0-4.422,0l-11.3,11.3a3.127,3.127,0,0,0,0,4.422l.228.229a3.125,3.125,0,0,0,4.261.149l1.608,1.608-.547.547a2.566,2.566,0,0,0-.562,2.792l.74,1.81a2.012,2.012,0,0,0,1.44,1.208l-4.554,5.432a3.1,3.1,0,0,0-4.1,3.934l-2.065,1.907a.908.908,0,0,0,1.232,1.335l1.908-1.762,2.25,2.25L6.307,68.591a2.589,2.589,0,1,1-3.658-3.658L15.914,52.686a.908.908,0,0,0-1.232-1.335L1.417,63.6A4.405,4.405,0,0,0,4.4,71.24h.091a4.368,4.368,0,0,0,3.149-1.416l5.443-5.9a10.467,10.467,0,0,0,1.46,3.114,2.115,2.115,0,0,0,1.722.884H17.8a2.913,2.913,0,0,0,2.892,3.3H59.082a2.918,2.918,0,1,0,0-5.835Zm1.1-13.512a1.1,1.1,0,0,1-1.1,1.1H23.19l1.51-1.635a3.1,3.1,0,0,0,3.1-.567H59.082A1.1,1.1,0,0,1,60.183,51.879ZM32.784,41.4l-5.259,4.409-2.091-2.091,4.409-5.259Zm-3.962,7.564a3.119,3.119,0,0,0-.189-1.714l5.432-4.554a2.013,2.013,0,0,0,1.208,1.44l1.81.74a2.567,2.567,0,0,0,2.792-.562l.547-.547,1.608,1.608a3.133,3.133,0,0,0-.361,3.589H28.822ZM55.691,34.809a1.3,1.3,0,0,1,.926.384l.229.229a1.31,1.31,0,0,1,0,1.853l-11.3,11.3a1.31,1.31,0,0,1-1.853,0l-.229-.229a1.312,1.312,0,0,1,0-1.853l11.3-11.3A1.3,1.3,0,0,1,55.691,34.809Zm-3.341.229-9.043,9.043-1.6-1.6,9.043-9.043ZM35.893,42.124l14.5-14.5a.191.191,0,0,1,.139-.059.222.222,0,0,1,.043,0,.193.193,0,0,1,.146.121l.74,1.81a.754.754,0,0,1-.165.82L38.589,43.027a.754.754,0,0,1-.82.165l-1.81-.74a.2.2,0,0,1-.066-.328ZM23.817,28.161a1.3,1.3,0,0,1-.926-.384l-.229-.229a1.31,1.31,0,0,1,0-1.853l11.3-11.3a1.31,1.31,0,0,1,1.853,0l.229.229a1.31,1.31,0,0,1,0,1.853l-11.3,11.3a1.3,1.3,0,0,1-.927.384Zm3.341-.229L36.2,18.889l1.6,1.6L28.76,29.534Zm1.054,4.718L40.919,19.943a.754.754,0,0,1,.82-.165l1.81.74a.2.2,0,0,1,.066.328l-14.5,14.5a.2.2,0,0,1-.328-.066l-.74-1.81A.754.754,0,0,1,28.212,32.65ZM21.521,45.472a1.285,1.285,0,0,1,2.193-.908l2.962,2.962a1.285,1.285,0,0,1-1.817,1.817L21.9,46.38a1.276,1.276,0,0,1-.376-.908Zm-5.5,20.515a9.163,9.163,0,0,1-1.455-3.67l2.177-2.358c0,.045,0,.09,0,.135a12.6,12.6,0,0,0,1.409,6.014H16.267A.3.3,0,0,1,16.025,65.987Zm43.057,3.422H20.689a1.1,1.1,0,1,1,0-2.2H59.082a1.1,1.1,0,1,1,0,2.2Z" transform="translate(0.001 -12.193)"/>
              <path id="Path_978944" data-name="Path 978944" d="M203.235,417.166a.908.908,0,0,0,0,1.816h21.159a.908.908,0,0,0,0-1.816Z" transform="translate(-177.826 -368.126)"/>
            </g>
          </g>
        </g>
      </g>
    </g>
  </g>
</svg>
