<svg xmlns="http://www.w3.org/2000/svg" xmlns:xlink="http://www.w3.org/1999/xlink" width="108" height="108" viewBox="0 0 108 108">
  <defs>
    <filter id="Fondo" x="0" y="0" width="108" height="108" filterUnits="userSpaceOnUse">
      <feOffset dy="3" input="SourceAlpha"/>
      <feGaussianBlur stdDeviation="3" result="blur"/>
      <feFlood flood-opacity="0.161"/>
      <feComposite operator="in" in2="blur"/>
      <feComposite in="SourceGraphic"/>
    </filter>
  </defs>
  <g id="Group_1144286" data-name="Group 1144286" transform="translate(-746 -1227)">
    <g transform="matrix(1, 0, 0, 1, 746, 1227)" filter="url(#Fondo)">
      <g id="Fondo-2" data-name="Fondo" transform="translate(9 6)" fill="#ecf4fa">
        <path d="M 45 88.5 C 39.12687683105469 88.5 33.43022537231445 87.35007476806641 28.06830024719238 85.08217620849609 C 22.88852500915527 82.89131164550781 18.23629951477051 79.75458526611328 14.2408504486084 75.75914764404297 C 10.24541282653809 71.76370239257812 7.108687400817871 67.11147308349609 4.917825222015381 61.93170166015625 C 2.649924993515015 56.56977462768555 1.5 50.87312316894531 1.5 45 C 1.5 39.12687683105469 2.649924993515015 33.43022537231445 4.917825222015381 28.06830024719238 C 7.108687400817871 22.88852500915527 10.24541282653809 18.23629951477051 14.2408504486084 14.2408504486084 C 18.23629951477051 10.24541282653809 22.88852500915527 7.108687400817871 28.06830024719238 4.917825222015381 C 33.43022537231445 2.649924993515015 39.12687683105469 1.5 45 1.5 C 50.87312316894531 1.5 56.56977462768555 2.649924993515015 61.93170166015625 4.917825222015381 C 67.11147308349609 7.108687400817871 71.76370239257812 10.24541282653809 75.75914764404297 14.2408504486084 C 79.75458526611328 18.23629951477051 82.89131164550781 22.88852500915527 85.08217620849609 28.06830024719238 C 87.35007476806641 33.43022537231445 88.5 39.12687683105469 88.5 45 C 88.5 50.87312316894531 87.35007476806641 56.56977462768555 85.08217620849609 61.93170166015625 C 82.89131164550781 67.11147308349609 79.75458526611328 71.76370239257812 75.75914764404297 75.75914764404297 C 71.76370239257812 79.75458526611328 67.11147308349609 82.89131164550781 61.93170166015625 85.08217620849609 C 56.56977462768555 87.35007476806641 50.87312316894531 88.5 45 88.5 Z" stroke="none"/>
        <path d="M 45 3 C 39.32871246337891 3 33.82865524291992 4.110054016113281 28.65262985229492 6.299339294433594 C 23.65165710449219 8.414573669433594 19.15968322753906 11.44334411621094 15.301513671875 15.301513671875 C 11.44334411621094 19.15968322753906 8.414573669433594 23.65165710449219 6.299339294433594 28.65262985229492 C 4.110054016113281 33.82865524291992 3 39.32871246337891 3 45 C 3 50.67128753662109 4.110054016113281 56.17134475708008 6.299339294433594 61.34737396240234 C 8.414573669433594 66.34834289550781 11.44334411621094 70.84031677246094 15.301513671875 74.698486328125 C 19.15968322753906 78.55665588378906 23.65165710449219 81.58542633056641 28.65262985229492 83.70066070556641 C 33.82865524291992 85.88994598388672 39.32871246337891 87 45 87 C 50.67128753662109 87 56.17134475708008 85.88994598388672 61.34737396240234 83.70066070556641 C 66.34834289550781 81.58542633056641 70.84031677246094 78.55665588378906 74.698486328125 74.698486328125 C 78.55665588378906 70.84031677246094 81.58542633056641 66.34834289550781 83.70066070556641 61.34737396240234 C 85.88994598388672 56.17134475708008 87 50.67128753662109 87 45 C 87 39.32871246337891 85.88994598388672 33.82865524291992 83.70066070556641 28.65262985229492 C 81.58542633056641 23.65165710449219 78.55665588378906 19.15968322753906 74.698486328125 15.301513671875 C 70.84031677246094 11.44334411621094 66.34834289550781 8.414573669433594 61.34737396240234 6.299339294433594 C 56.17134475708008 4.110054016113281 50.67128753662109 3 45 3 M 45 0 C 69.85281372070312 0 90 20.14718627929688 90 45 C 90 69.85281372070312 69.85281372070312 90 45 90 C 20.14718627929688 90 0 69.85281372070312 0 45 C 0 20.14718627929688 20.14718627929688 0 45 0 Z" stroke="none" fill="#2a5673"/>
      </g>
    </g>
    <g id="Group_1144199" data-name="Group 1144199" transform="translate(763.639 1228.627)">
      <path id="Path_978983" data-name="Path 978983" d="M39.144,116.764c1.105-12.963,1.735-25.169,0-33.6,0,0-13.616-6.852-27.636-.491a1.769,1.769,0,0,0-1.03,1.613v32.482Z" transform="translate(-2.869 -46.819)" fill="#bac7e5"/>
      <path id="Path_978984" data-name="Path 978984" d="M169.522,116.764c.866-14.087,1.7-28.833,3.01-34.8,4.817-1.628,14.744-3.856,24.8.7a1.769,1.769,0,0,1,1.03,1.613v32.481Z" transform="translate(-133.247 -46.819)" fill="#fff"/>
      <path id="Path_978985" data-name="Path 978985" d="M172.533,91.076a26.524,26.524,0,0,0-3.01,1.193v33.6h3.01Z" transform="translate(-133.248 -55.927)" fill="#bac7e5"/>
      <path id="Path_978986" data-name="Path 978986" d="M37.553,268.912c-4.109-1.609-15.565-5.071-27.075.687v5.323a50.436,50.436,0,0,1,27.148-.491,5.53,5.53,0,0,0,3.039,0,51.033,51.033,0,0,1,27.318.487V269.6c-11.524-5.764-23.1-2.287-27.244-.681a4.384,4.384,0,0,1-3.186-.006Z" transform="translate(-2.869 -199.653)" fill="#7988b7"/>
      <path id="Path_978987" data-name="Path 978987" d="M65.238,70.728a29.716,29.716,0,0,0-18.752-9.955,2,2,0,0,1-1.732-1.98V28.661a1.489,1.489,0,0,1,1.659-1.48c15.5,1.823,20.829,12.7,20.829,12.7v30.1a1.139,1.139,0,0,1-2,.743Z" transform="translate(-30.967 -3.541)" fill="#fff"/>
      <path id="Path_978988" data-name="Path 978988" d="M80.992,144.088a15.054,15.054,0,0,1,4.109,1.988v-4.893a14.642,14.642,0,0,0-4.109-2.012Z" transform="translate(-60.674 -95.354)" fill="#bac7e5"/>
      <path id="Path_978989" data-name="Path 978989" d="M0,0H2.776V9.561A1.388,1.388,0,0,1,0,9.561V0Z" transform="translate(53.195 39.926) rotate(-40.782)" fill="#a05858"/>
      <path id="Path_978990" data-name="Path 978990" d="M0,0H15.233V7.59H0Z" transform="translate(44.252 39.089) rotate(-40.782)" fill="#e28683"/>
      <rect id="Rectangle_405202" data-name="Rectangle 405202" width="2.87" height="10.504" rx="1.435" transform="translate(62.809 35.051) rotate(139.218)" fill="#a05858"/>
      <rect id="Rectangle_405203" data-name="Rectangle 405203" width="2.87" height="10.504" rx="1.435" transform="translate(42.213 38.922) rotate(-40.782)" fill="#a05858"/>
      <path id="Path_978991" data-name="Path 978991" d="M223.864,186.424H216.3a1.529,1.529,0,0,0-1.529,1.529V189a33.414,33.414,0,0,0,10.621,0v-1.048a1.529,1.529,0,0,0-1.529-1.529Z" transform="translate(-170.341 -134.09)" fill="#e28683"/>
      <path id="Path_978992" data-name="Path 978992" d="M203.173,200.719h11.995a1.712,1.712,0,0,1,1.712,1.712v1.2H201.461v-1.2a1.712,1.712,0,0,1,1.713-1.712Z" transform="translate(-159.429 -145.808)" fill="#a05858"/>
      <g id="Group_1144198" data-name="Group 1144198" transform="translate(6.978 22.852)">
        <path id="Path_978993" data-name="Path 978993" d="M82.6,137.76a15.308,15.308,0,0,0-4.312-2.11.6.6,0,0,0-.8.607v4.917a.631.631,0,0,0,.451.6,14.684,14.684,0,0,1,3.918,1.893.645.645,0,0,0,1-.51v-4.892A.631.631,0,0,0,82.6,137.76Zm-1,4.254a15.848,15.848,0,0,0-2.848-1.3v-3.574a13.8,13.8,0,0,1,2.848,1.456Z" transform="translate(-64.777 -115.291)" fill="#3c3c4f"/>
        <path id="Path_978994" data-name="Path 978994" d="M77.983,61.924c.2.044.692.164.745.164a.632.632,0,0,0,.16-1.241c-.493-.147-1.211-.363-1.381.322A.631.631,0,0,0,77.983,61.924Z" transform="translate(-64.782 -53.874)" fill="#3c3c4f"/>
        <path id="Path_978995" data-name="Path 978995" d="M102.552,70.659a23.748,23.748,0,0,1,6.985,4.961c.514.476,1.518-.1.931-.852a24.6,24.6,0,0,0-7.4-5.263A.631.631,0,0,0,102.552,70.659Z" transform="translate(-85.022 -61.048)" fill="#3c3c4f"/>
        <path id="Path_978996" data-name="Path 978996" d="M78.015,87.7c6.35,1.439,11.273,6.486,11.325,6.534a.631.631,0,0,0,.908-.876c-.21-.218-5.229-5.365-11.955-6.889A.631.631,0,0,0,78.015,87.7Z" transform="translate(-64.814 -74.989)" fill="#3c3c4f"/>
        <path id="Path_978997" data-name="Path 978997" d="M77.983,113.556c6.35,1.438,11.276,6.483,11.325,6.534a.719.719,0,0,0,.892.016.616.616,0,0,0,.017-.892c-.21-.218-5.229-5.365-11.955-6.889a.631.631,0,0,0-.279,1.231Z" transform="translate(-64.782 -96.186)" fill="#3c3c4f"/>
        <path id="Path_978998" data-name="Path 978998" d="M118.476,155.844a.631.631,0,0,0-.613,1.1,20.439,20.439,0,0,1,4.268,3.412.716.716,0,0,0,.891.033.625.625,0,0,0,.034-.891,21.383,21.383,0,0,0-4.58-3.657Z" transform="translate(-97.612 -131.803)" fill="#3c3c4f"/>
        <path id="Path_978999" data-name="Path 978999" d="M123.012,186.273a.629.629,0,0,0,.034-.891,21.364,21.364,0,0,0-4.58-3.657.631.631,0,1,0-.613,1.1,20.438,20.438,0,0,1,4.268,3.412A.717.717,0,0,0,123.012,186.273Z" transform="translate(-97.603 -153.024)" fill="#3c3c4f"/>
        <path id="Path_979000" data-name="Path 979000" d="M64.483,68.946c-10.223-4.54-20.007-2.962-27.577.026V36.745A35.091,35.091,0,0,1,43.25,34.69a.671.671,0,0,0,.352-.2A.632.632,0,0,0,43,33.453a36.02,36.02,0,0,0-6.453,2.07C32.149,28.866,25.72,23.977,13.832,22.854a.628.628,0,0,0-.676.629V33.577a31.983,31.983,0,0,0-5.848,2.211.625.625,0,0,0-.33.555v38.9a.646.646,0,0,0,.8.629c15.605-4.368,26.176-.564,28.5-.018a50.338,50.338,0,0,1,28.664.018c.517.1.8-.168.8-.625V36.572a.631.631,0,1,0-1.262,0ZM8.24,36.728a31.492,31.492,0,0,1,4.916-1.838V57.03a.631.631,0,0,0,.585.629c11.049,1.131,16.391,5,20.993,10.941-7.834-2.751-16.291-4.041-26.5.346Zm27.4,37.657c-7.935-2.214-15.968-2.79-27.4.055V73.091c12.253-5.344,25.432-.758,27.4-.013Zm0-2.655c-7.38-2.525-17.575-4-27.4-.012v-1.38c9.855-4.769,20.447-3.013,27.4.008Zm0-4.037c-.82-1.145-6.561-10.181-21.227-11.245V24.167C25.2,25.193,32.1,30.534,35.644,36.5ZM64.483,74.44C55.6,71.673,42.71,72.4,36.906,74.388v-1.3c1.856-.7,15.243-5.381,27.577,0Zm0-2.722c-9.812-4-20.222-2.494-27.577.028v-1.4c2.253-1,14.976-6.1,27.577-.011Z" transform="translate(-6.978 -22.852)" fill="#3c3c4f"/>
        <path id="Path_979001" data-name="Path 979001" d="M204.522,56.135a2.079,2.079,0,0,0-1.716,3.409l4.986,5.781a2.066,2.066,0,0,0,3.456-2.177l2.744-2.367L219.1,66.7a2.019,2.019,0,1,0,3.057-2.637l-5.106-5.92,2.743-2.366a2.081,2.081,0,0,0,3.158-1.6,2.052,2.052,0,0,0-.5-1.5L217.47,46.9a2.07,2.07,0,0,0-3.456,2.178l-8.545,7.37A2.055,2.055,0,0,0,204.522,56.135ZM218.9,54.882l-8.407,7.251-4.133-4.793,8.407-7.25Zm-9.019,9.7a.805.805,0,0,1-1.134-.084l-4.986-5.781a.8.8,0,1,1,1.218-1.05l4.986,5.781A.806.806,0,0,1,209.882,64.586Zm11.319.3a.757.757,0,0,1-1.147.989l-5.106-5.92,1.147-.989Zm-5.82-17.251a.808.808,0,0,1,1.134.084L221.5,53.5a.8.8,0,1,1-1.218,1.05L215.3,48.772a.808.808,0,0,1,.084-1.134Z" transform="translate(-167.099 -41.975)" fill="#3c3c4f"/>
        <path id="Path_979002" data-name="Path 979002" d="M197.961,187.845v1.2a.631.631,0,0,0,.631.631h15.42a.631.631,0,0,0,.631-.631v-1.2a2.348,2.348,0,0,0-2.4-2.343,2.232,2.232,0,0,0-2.16-2.577H202.52a2.232,2.232,0,0,0-2.16,2.577,2.348,2.348,0,0,0-2.4,2.343Zm3.661-2.76a.9.9,0,0,1,.9-.9h7.564c.744.021.968.669.9,1.315h-9.36Zm-2.4,2.76a1.083,1.083,0,0,1,1.081-1.081H212.3c.953.041,1.155.842,1.081,1.652H199.223Z" transform="translate(-163.538 -154.074)" fill="#3c3c4f"/>
      </g>
    </g>
  </g>
</svg>
