<svg xmlns="http://www.w3.org/2000/svg" xmlns:xlink="http://www.w3.org/1999/xlink" width="108" height="108" viewBox="0 0 108 108">
  <defs>
    <filter id="Path_904820" x="0" y="0" width="108" height="108" filterUnits="userSpaceOnUse">
      <feOffset dy="3" input="SourceAlpha"/>
      <feGaussianBlur stdDeviation="3" result="blur"/>
      <feFlood flood-opacity="0.161"/>
      <feComposite operator="in" in2="blur"/>
      <feComposite in="SourceGraphic"/>
    </filter>
  </defs>
  <g id="Group_1144173" data-name="Group 1144173" transform="translate(-201 -786)">
    <g transform="matrix(1, 0, 0, 1, 201, 786)" filter="url(#Path_904820)">
      <g id="Path_904820-2" data-name="Path 904820" transform="translate(9 6)" fill="#ecf4fa">
        <path d="M 45 88.5 C 39.12687683105469 88.5 33.43022537231445 87.35007476806641 28.06830024719238 85.08217620849609 C 22.88852500915527 82.89131164550781 18.23629951477051 79.75458526611328 14.2408504486084 75.75914764404297 C 10.24541282653809 71.76370239257812 7.108687400817871 67.11147308349609 4.917825222015381 61.93170166015625 C 2.649924993515015 56.56977462768555 1.5 50.87312316894531 1.5 45 C 1.5 39.12687683105469 2.649924993515015 33.43022537231445 4.917825222015381 28.06830024719238 C 7.108687400817871 22.88852500915527 10.24541282653809 18.23629951477051 14.2408504486084 14.2408504486084 C 18.23629951477051 10.24541282653809 22.88852500915527 7.108687400817871 28.06830024719238 4.917825222015381 C 33.43022537231445 2.649924993515015 39.12687683105469 1.5 45 1.5 C 50.87312316894531 1.5 56.56977462768555 2.649924993515015 61.93170166015625 4.917825222015381 C 67.11147308349609 7.108687400817871 71.76370239257812 10.24541282653809 75.75914764404297 14.2408504486084 C 79.75458526611328 18.23629951477051 82.89131164550781 22.88852500915527 85.08217620849609 28.06830024719238 C 87.35007476806641 33.43022537231445 88.5 39.12687683105469 88.5 45 C 88.5 50.87312316894531 87.35007476806641 56.56977462768555 85.08217620849609 61.93170166015625 C 82.89131164550781 67.11147308349609 79.75458526611328 71.76370239257812 75.75914764404297 75.75914764404297 C 71.76370239257812 79.75458526611328 67.11147308349609 82.89131164550781 61.93170166015625 85.08217620849609 C 56.56977462768555 87.35007476806641 50.87312316894531 88.5 45 88.5 Z" stroke="none"/>
        <path d="M 45 3 C 39.32871246337891 3 33.82865524291992 4.110054016113281 28.65262985229492 6.299339294433594 C 23.65165710449219 8.414573669433594 19.15968322753906 11.44334411621094 15.301513671875 15.301513671875 C 11.44334411621094 19.15968322753906 8.414573669433594 23.65165710449219 6.299339294433594 28.65262985229492 C 4.110054016113281 33.82865524291992 3 39.32871246337891 3 45 C 3 50.67128753662109 4.110054016113281 56.17134475708008 6.299339294433594 61.34737396240234 C 8.414573669433594 66.34834289550781 11.44334411621094 70.84031677246094 15.301513671875 74.698486328125 C 19.15968322753906 78.55665588378906 23.65165710449219 81.58542633056641 28.65262985229492 83.70066070556641 C 33.82865524291992 85.88994598388672 39.32871246337891 87 45 87 C 50.67128753662109 87 56.17134475708008 85.88994598388672 61.34737396240234 83.70066070556641 C 66.34834289550781 81.58542633056641 70.84031677246094 78.55665588378906 74.698486328125 74.698486328125 C 78.55665588378906 70.84031677246094 81.58542633056641 66.34834289550781 83.70066070556641 61.34737396240234 C 85.88994598388672 56.17134475708008 87 50.67128753662109 87 45 C 87 39.32871246337891 85.88994598388672 33.82865524291992 83.70066070556641 28.65262985229492 C 81.58542633056641 23.65165710449219 78.55665588378906 19.15968322753906 74.698486328125 15.301513671875 C 70.84031677246094 11.44334411621094 66.34834289550781 8.414573669433594 61.34737396240234 6.299339294433594 C 56.17134475708008 4.110054016113281 50.67128753662109 3 45 3 M 45 0 C 69.85281372070312 0 90 20.14718627929688 90 45 C 90 69.85281372070312 69.85281372070312 90 45 90 C 20.14718627929688 90 0 69.85281372070312 0 45 C 0 20.14718627929688 20.14718627929688 0 45 0 Z" stroke="none" fill="#2a5673"/>
      </g>
    </g>
    <g id="Group_1144284" data-name="Group 1144284" transform="translate(224.39 794.945)">
      <g id="Group_1144275" data-name="Group 1144275" transform="translate(13.167 49.024)">
        <g id="Group_1144270" data-name="Group 1144270" transform="translate(0 3.228)">
          <path id="Path_979140" data-name="Path 979140" d="M148.681,357.353a10.276,10.276,0,0,0,2.467,6.767H113.962a1.177,1.177,0,0,1-.96-.491,11.979,11.979,0,0,1,0-12.552,1.177,1.177,0,0,1,.96-.491h37.186A10.277,10.277,0,0,0,148.681,357.353Z" transform="translate(-111.226 -350.585)" fill="#fb3a82"/>
          <path id="Path_979141" data-name="Path 979141" d="M122.574,350.587l-10.486,11.359a11.883,11.883,0,0,1-.858-4.591,10.74,10.74,0,0,1,1.776-6.277,1.175,1.175,0,0,1,.96-.491Z" transform="translate(-111.23 -350.587)" fill="#fb1466"/>
          <path id="Path_979142" data-name="Path 979142" d="M183.246,357.353a10.276,10.276,0,0,0,2.467,6.767H147.961s-2.17-2.2-2.17-6.767,2.17-6.767,2.17-6.767h37.752A10.277,10.277,0,0,0,183.246,357.353Z" transform="translate(-141.699 -350.585)" fill="#e0d3ce"/>
          <g id="Group_1144269" data-name="Group 1144269" transform="translate(4.092 0)">
            <path id="Path_979143" data-name="Path 979143" d="M153.043,350.587l-7.214,7.814c-.025-.334-.039-.683-.039-1.047,0-4.571,2.17-6.768,2.17-6.768Z" transform="translate(-145.79 -350.587)" fill="#cdbfbb"/>
            <path id="Path_979144" data-name="Path 979144" d="M428.872,357.359a10.275,10.275,0,0,0,2.467,6.767h-4.473a10.515,10.515,0,0,1,0-13.534h4.473A10.272,10.272,0,0,0,428.872,357.359Z" transform="translate(-391.417 -350.591)" fill="#cdbfbb"/>
          </g>
        </g>
        <g id="Group_1144274" data-name="Group 1144274" transform="translate(5.094)">
          <g id="Group_1144272" data-name="Group 1144272" transform="translate(0)">
            <path id="Path_979145" data-name="Path 979145" d="M195.721,325.282a1.964,1.964,0,0,1-1.964,1.964H156.224a1.965,1.965,0,0,1,0-3.929h37.533A1.965,1.965,0,0,1,195.721,325.282Z" transform="translate(-154.26 -323.317)" fill="#fb3a82"/>
            <g id="Group_1144271" data-name="Group 1144271">
              <path id="Path_979146" data-name="Path 979146" d="M163.49,323.317l-3.626,3.929h-3.64a1.965,1.965,0,0,1,0-3.929Z" transform="translate(-154.26 -323.317)" fill="#fb1466"/>
              <path id="Path_979147" data-name="Path 979147" d="M461.488,325.285a1.966,1.966,0,0,1-1.965,1.965h-3.81a1.965,1.965,0,0,0,0-3.929h3.81A1.965,1.965,0,0,1,461.488,325.285Z" transform="translate(-420.027 -323.321)" fill="#fb1466"/>
            </g>
          </g>
          <g id="Group_1144273" data-name="Group 1144273" transform="translate(0 16.062)">
            <path id="Path_979148" data-name="Path 979148" d="M193.754,462.925H156.221a1.964,1.964,0,1,1,0-3.929h37.533a1.964,1.964,0,0,1,0,3.929Z" transform="translate(-154.257 -458.996)" fill="#fb3a82"/>
            <path id="Path_979149" data-name="Path 979149" d="M461.488,460.964a1.963,1.963,0,0,1-1.965,1.964h-3.81a1.964,1.964,0,1,0,0-3.928h3.81A1.965,1.965,0,0,1,461.488,460.964Z" transform="translate(-420.026 -459)" fill="#fb1466"/>
          </g>
        </g>
      </g>
      <g id="Group_1144283" data-name="Group 1144283" transform="translate(-0.001 12.193)">
        <g id="Group_1144278" data-name="Group 1144278" transform="translate(0.888 23.462)">
          <g id="Group_1144276" data-name="Group 1144276" transform="translate(0 7.514)">
            <path id="Path_979150" data-name="Path 979150" d="M33.36,277.028l-3.171-3.171L8.6,293.786a3.419,3.419,0,1,0,4.831,4.831Z" transform="translate(-7.5 -273.857)" fill="#873f30"/>
            <path id="Path_979151" data-name="Path 979151" d="M14.585,305.98a3.42,3.42,0,0,1-4.833,0,3.385,3.385,0,0,1-.834-1.362,3.413,3.413,0,0,0,3.469-.831c.033-.033.066-.068.1-.1L32.414,282.1l2.2,2.2L14.68,305.881C14.649,305.914,14.617,305.948,14.585,305.98Z" transform="translate(-8.75 -281.121)" fill="#6c3328"/>
          </g>
          <path id="Path_979152" data-name="Path 979152" d="M197.939,210.382l-7.3,8.711,2.983,2.983,8.711-7.3Z" transform="translate(-168.956 -210.382)" fill="#873f30"/>
          <path id="Path_979153" data-name="Path 979153" d="M206.69,210.382l-2.36,2.815.708.708a1.335,1.335,0,0,1,0,1.887l-4.476,4.476,1.808,1.808,8.711-7.3Z" transform="translate(-177.707 -210.382)" fill="#6c3328"/>
          <g id="Group_1144277" data-name="Group 1144277" transform="translate(19.263 6.927)">
            <path id="Path_979154" data-name="Path 979154" d="M173.746,275.454l-2.9-2.9a2.144,2.144,0,0,1,3.032-3.032l2.9,2.9a2.144,2.144,0,0,1-3.032,3.032Z" transform="translate(-170.222 -268.899)" fill="#ba5d4f"/>
            <path id="Path_979155" data-name="Path 979155" d="M186.668,285.35a2.144,2.144,0,0,1-3.032,0l-2.195-2.195a2.144,2.144,0,1,0,3.032-3.032l2.195,2.195A2.143,2.143,0,0,1,186.668,285.35Z" transform="translate(-180.113 -278.794)" fill="#a34f41"/>
          </g>
        </g>
        <g id="Group_1144279" data-name="Group 1144279" transform="translate(23.559 3.552)">
          <path id="Path_979156" data-name="Path 979156" d="M0,0H9.095V14.278H0Z" transform="translate(10.095 0) rotate(45)" fill="#ba5d4f"/>
          <path id="Path_979157" data-name="Path 979157" d="M0,0H9.095V14.278H0Z" transform="translate(20.514 30.618) rotate(-135)" fill="#a34f41"/>
        </g>
        <g id="Group_1144282" data-name="Group 1144282" transform="translate(0 0)">
          <path id="Path_979158" data-name="Path 979158" d="M177.338,34.669l-.223-.223a2.169,2.169,0,0,1,0-3.067l11.049-11.049a2.169,2.169,0,0,1,3.067,0l.223.223a2.169,2.169,0,0,1,0,3.067L180.406,34.669a2.169,2.169,0,0,1-3.067,0Z" transform="translate(-155.588 -18.806)" fill="#873f30"/>
          <path id="Path_979159" data-name="Path 979159" d="M348.879,206.208l.223.223a2.169,2.169,0,0,0,3.067,0l11.049-11.049a2.169,2.169,0,0,0,0-3.067l-.223-.223a2.169,2.169,0,0,0-3.067,0l-11.049,11.049A2.169,2.169,0,0,0,348.879,206.208Z" transform="translate(-307.018 -170.235)" fill="#6c3328"/>
          <g id="Group_1144281" data-name="Group 1144281">
            <path id="Path_979160" data-name="Path 979160" d="M0,0H10.213V21.564H0Z" transform="translate(42.874 7.62) rotate(45)" fill="#fcc16d"/>
            <path id="Path_979161" data-name="Path 979161" d="M0,0H21.564V5.169H0Z" transform="translate(31.19 26.441) rotate(-45)" fill="#fca62f"/>
            <path id="Path_979162" data-name="Path 979162" d="M240.085,67.71l-1.769-.723a1.627,1.627,0,0,0-1.766.355L224.129,79.764a1.627,1.627,0,0,0-.355,1.766L224.5,83.3a1.084,1.084,0,0,0,1.771.356l14.175-14.175A1.085,1.085,0,0,0,240.085,67.71Z" transform="translate(-197.176 -60.394)" fill="#873f30"/>
            <path id="Path_979163" data-name="Path 979163" d="M304.684,132.31l.723,1.769a1.627,1.627,0,0,1-.355,1.766L292.63,148.266a1.627,1.627,0,0,1-1.766.355l-1.769-.723a1.084,1.084,0,0,1-.356-1.771l14.175-14.175A1.084,1.084,0,0,1,304.684,132.31Z" transform="translate(-254.277 -117.496)" fill="#6c3328"/>
            <g id="Group_1144280" data-name="Group 1144280">
              <path id="Path_979164" data-name="Path 979164" d="M57.758,64.2H57.1a9.182,9.182,0,0,1-.765-1.458.888.888,0,0,0-1.641.679c.11.265.233.524.362.778H20.225a2.841,2.841,0,0,0-.774.108,10.321,10.321,0,0,1-1.3-5.286c0-.387.017-.769.051-1.143H35.208a.888.888,0,1,0,0-1.776H18.945l2.086-2.26H55.049a11.083,11.083,0,0,0-.855,2.26H42.523a.888.888,0,1,0,0,1.776h11.36c-.035.361-.055.725-.056,1.093a.888.888,0,0,0,.884.892h0a.888.888,0,0,0,.888-.884A9.5,9.5,0,0,1,57.1,53.841h.662a2.852,2.852,0,1,0,0-5.7h-11.1L56.828,37.968a3.056,3.056,0,0,0,0-4.323l-.224-.224a3.055,3.055,0,0,0-4.166-.145L50.867,31.7l.535-.535a2.509,2.509,0,0,0,.55-2.73l-.723-1.769A1.968,1.968,0,0,0,49.8,25.486l-1.235-1.235a.888.888,0,0,0-1.256,1.256l.608.608L33.925,40.106l-4.115-4.115L43.8,22l.545.545A.888.888,0,1,0,45.6,21.288L44.43,20.116a1.968,1.968,0,0,0-1.185-1.429h0l-1.769-.723a2.509,2.509,0,0,0-2.73.55l-.535.535L36.64,17.477a3.055,3.055,0,0,0-.145-4.165l-.224-.224a3.057,3.057,0,0,0-4.323,0L20.9,24.137a3.056,3.056,0,0,0,0,4.323l.223.223a3.055,3.055,0,0,0,4.166.145L26.859,30.4l-.535.535a2.509,2.509,0,0,0-.55,2.73l.723,1.769a1.967,1.967,0,0,0,1.408,1.18l-4.452,5.31a3.033,3.033,0,0,0-4.007,3.846l-2.019,1.864a.888.888,0,0,0,1.2,1.3L20.5,47.218l2.2,2.2L6.165,67.326A2.531,2.531,0,1,1,2.589,63.75L15.558,51.779a.888.888,0,0,0-1.2-1.3L1.385,62.446A4.306,4.306,0,0,0,4.3,69.916h.089A4.27,4.27,0,0,0,7.47,68.531l5.321-5.764a10.233,10.233,0,0,0,1.427,3.044,2.068,2.068,0,0,0,1.684.865h1.5A2.848,2.848,0,0,0,20.225,69.9H57.758a2.852,2.852,0,0,0,0-5.7Zm1.076-13.209a1.078,1.078,0,0,1-1.077,1.077H22.67l1.476-1.6a3.035,3.035,0,0,0,3.029-.554H57.758A1.078,1.078,0,0,1,58.834,50.989ZM32.049,40.742l-5.141,4.31-2.044-2.044,4.31-5.141Zm-3.873,7.394a3.049,3.049,0,0,0-.185-1.675L33.3,42.01a1.968,1.968,0,0,0,1.18,1.408l1.769.723a2.509,2.509,0,0,0,2.73-.55l.535-.535,1.572,1.572a3.062,3.062,0,0,0-.353,3.508H28.176ZM54.443,34.3a1.273,1.273,0,0,1,.906.375l.224.224a1.281,1.281,0,0,1,0,1.811L44.523,47.762a1.281,1.281,0,0,1-1.811,0l-.223-.223a1.282,1.282,0,0,1,0-1.811L53.537,34.677A1.272,1.272,0,0,1,54.443,34.3Zm-3.266.224-8.84,8.84L40.771,41.8l8.84-8.841ZM35.089,41.453,49.264,27.278a.187.187,0,0,1,.136-.058.217.217,0,0,1,.042,0,.189.189,0,0,1,.143.118l.723,1.769a.737.737,0,0,1-.161.8L37.724,42.336a.737.737,0,0,1-.8.161l-1.769-.723a.2.2,0,0,1-.065-.321ZM23.284,27.8a1.272,1.272,0,0,1-.906-.375l-.223-.223a1.281,1.281,0,0,1,0-1.811L33.2,14.344a1.281,1.281,0,0,1,1.811,0l.224.224a1.281,1.281,0,0,1,0,1.811L24.189,27.428a1.274,1.274,0,0,1-.906.375Zm3.266-.224,8.841-8.841L36.956,20.3l-8.841,8.841Zm1.031,4.612L40,19.769a.737.737,0,0,1,.8-.161l1.769.723a.2.2,0,0,1,.065.321L28.463,34.827a.2.2,0,0,1-.321-.065l-.723-1.769a.737.737,0,0,1,.161-.8ZM21.038,44.726a1.256,1.256,0,0,1,2.144-.888l2.9,2.9A1.256,1.256,0,0,1,24.3,48.51l-2.9-2.9a1.248,1.248,0,0,1-.368-.888ZM15.666,64.781a8.957,8.957,0,0,1-1.422-3.588l2.128-2.305c0,.044,0,.088,0,.132a12.319,12.319,0,0,0,1.377,5.88H15.9A.289.289,0,0,1,15.666,64.781Zm42.092,3.346H20.225a1.077,1.077,0,1,1,0-2.153H57.758a1.077,1.077,0,0,1,0,2.153Z" transform="translate(0.001 -12.193)"/>
              <path id="Path_979165" data-name="Path 979165" d="M203.215,417.166a.888.888,0,1,0,0,1.776H223.9a.888.888,0,0,0,0-1.776Z" transform="translate(-178.375 -369.225)"/>
            </g>
          </g>
        </g>
      </g>
    </g>
  </g>
</svg>
