<svg xmlns="http://www.w3.org/2000/svg" xmlns:xlink="http://www.w3.org/1999/xlink" width="108" height="108" viewBox="0 0 108 108">
  <defs>
    <filter id="Fondo" x="0" y="0" width="108" height="108" filterUnits="userSpaceOnUse">
      <feOffset dy="3" input="SourceAlpha"/>
      <feGaussianBlur stdDeviation="3" result="blur"/>
      <feFlood flood-opacity="0.161"/>
      <feComposite operator="in" in2="blur"/>
      <feComposite in="SourceGraphic"/>
    </filter>
  </defs>
  <g id="Group_1143787" data-name="Group 1143787" transform="translate(-325.999 -4672)">
    <g transform="matrix(1, 0, 0, 1, 326, 4672)" filter="url(#Fondo)">
      <g id="Fondo-2" data-name="Fondo" transform="translate(9 6)" fill="#f7f4ed">
        <path d="M 45 88.5 C 39.12687683105469 88.5 33.43022537231445 87.35007476806641 28.06830024719238 85.08217620849609 C 22.88852500915527 82.89131164550781 18.23629951477051 79.75458526611328 14.2408504486084 75.75914764404297 C 10.24541282653809 71.76370239257812 7.108687400817871 67.11147308349609 4.917825222015381 61.93170166015625 C 2.649924993515015 56.56977462768555 1.5 50.87312316894531 1.5 45 C 1.5 39.12687683105469 2.649924993515015 33.43022537231445 4.917825222015381 28.06830024719238 C 7.108687400817871 22.88852500915527 10.24541282653809 18.23629951477051 14.2408504486084 14.2408504486084 C 18.23629951477051 10.24541282653809 22.88852500915527 7.108687400817871 28.06830024719238 4.917825222015381 C 33.43022537231445 2.649924993515015 39.12687683105469 1.5 45 1.5 C 50.87312316894531 1.5 56.56977462768555 2.649924993515015 61.93170166015625 4.917825222015381 C 67.11147308349609 7.108687400817871 71.76370239257812 10.24541282653809 75.75914764404297 14.2408504486084 C 79.75458526611328 18.23629951477051 82.89131164550781 22.88852500915527 85.08217620849609 28.06830024719238 C 87.35007476806641 33.43022537231445 88.5 39.12687683105469 88.5 45 C 88.5 50.87312316894531 87.35007476806641 56.56977462768555 85.08217620849609 61.93170166015625 C 82.89131164550781 67.11147308349609 79.75458526611328 71.76370239257812 75.75914764404297 75.75914764404297 C 71.76370239257812 79.75458526611328 67.11147308349609 82.89131164550781 61.93170166015625 85.08217620849609 C 56.56977462768555 87.35007476806641 50.87312316894531 88.5 45 88.5 Z" stroke="none"/>
        <path d="M 45 3 C 39.32871246337891 3 33.82865524291992 4.110054016113281 28.65262985229492 6.299339294433594 C 23.65165710449219 8.414573669433594 19.15968322753906 11.44334411621094 15.301513671875 15.301513671875 C 11.44334411621094 19.15968322753906 8.414573669433594 23.65165710449219 6.299339294433594 28.65262985229492 C 4.110054016113281 33.82865524291992 3 39.32871246337891 3 45 C 3 50.67128753662109 4.110054016113281 56.17134475708008 6.299339294433594 61.34737396240234 C 8.414573669433594 66.34834289550781 11.44334411621094 70.84031677246094 15.301513671875 74.698486328125 C 19.15968322753906 78.55665588378906 23.65165710449219 81.58542633056641 28.65262985229492 83.70066070556641 C 33.82865524291992 85.88994598388672 39.32871246337891 87 45 87 C 50.67128753662109 87 56.17134475708008 85.88994598388672 61.34737396240234 83.70066070556641 C 66.34834289550781 81.58542633056641 70.84031677246094 78.55665588378906 74.698486328125 74.698486328125 C 78.55665588378906 70.84031677246094 81.58542633056641 66.34834289550781 83.70066070556641 61.34737396240234 C 85.88994598388672 56.17134475708008 87 50.67128753662109 87 45 C 87 39.32871246337891 85.88994598388672 33.82865524291992 83.70066070556641 28.65262985229492 C 81.58542633056641 23.65165710449219 78.55665588378906 19.15968322753906 74.698486328125 15.301513671875 C 70.84031677246094 11.44334411621094 66.34834289550781 8.414573669433594 61.34737396240234 6.299339294433594 C 56.17134475708008 4.110054016113281 50.67128753662109 3 45 3 M 45 0 C 69.85281372070312 0 90 20.14718627929688 90 45 C 90 69.85281372070312 69.85281372070312 90 45 90 C 20.14718627929688 90 0 69.85281372070312 0 45 C 0 20.14718627929688 20.14718627929688 0 45 0 Z" stroke="none" fill="#bca724"/>
      </g>
    </g>
    <g id="Filled_outline" data-name="Filled outline" transform="translate(330.104 4676.048)">
      <path id="Path_978789" data-name="Path 978789" d="M206.446,239.723a.962.962,0,0,1-.862-.532L199.7,227.429l-5.88,11.761a.963.963,0,0,1-1.723-.862l6.742-13.484a1,1,0,0,1,1.723,0l6.742,13.484a.963.963,0,0,1-.86,1.394Z" transform="translate(-154.809 -183.211)" fill="#95573a"/>
      <path id="Path_978790" data-name="Path 978790" d="M30.449,239.723a.962.962,0,0,1-.862-.532l-5.881-11.761-5.88,11.761a.963.963,0,0,1-1.723-.862l6.742-13.484a1,1,0,0,1,1.723,0l6.742,13.484a.963.963,0,0,1-.861,1.394Z" transform="translate(-0.001 -183.211)" fill="#95573a"/>
      <path id="Path_978791" data-name="Path 978791" d="M103.41,427.853A3.853,3.853,0,0,0,99.558,424H95.705a3.853,3.853,0,0,0-3.853,3.853A3.853,3.853,0,0,0,88,431.705h19.263A3.853,3.853,0,0,0,103.41,427.853Z" transform="translate(-63.332 -358.82)" fill="#ffb531"/>
      <path id="Path_978792" data-name="Path 978792" d="M152.668,427.853A3.853,3.853,0,0,0,148.816,424h-3.853a3.82,3.82,0,0,0-.963.136,3.844,3.844,0,0,1,2.889,3.716,3.853,3.853,0,0,1,3.853,3.853h5.779A3.853,3.853,0,0,0,152.668,427.853Z" transform="translate(-112.59 -358.82)" fill="#ffa912"/>
      <path id="Path_978793" data-name="Path 978793" d="M16,344H31.41a3.853,3.853,0,0,1-3.853,3.853H19.853A3.853,3.853,0,0,1,16,344Z" transform="translate(0 -288.452)" fill="#ffb531"/>
      <path id="Path_978794" data-name="Path 978794" d="M76.816,344c0,2.128-2.688,3.853-4.816,3.853h4.816A3.853,3.853,0,0,0,80.668,344Z" transform="translate(-49.258 -288.452)" fill="#ffa912"/>
      <path id="Path_978795" data-name="Path 978795" d="M67.436,211.835a6.237,6.237,0,0,1-2.577-.551l-2.173-.99a4.355,4.355,0,0,0-3.823.132,6.253,6.253,0,0,1-4.788.482l-.4-.122.561-1.844.4.122a4.31,4.31,0,0,0,3.3-.328,6.238,6.238,0,0,1,5.546-.2l2.173.99a4.344,4.344,0,0,0,3.558,0l2.171-.99a6.236,6.236,0,0,1,5.546.2,4.312,4.312,0,0,0,3.305.328l.4-.122.561,1.844-.4.122a6.253,6.253,0,0,1-4.788-.482,4.357,4.357,0,0,0-3.824-.132l-2.171.99A6.241,6.241,0,0,1,67.436,211.835Z" transform="translate(-33.137 -168.811)" fill="#f7a116"/>
      <path id="Path_978796" data-name="Path 978796" d="M149.778,186.784a2.889,2.889,0,1,0-4.816,2.139v23.865h3.853V188.924A2.871,2.871,0,0,0,149.778,186.784Z" transform="translate(-112.589 -147.609)" fill="#ffb531"/>
      <rect id="Rectangle_405216" data-name="Rectangle 405216" width="13.484" height="1.926" rx="0.963" transform="translate(27.558 68.069)" fill="#f7a116"/>
      <path id="Path_978797" data-name="Path 978797" d="M274.889,214.742V208h9.631v6.742l2.889,2.889-7.705,20.226L272,217.631Z" transform="translate(-225.18 -168.825)" fill="#fec9a3"/>
      <path id="Path_978798" data-name="Path 978798" d="M287.41,266.889l-7.705,20.226L272,266.889,274.889,264l4.816,4.816L284.521,264Z" transform="translate(-225.18 -218.083)" fill="#bfbfbd"/>
      <path id="Path_978799" data-name="Path 978799" d="M272,266.889l7.705,20.226,7.705-20.226L284.521,264l-4.816,4.816L274.889,264Z" transform="translate(-225.18 -218.083)" fill="#bfbfbd"/>
      <path id="Path_978800" data-name="Path 978800" d="M323.853,288v20.226H320V288l1.926,1.926Z" transform="translate(-267.401 -239.194)" fill="#95573a"/>
      <path id="Path_978801" data-name="Path 978801" d="M323.853,383.25v8.759H320v-5.342C321.313,385.6,322.6,384.464,323.853,383.25Z" transform="translate(-267.401 -322.976)" fill="#8f4d2e"/>
      <path id="Path_978802" data-name="Path 978802" d="M279.705,268.816l-4.827,5.631L272,266.889,274.889,264Z" transform="translate(-225.18 -218.083)" fill="#e0e0de"/>
      <path id="Path_978803" data-name="Path 978803" d="M343.705,266.889l-2.879,7.557L336,268.816,340.816,264Z" transform="translate(-281.475 -218.083)" fill="#e0e0de"/>
      <path id="Path_978804" data-name="Path 978804" d="M305.631,226.391V224H296v2.391A8.664,8.664,0,0,0,305.631,226.391Z" transform="translate(-246.29 -182.899)" fill="#feb784"/>
      <path id="Path_978805" data-name="Path 978805" d="M408,109.586h.963a2.889,2.889,0,0,1,0,5.779H408Z" transform="translate(-344.806 -82.259)" fill="#feb784"/>
      <path id="Path_978806" data-name="Path 978806" d="M235.853,109.586h-.963a2.889,2.889,0,0,0,0,5.779h1.021" transform="translate(-189.995 -82.259)" fill="#feb784"/>
      <path id="Path_978807" data-name="Path 978807" d="M281.336,40.668v7.705a8.668,8.668,0,0,1-17.336,0V40.668A8.669,8.669,0,0,1,272.667,32h.073a8.667,8.667,0,0,1,8.6,8.667Z" transform="translate(-218.143 -14.014)" fill="#fec9a3"/>
      <path id="Path_978808" data-name="Path 978808" d="M323.813,40.677v7.705a8.673,8.673,0,0,1-11.523,8.187,10.6,10.6,0,0,0,7.429-10.113V40.677a10.6,10.6,0,0,0-4.5-8.667A8.667,8.667,0,0,1,323.813,40.677Z" transform="translate(-260.619 -14.023)" fill="#fec093"/>
      <circle id="Ellipse_11552" data-name="Ellipse 11552" cx="1.445" cy="1.445" r="1.445" transform="translate(48.747 27.617)" fill="#7a432a"/>
      <circle id="Ellipse_11553" data-name="Ellipse 11553" cx="1.445" cy="1.445" r="1.445" transform="translate(57.415 27.617)" fill="#7a432a"/>
      <path id="Path_978809" data-name="Path 978809" d="M281.336,30.452V34.3a23.4,23.4,0,0,1-3.5-5.779h0a14.462,14.462,0,0,1-1.64.5,14.776,14.776,0,0,1-8.694-.5A23.438,23.438,0,0,1,264,34.3V30.452a6.593,6.593,0,0,1,.807-3.2,5.189,5.189,0,0,1,2.083-2.094,14.97,14.97,0,0,1,4.328-1.086A14.366,14.366,0,0,1,272.667,24a15,15,0,0,1,5.781,1.158A5.909,5.909,0,0,1,281.336,30.452Z" transform="translate(-218.142 -6.977)" fill="#7a432a"/>
      <path id="Path_978810" data-name="Path 978810" d="M313.793,163.848H312v-1.926h1.793a7.171,7.171,0,0,0,3.5-.832l.971,1.664A9.007,9.007,0,0,1,313.793,163.848Z" transform="translate(-260.364 -127.562)" fill="#f7a468"/>
      <path id="Path_978811" data-name="Path 978811" d="M220.6,294.649v18.392H184V294.649a4.815,4.815,0,0,1,3.648-4.671l4.057-1.015,2.889-.963,7.705,20.226L210,288l2.889.963,4.057,1.015a4.815,4.815,0,0,1,3.648,4.671Z" transform="translate(-147.774 -239.194)" fill="#3d4d63"/>
      <path id="Path_978812" data-name="Path 978812" d="M297.908,345.82V363.9H271.89C280.715,361.342,291.406,356.182,297.908,345.82Z" transform="translate(-225.083 -290.052)" fill="#374559"/>
      <g id="Group_1143786" data-name="Group 1143786" transform="translate(42.005 65.18)">
        <path id="Path_978813" data-name="Path 978813" d="M328,456h1.926v4.816H328Z" transform="translate(-316.442 -452.147)" fill="#22303d"/>
        <path id="Path_978814" data-name="Path 978814" d="M296,464h1.926v1.926H296Z" transform="translate(-288.295 -459.184)" fill="#22303d"/>
        <path id="Path_978815" data-name="Path 978815" d="M232,424h1.926v8.668H232Z" transform="translate(-232 -424)" fill="#22303d"/>
        <path id="Path_978816" data-name="Path 978816" d="M424,424h1.926v8.668H424Z" transform="translate(-400.885 -424)" fill="#22303d"/>
      </g>
      <path id="Path_978817" data-name="Path 978817" d="M240.963,288.963,240,298.594h3.853l-.963,3.853,8.668,5.779L243.853,288Z" transform="translate(-197.032 -239.194)" fill="#4c5d72"/>
      <path id="Path_978818" data-name="Path 978818" d="M346.594,288.963l.963,9.631h-3.853l.963,3.853L336,308.226,343.705,288Z" transform="translate(-281.475 -239.194)" fill="#4c5d72"/>
      <path id="Path_978819" data-name="Path 978819" d="M334.069,30.452V34.3a23.4,23.4,0,0,1-3.5-5.779h0a14.464,14.464,0,0,1-1.64.5,10.645,10.645,0,0,0-4.977-4.959A14.367,14.367,0,0,1,325.4,24a15,15,0,0,1,5.781,1.158A5.909,5.909,0,0,1,334.069,30.452Z" transform="translate(-270.875 -6.977)" fill="#743b20"/>
      <path id="Path_978820" data-name="Path 978820" d="M69.411,49.85l-6.66-1.885L60.3,45.518V42.064a9.619,9.619,0,0,0,3.853-7.7v-.291a3.853,3.853,0,1,0,0-7.705V23.474a6.886,6.886,0,0,0-3.405-6.148q-.038-.02-.077-.036a16.077,16.077,0,0,0-12.3,0q-.039.016-.077.036a6.886,6.886,0,0,0-3.405,6.148v2.889a3.853,3.853,0,0,0,0,7.705v.29A9.615,9.615,0,0,0,46.942,40.3a4.3,4.3,0,0,1-3.147-.372,6.253,6.253,0,0,0-5.544-.2L38.1,39.8a3.776,3.776,0,0,0,.053-.624,3.853,3.853,0,0,0-7.705,0,3.775,3.775,0,0,0,.053.624l-.152-.069a6.233,6.233,0,0,0-5.545.2,4.347,4.347,0,0,1-3.306.327l-.4-.122-.556,1.844.4.12a6.239,6.239,0,0,0,1.542.264L16.1,55.118h0a.957.957,0,0,0-.1.431,4.821,4.821,0,0,0,4.816,4.816h5.779a4.821,4.821,0,0,0,4.816-4.816.957.957,0,0,0-.1-.43h0L24.767,42.034a6.046,6.046,0,0,0,.96-.419,4.356,4.356,0,0,1,3.822-.132l1.861.847V64.313a4.817,4.817,0,0,0-3.771,3.838,4.815,4.815,0,0,0-3.934,4.734.963.963,0,0,0,.963.963H37.189V55.456a3.847,3.847,0,0,1,2.918-3.737l2.729-.682L42.009,59.3a.963.963,0,0,0,.958,1.059h2.619l-.664,2.656a.963.963,0,0,0,.4,1.035l8.239,5.492v4.3h1.926v-4.3l8.239-5.493a.963.963,0,0,0,.4-1.035l-.664-2.655h2.619a.963.963,0,0,0,.958-1.059l-.827-8.269,2.729.682a3.847,3.847,0,0,1,2.918,3.738V73.848h1.926V55.456a5.771,5.771,0,0,0-4.377-5.606ZM26.594,58.438H20.816a2.894,2.894,0,0,1-2.724-1.926H29.319a2.894,2.894,0,0,1-2.724,1.926Zm-8.073-3.853,5.184-10.367,5.184,10.367Zm23.905-5.432,2.467-4.935,1.718,3.435-.312.312Zm11.136,4.183.963-1.124.963,1.124V63.8l-.963,2.528L53.562,63.8Zm-1.926,5.406L50.8,56.555l.833-.972Zm5.779,0V55.584l.833.972Zm-7.392-4.236-2.08-5.46,1.767-1.767,3.5,3.5Zm9.006,0-3.191-3.723,3.5-3.5,1.767,1.767Zm-.651-8.988-3.853,3.853-3.853-3.853v-2.33a9.644,9.644,0,0,0,7.705,0Zm-9.631-3.455v3.455l-.7.7L46.119,42.36a6.237,6.237,0,0,0,1.54-.263l.827-.236Q48.614,41.964,48.747,42.064ZM66.083,30.216a1.929,1.929,0,0,1-1.926,1.926V28.29A1.929,1.929,0,0,1,66.083,30.216ZM46.82,23.474a4.964,4.964,0,0,1,2.338-4.423,14.141,14.141,0,0,1,10.734,0,4.965,4.965,0,0,1,2.338,4.423v.875a23.494,23.494,0,0,1-1.653-3.18.963.963,0,0,0-1.222-.523,13.828,13.828,0,0,1-9.66,0,.963.963,0,0,0-1.222.523,23.484,23.484,0,0,1-1.653,3.18Zm-3.853,6.742a1.929,1.929,0,0,1,1.926-1.926v3.853A1.929,1.929,0,0,1,42.968,30.216Zm3.853-2.55a24.147,24.147,0,0,0,3.059-4.924,15.755,15.755,0,0,0,9.293,0,24.145,24.145,0,0,0,3.058,4.924v6.693a7.705,7.705,0,0,1-15.41,0ZM34.3,37.249a1.929,1.929,0,0,1,1.926,1.926,1.9,1.9,0,0,1-.645,1.424.963.963,0,0,0-.319.715v22.9H33.336v-22.9a.963.963,0,0,0-.318-.715,1.9,1.9,0,0,1-.645-1.424A1.929,1.929,0,0,1,34.3,37.249Zm-3.97,29.74a2.871,2.871,0,0,1,2.043-.846h2.889v1.926H29.647A2.878,2.878,0,0,1,30.33,66.989Zm-4.535,4.933A2.894,2.894,0,0,1,28.521,70h6.742v1.926ZM37.189,51.147V42.33l1.861-.847a4.322,4.322,0,0,1,1.779-.382,4.271,4.271,0,0,1,2.043.514,6.056,6.056,0,0,0,.961.419l-3.867,7.733-.325.081a5.77,5.77,0,0,0-2.451,1.3Zm9.767,11.681.8-3.194a.963.963,0,0,0-.934-1.2H44.032l.795-7.952,1.422-.474,6.3,16.548Zm15.274-4.391a.963.963,0,0,0-.934,1.2l.8,3.194L56.5,66.56l6.3-16.548,1.422.474.8,7.952Z" transform="translate(0)"/>
      <path id="Path_978821" data-name="Path 978821" d="M289.445,114.889A1.445,1.445,0,1,0,288,113.445,1.445,1.445,0,0,0,289.445,114.889Z" transform="translate(-239.253 -84.383)"/>
      <path id="Path_978822" data-name="Path 978822" d="M361.445,114.889A1.445,1.445,0,1,0,360,113.445,1.445,1.445,0,0,0,361.445,114.889Z" transform="translate(-302.585 -84.383)"/>
      <path id="Path_978823" data-name="Path 978823" d="M312,163.848h1.793a9.008,9.008,0,0,0,4.471-1.094l-.971-1.664a7.171,7.171,0,0,1-3.5.832H312Z" transform="translate(-260.364 -127.562)"/>
      <path id="Path_978824" data-name="Path 978824" d="M296,464h1.926v1.926H296Z" transform="translate(-246.29 -394.005)"/>
      <path id="Path_978825" data-name="Path 978825" d="M232,424h1.926v8.668H232Z" transform="translate(-189.995 -358.82)"/>
      <path id="Path_978826" data-name="Path 978826" d="M424,424h1.926v8.668H424Z" transform="translate(-358.88 -358.82)"/>
    </g>
  </g>
</svg>
