<svg xmlns="http://www.w3.org/2000/svg" xmlns:xlink="http://www.w3.org/1999/xlink" width="108" height="108" viewBox="0 0 108 108">
  <defs>
    <filter id="Fondo" x="0" y="0" width="108" height="108" filterUnits="userSpaceOnUse">
      <feOffset dy="3" input="SourceAlpha"/>
      <feGaussianBlur stdDeviation="3" result="blur"/>
      <feFlood flood-opacity="0.161"/>
      <feComposite operator="in" in2="blur"/>
      <feComposite in="SourceGraphic"/>
    </filter>
  </defs>
  <g id="Group_1143792" data-name="Group 1143792" transform="translate(-1165.999 -4672)">
    <g transform="matrix(1, 0, 0, 1, 1166, 4672)" filter="url(#Fondo)">
      <g id="Fondo-2" data-name="Fondo" transform="translate(9 6)" fill="#f7f4ed">
        <path d="M 45 88.5 C 39.12687683105469 88.5 33.43022537231445 87.35007476806641 28.06830024719238 85.08217620849609 C 22.88852500915527 82.89131164550781 18.23629951477051 79.75458526611328 14.2408504486084 75.75914764404297 C 10.24541282653809 71.76370239257812 7.108687400817871 67.11147308349609 4.917825222015381 61.93170166015625 C 2.649924993515015 56.56977462768555 1.5 50.87312316894531 1.5 45 C 1.5 39.12687683105469 2.649924993515015 33.43022537231445 4.917825222015381 28.06830024719238 C 7.108687400817871 22.88852500915527 10.24541282653809 18.23629951477051 14.2408504486084 14.2408504486084 C 18.23629951477051 10.24541282653809 22.88852500915527 7.108687400817871 28.06830024719238 4.917825222015381 C 33.43022537231445 2.649924993515015 39.12687683105469 1.5 45 1.5 C 50.87312316894531 1.5 56.56977462768555 2.649924993515015 61.93170166015625 4.917825222015381 C 67.11147308349609 7.108687400817871 71.76370239257812 10.24541282653809 75.75914764404297 14.2408504486084 C 79.75458526611328 18.23629951477051 82.89131164550781 22.88852500915527 85.08217620849609 28.06830024719238 C 87.35007476806641 33.43022537231445 88.5 39.12687683105469 88.5 45 C 88.5 50.87312316894531 87.35007476806641 56.56977462768555 85.08217620849609 61.93170166015625 C 82.89131164550781 67.11147308349609 79.75458526611328 71.76370239257812 75.75914764404297 75.75914764404297 C 71.76370239257812 79.75458526611328 67.11147308349609 82.89131164550781 61.93170166015625 85.08217620849609 C 56.56977462768555 87.35007476806641 50.87312316894531 88.5 45 88.5 Z" stroke="none"/>
        <path d="M 45 3 C 39.32871246337891 3 33.82865524291992 4.110054016113281 28.65262985229492 6.299339294433594 C 23.65165710449219 8.414573669433594 19.15968322753906 11.44334411621094 15.301513671875 15.301513671875 C 11.44334411621094 19.15968322753906 8.414573669433594 23.65165710449219 6.299339294433594 28.65262985229492 C 4.110054016113281 33.82865524291992 3 39.32871246337891 3 45 C 3 50.67128753662109 4.110054016113281 56.17134475708008 6.299339294433594 61.34737396240234 C 8.414573669433594 66.34834289550781 11.44334411621094 70.84031677246094 15.301513671875 74.698486328125 C 19.15968322753906 78.55665588378906 23.65165710449219 81.58542633056641 28.65262985229492 83.70066070556641 C 33.82865524291992 85.88994598388672 39.32871246337891 87 45 87 C 50.67128753662109 87 56.17134475708008 85.88994598388672 61.34737396240234 83.70066070556641 C 66.34834289550781 81.58542633056641 70.84031677246094 78.55665588378906 74.698486328125 74.698486328125 C 78.55665588378906 70.84031677246094 81.58542633056641 66.34834289550781 83.70066070556641 61.34737396240234 C 85.88994598388672 56.17134475708008 87 50.67128753662109 87 45 C 87 39.32871246337891 85.88994598388672 33.82865524291992 83.70066070556641 28.65262985229492 C 81.58542633056641 23.65165710449219 78.55665588378906 19.15968322753906 74.698486328125 15.301513671875 C 70.84031677246094 11.44334411621094 66.34834289550781 8.414573669433594 61.34737396240234 6.299339294433594 C 56.17134475708008 4.110054016113281 50.67128753662109 3 45 3 M 45 0 C 69.85281372070312 0 90 20.14718627929688 90 45 C 90 69.85281372070312 69.85281372070312 90 45 90 C 20.14718627929688 90 0 69.85281372070312 0 45 C 0 20.14718627929688 20.14718627929688 0 45 0 Z" stroke="none" fill="#bca724"/>
      </g>
    </g>
    <g id="Group_1143791" data-name="Group 1143791" transform="translate(1188 4687)">
      <path id="Path_978848" data-name="Path 978848" d="M47,12.464h4v8.3H47Z" fill="#955a21"/>
      <path id="Path_978849" data-name="Path 978849" d="M13.536,43a3.536,3.536,0,0,1-2.5-6.036L19,29l10-2V24.326h6V27l10,2,4,14Z" fill="#5a5b5d"/>
      <path id="Path_978850" data-name="Path 978850" d="M43,25,41.907,12.435l-.214-2.464A8.726,8.726,0,0,0,33,2H31a8.724,8.724,0,0,0-8.692,7.97l-.214,2.465L21,25Z" fill="#955a21"/>
      <path id="Path_978851" data-name="Path 978851" d="M41.907,12.435l-.214-2.464A8.726,8.726,0,0,0,33,2H31a8.7,8.7,0,0,0-3.212.611,8.687,8.687,0,0,0-2.48,5.358l-.214,2.466L24,23H42.826Z" fill="#ab692a"/>
      <path id="Path_978852" data-name="Path 978852" d="M39,18a7,7,0,1,1-14,0V11h3.615A27.967,27.967,0,0,0,39,9Z" fill="#deb2ae"/>
      <path id="Path_978853" data-name="Path 978853" d="M25,12H23.5a2.5,2.5,0,0,0,0,5H25" fill="#deb2ae"/>
      <path id="Path_978854" data-name="Path 978854" d="M39,12h1.5a2.5,2.5,0,0,1,0,5H39" fill="#deb2ae"/>
      <path id="Path_978855" data-name="Path 978855" d="M8,47H56V63H8Z" fill="#ab692a"/>
      <g id="Group_1143790" data-name="Group 1143790">
        <path id="Path_978856" data-name="Path 978856" d="M8,50H56v2H8Z" fill="#b4b5b9"/>
        <path id="Path_978857" data-name="Path 978857" d="M26,63V55H38v8" fill="#b4b5b9"/>
        <path id="Path_978858" data-name="Path 978858" d="M12,63V55H22v8" fill="#b4b5b9"/>
        <path id="Path_978859" data-name="Path 978859" d="M42,63V55H52v8" fill="#b4b5b9"/>
      </g>
      <path id="Path_978860" data-name="Path 978860" d="M53,39V26H45V39a4,4,0,0,0,8,0Z" fill="#424344"/>
      <path id="Path_978861" data-name="Path 978861" d="M46,26V23a3,3,0,0,1,6,0v3" fill="#fbe2d9"/>
      <path id="Path_978862" data-name="Path 978862" d="M37,43,35.356,31.6H28.644L27,43Z" fill="#dcdddf"/>
      <circle id="Ellipse_11554" data-name="Ellipse 11554" cx="4" cy="4" r="4" transform="translate(45 5)" fill="#dc8039"/>
      <circle id="Ellipse_11555" data-name="Ellipse 11555" cx="2" cy="2" r="2" transform="translate(47 7)" fill="#955a21"/>
      <path id="Path_978863" data-name="Path 978863" d="M29,27l3,6L21.3,28.541" fill="#b4b5b9"/>
      <path id="Path_978864" data-name="Path 978864" d="M35,27l-3,6,10.7-4.458" fill="#b4b5b9"/>
      <path id="Path_978865" data-name="Path 978865" d="M25,12v6a7,7,0,1,0,14,0V10a27.968,27.968,0,0,1-10.385,2Z" fill="#fbe2d9"/>
      <path id="Path_978866" data-name="Path 978866" d="M35,24.32V27l-3,6-3-6V24.32A6.958,6.958,0,0,0,35,24.32Z" fill="#deb2ae"/>
      <path id="Path_978867" data-name="Path 978867" d="M29,26.386V27l3,6,3-6v-.614a7.636,7.636,0,0,1-6,0Z" fill="#fbe2d9"/>
      <path id="Path_978868" data-name="Path 978868" d="M23,37h2a3,3,0,1,1,0,6H23" fill="#fbe2d9"/>
      <path id="Path_978869" data-name="Path 978869" d="M24,43H22V37H17V35h6a1,1,0,0,1,1,1Z" fill="#77787c"/>
      <path id="Path_978870" data-name="Path 978870" d="M6,43H58v4H6Z" fill="#955a21"/>
      <path id="Path_978871" data-name="Path 978871" d="M10,45H58V43H8A2,2,0,0,0,10,45Z" fill="#ab692a"/>
      <path id="Path_978872" data-name="Path 978872" d="M6,43H58v4H6Z" fill="#955a21"/>
      <path id="Path_978873" data-name="Path 978873" d="M13,55h9v7H13Z" fill="#dcdddf"/>
      <path id="Path_978874" data-name="Path 978874" d="M27,55H38v7H27Z" fill="#dcdddf"/>
      <path id="Path_978875" data-name="Path 978875" d="M43,55h9v7H43Z" fill="#dcdddf"/>
      <path id="Path_978876" data-name="Path 978876" d="M57,63V48h1a1,1,0,0,0,1-1V43a1,1,0,0,0-1-1H52.974A4.948,4.948,0,0,0,54,39V26a1,1,0,0,0-1-1V23a3.963,3.963,0,0,0-1-2.62V12.974a5,5,0,1,0-6,0v7.409A3.962,3.962,0,0,0,45,23v2a1,1,0,0,0-1,1v1.78l-8-1.6V26h7a1,1,0,0,0,1-1.087l-.722-8.3a3.448,3.448,0,0,0-.406-4.671l-.179-2.055A9.672,9.672,0,0,0,33,1H31a9.669,9.669,0,0,0-9.688,8.882l-.179,2.057a3.448,3.448,0,0,0-.406,4.671L20,24.913A1,1,0,0,0,21,26h7v.181L18.8,28.02a1,1,0,0,0-.511.273l-7.964,7.965A4.53,4.53,0,0,0,9.777,42H6a1,1,0,0,0-1,1v4a1,1,0,0,0,1,1H7V63H9V52H55V63ZM46,39V27h6V39a3,3,0,0,1-6,0ZM49,6a3,3,0,1,1-3,3A3,3,0,0,1,49,6Zm0,8a5,5,0,0,0,1-.1v5.243A4.008,4.008,0,0,0,49,19a3.925,3.925,0,0,0-1,.142V13.9A5,5,0,0,0,49,14Zm-2,9a2,2,0,0,1,4,0v2H47ZM45.026,42h-7.16l-1.41-9.774,6.349-2.645,1.2.239V39A4.948,4.948,0,0,0,45.026,42ZM24,38h1a2,2,0,1,1,0,4H24Zm5,2a3.969,3.969,0,0,0-.329-1.581l.779-5.4,2.154.9h.008a.985.985,0,0,0,.773,0h.008l2.154-.9,1.3,8.98h-7.4A3.959,3.959,0,0,0,29,40Zm3-16a6.006,6.006,0,0,1-6-6V12h2.615A28.821,28.821,0,0,0,38,10.438V18A6.006,6.006,0,0,1,32,24Zm0,2a7.953,7.953,0,0,0,2-.263v1.027l-2,4-2-4V25.737A7.953,7.953,0,0,0,32,26Zm7.291,2.878L34.1,31.042l1.456-2.912ZM37.274,24A7.976,7.976,0,0,0,40,18h.5a3.433,3.433,0,0,0,.877-.125L41.909,24ZM40,13h.5a1.5,1.5,0,1,1,0,3H40ZM23.3,10.056A7.682,7.682,0,0,1,31,3h2a7.684,7.684,0,0,1,7.7,7.058l.084.97c-.1-.007-.184-.028-.284-.028H40V9a1,1,0,0,0-1.372-.929A26.809,26.809,0,0,1,28.615,10H25a1,1,0,0,0-1,1h-.5c-.1,0-.187.021-.281.028ZM24,16h-.5a1.5,1.5,0,1,1,0-3H24Zm-1.377,1.875A3.433,3.433,0,0,0,23.5,18H24a7.976,7.976,0,0,0,2.726,6H22.091ZM28.447,28.13,29.9,31.042l-5.195-2.164ZM11,39.465a2.52,2.52,0,0,1,.743-1.793l7.75-7.751,1.7-.34,6.349,2.645-.619,4.29A3.946,3.946,0,0,0,25,36H24a1,1,0,0,0-1-1H17v2h5v5H13.536A2.539,2.539,0,0,1,11,39.465ZM7,44H57v2H7Zm2,6V48H55v2Z"/>
      <path id="Path_978877" data-name="Path 978877" d="M39,63V55a1,1,0,0,0-1-1H26a1,1,0,0,0-1,1v8h2V56H37v7Z"/>
      <path id="Path_978878" data-name="Path 978878" d="M23,63V55a1,1,0,0,0-1-1H12a1,1,0,0,0-1,1v8h2V56h8v7Z"/>
      <path id="Path_978879" data-name="Path 978879" d="M53,63V55a1,1,0,0,0-1-1H42a1,1,0,0,0-1,1v8h2V56h8v7Z"/>
    </g>
  </g>
</svg>
